{
.appVersion = "1271";
copyright = "Copyright (c) 2012 TypeSETit, LLC (typesetit@att.net),\012with Reserved Font Name \"Great Vibes\"";
customParameters = (
{
name = trademark;
value = "Grerat Vibes is a trademark of Robert E. Leuschke.";
},
{
name = licenseURL;
value = "http://scripts.sil.org/OFL";
},
{
name = license;
value = "This Font Software is licensed under the SIL Open Font License, Version 1.1. This license is available with a FAQ at: http://scripts.sil.org/OFL.";
},
{
name = panose;
value = (
2,
0,
5,
7,
8,
0,
0,
2,
0,
2
);
},
{
name = unicodeRanges;
value = (
0,
1,
2,
3,
5,
29,
31,
32,
33,
35,
36,
38,
45,
60,
62
);
},
{
name = fsType;
value = (
);
},
{
name = blueScale;
value = 0.03295;
},
{
name = glyphOrder;
value = (
.notdef,
space,
threequarters,
brokenbar,
minus,
multiply,
onequarter,
exclam,
quotedbl,
numbersign,
dollar,
percent,
ampersand,
quotesingle,
parenleft,
parenright,
asterisk,
plus,
comma,
hyphen,
period,
slash,
zero,
one,
two,
three,
four,
five,
six,
seven,
eight,
nine,
colon,
semicolon,
less,
equal,
greater,
question,
at,
A,
B,
C,
D,
E,
F,
G,
H,
I,
J,
K,
L,
M,
N,
O,
P,
Q,
R,
S,
T,
U,
V,
W,
X,
Y,
Z,
Z.stroke,
bracketleft,
backslash,
bracketright,
asciicircum,
underscore,
grave,
a,
b,
c,
d,
e,
f,
g,
h,
i,
j,
k,
l,
m,
n,
o,
p,
q,
r,
s,
t,
u,
v,
w,
x,
y,
z,
z.alt,
z.stroke,
braceleft,
bar,
braceright,
asciitilde,
Adieresis,
Aring,
Ccedilla,
Eacute,
Ntilde,
Odieresis,
Udieresis,
aacute,
agrave,
acircumflex,
adieresis,
atilde,
aring,
ccedilla,
eacute,
egrave,
ecircumflex,
edieresis,
iacute,
igrave,
icircumflex,
idieresis,
ntilde,
oacute,
ograve,
ocircumflex,
odieresis,
otilde,
uacute,
ugrave,
ucircumflex,
udieresis,
dagger,
degree,
cent,
sterling,
bullet,
paragraph,
germandbls,
registered,
copyright,
trademark,
acute,
dieresis,
notequal,
AE,
infinity,
plusminus,
lessequal,
greaterequal,
yen,
mu,
partialdiff,
pi,
integral,
ordfeminine,
ordmasculine,
summation,
Omega,
ae,
questiondown,
exclamdown,
logicalnot,
radical,
florin,
approxequal,

glyphs = (
{
glyphname = threequarters;
layers = (
{
hints = (
{
horizontal = 1;
place = "{761, 29}";
type = Stem;
}
);
layerId = "5266B3E4-A2B0-4CF3-936E-1186C5B63406";
paths = (
{
closed = 1;
nodes = (
"502 304 OFFCURVE",
"471 270 OFFCURVE",
"442 237 CURVE SMOOTH",
"401 194 LINE SMOOTH",
"380 174 OFFCURVE",
"360 153 OFFCURVE",
"344 133 CURVE",
"340 114 LINE",
"487 117 LINE",
"475 94 OFFCURVE",
"425 3 OFFCURVE",
"425 -1 CURVE",
"443 -11 OFFCURVE",
"484 3 OFFCURVE",
"488 7 CURVE",
"546 120 LINE",
"561 120 LINE",
"592 132 OFFCURVE",
"590 141 OFFCURVE",
"565 145 CURVE",
"560 145 LINE",
"572 167 OFFCURVE",
"598 219 OFFCURVE",
"598 222 CURVE",
"613 247 OFFCURVE",
"555 235 OFFCURVE",
"540 218 CURVE",
"521 180 OFFCURVE",
"514 168 OFFCURVE",
"502 143 CURVE",
"381 140 LINE",
"395 158 OFFCURVE",
"408 170 OFFCURVE",
"424 183 CURVE SMOOTH",
"494 243 OFFCURVE",
"611 341 OFFCURVE",
"612 357 CURVE",
"598 366 OFFCURVE",
"545 368 OFFCURVE",
"528 340 CURVE"
);
},
{
closed = 1;
nodes = (
"316 611 OFFCURVE",
"289 624 OFFCURVE",
"259 624 CURVE SMOOTH",
"208 624 OFFCURVE",
"166 587 OFFCURVE",
"136 550 CURVE",
"133 533 OFFCURVE",
"142 536 OFFCURVE",
"149 543 CURVE SMOOTH",
"169 566 OFFCURVE",
"200 591 OFFCURVE",
"228 591 CURVE SMOOTH",
"238 591 OFFCURVE",
"254 586 OFFCURVE",
"254 575 CURVE SMOOTH",
"254 508 OFFCURVE",
"168 456 OFFCURVE",
"117 446 CURVE",
"108 442 OFFCURVE",
"106 428 OFFCURVE",
"131 434 CURVE SMOOTH",
"143 437 OFFCURVE",
"168 447 OFFCURVE",
"177 447 CURVE SMOOTH",
"196 447 OFFCURVE",
"208 431 OFFCURVE",
"208 410 CURVE SMOOTH",
"208 347 OFFCURVE",
"141 259 OFFCURVE",
"64 259 CURVE SMOOTH",
"43 259 OFFCURVE",
"24 275 OFFCURVE",
"17 293 CURVE",
"1 301 OFFCURVE",
"3 291 OFFCURVE",
"7 280 CURVE SMOOTH",
"17 254 OFFCURVE",
"39 243 OFFCURVE",
"68 243 CURVE SMOOTH",
"160 243 OFFCURVE",
"262 323 OFFCURVE",
"262 403 CURVE SMOOTH",
"262 442 OFFCURVE",
"230 459 OFFCURVE",
"197 464 CURVE",
"248 485 OFFCURVE",
"316 523 OFFCURVE",
"316 579 CURVE SMOOTH"
);
},
{
closed = 1;
nodes = (
"496 538 OFFCURVE",
"183 142 OFFCURVE",
"65 9 CURVE SMOOTH",
"54 -4 OFFCURVE",
"59 -12 OFFCURVE",
"76 -1 CURVE SMOOTH",
"158 51 OFFCURVE",
"502 492 OFFCURVE",
"589 601 CURVE SMOOTH",
"604 620 OFFCURVE",
"560 623 OFFCURVE",
"545 606 CURVE"
);
}
);
width = 622;
}
);
note = threequarters;
unicode = 00BE;
},
{
glyphname = brokenbar;
layers = (
{
hints = (
{
horizontal = 1;
place = "{-231, 21}";
target = up;
type = BottomGhost;
},
{
horizontal = 1;
place = "{749, -20}";
target = down;
type = TopGhost;
}
);
layerId = "5266B3E4-A2B0-4CF3-936E-1186C5B63406";
paths = (
{
closed = 1;
nodes = (
"428 749 LINE",
"376 749 LINE",
"286 327 LINE",
"334 322 LINE"
);
},
{
closed = 1;
nodes = (
"311 216 LINE",
"264 220 LINE",
"168 -231 LINE",
"220 -231 LINE"
);
}
);
width = 485;
}
);
note = brokenbar;
unicode = 00A6;
},
{
glyphname = minus;
layers = (
{
hints = (
{
horizontal = 1;
place = "{207, 24}";
type = Stem;
},
{
place = "{107, 255}";
type = Stem;
}
);
layerId = "5266B3E4-A2B0-4CF3-936E-1186C5B63406";
paths = (
{
closed = 1;
nodes = (
"362 208 LINE",
"362 229 LINE",
"361 230 LINE",
"108 230 LINE",
"107 229 LINE",
"107 208 LINE",
"108 207 LINE",
"361 207 LINE"
);
}
);
width = 373;
}
);
note = minus;
unicode = 2212;
},
{
glyphname = multiply;
layers = (
{
hints = (
{
horizontal = 1;
place = "{101, 21}";
target = up;
type = BottomGhost;
},
{
horizontal = 1;
place = "{311, -20}";
target = down;
type = TopGhost;
}
);
layerId = "5266B3E4-A2B0-4CF3-936E-1186C5B63406";
paths = (
{
closed = 1;
nodes = (
"260 285 LINE",
"260 289 OFFCURVE",
"253 306 OFFCURVE",
"249 306 CURVE",
"175 226 LINE",
"133 311 LINE",
"129 310 OFFCURVE",
"115 295 OFFCURVE",
"114 291 CURVE",
"157 207 LINE",
"83 127 LINE",
"83 124 OFFCURVE",
"91 107 OFFCURVE",
"94 106 CURVE",
"168 186 LINE",
"210 101 LINE",
"214 102 OFFCURVE",
"228 117 OFFCURVE",
"229 121 CURVE",
"186 205 LINE"
);
}
);
width = 304;
}
);
note = multiply;
unicode = 00D7;
},
{
glyphname = onequarter;
layers = (
{
hints = (
{
horizontal = 1;
place = "{761, 29}";
type = Stem;
}
);
layerId = "5266B3E4-A2B0-4CF3-936E-1186C5B63406";
paths = (
{
closed = 1;
nodes = (
"502 304 OFFCURVE",
"471 270 OFFCURVE",
"442 237 CURVE SMOOTH",
"401 194 LINE SMOOTH",
"380 174 OFFCURVE",
"360 153 OFFCURVE",
"344 133 CURVE",
"340 114 LINE",
"487 117 LINE",
"475 94 OFFCURVE",
"425 3 OFFCURVE",
"425 -1 CURVE",
"443 -11 OFFCURVE",
"484 3 OFFCURVE",
"488 7 CURVE",
"546 120 LINE",
"561 120 LINE",
"592 132 OFFCURVE",
"590 141 OFFCURVE",
"565 145 CURVE",
"560 145 LINE",
"572 167 OFFCURVE",
"598 219 OFFCURVE",
"598 222 CURVE",
"613 247 OFFCURVE",
"555 235 OFFCURVE",
"540 218 CURVE",
"521 180 OFFCURVE",
"514 168 OFFCURVE",
"502 143 CURVE",
"381 140 LINE",
"395 158 OFFCURVE",
"408 170 OFFCURVE",
"424 183 CURVE SMOOTH",
"494 243 OFFCURVE",
"611 341 OFFCURVE",
"612 357 CURVE",
"598 366 OFFCURVE",
"545 368 OFFCURVE",
"528 340 CURVE"
);
},
{
closed = 1;
nodes = (
"496 538 OFFCURVE",
"183 142 OFFCURVE",
"65 9 CURVE SMOOTH",
"54 -4 OFFCURVE",
"59 -12 OFFCURVE",
"76 -1 CURVE SMOOTH",
"158 51 OFFCURVE",
"502 492 OFFCURVE",
"589 601 CURVE SMOOTH",
"604 620 OFFCURVE",
"560 623 OFFCURVE",
"545 606 CURVE"
);
},
{
closed = 1;
nodes = (
"231 615 OFFCURVE",
"218 602 OFFCURVE",
"211 594 CURVE SMOOTH",
"182 565 OFFCURVE",
"141 523 OFFCURVE",
"109 499 CURVE SMOOTH",
"93 487 LINE",
"72 465 OFFCURVE",
"92 471 OFFCURVE",
"104 478 CURVE",
"128 496 OFFCURVE",
"161 511 OFFCURVE",
"181 527 CURVE",
"32 250 LINE",
"31 240 OFFCURVE",
"78 243 OFFCURVE",
"87 256 CURVE",
"150 371 OFFCURVE",
"202 487 OFFCURVE",
"265 601 CURVE",
"272 619 OFFCURVE",
"265 618 OFFCURVE",
"245 616 CURVE SMOOTH"
);
}
);
width = 622;
}
);
note = onequarter;
unicode = 00BC;
},
{
glyphname = exclam;
layers = (
{
hints = (
{
horizontal = 1;
place = "{-14, 82}";
type = Stem;
}
);
layerId = "5266B3E4-A2B0-4CF3-936E-1186C5B63406";
paths = (
{
closed = 1;
nodes = (
"538 617 LINE",
"533 619 LINE",
"507 618 OFFCURVE",
"464 626 OFFCURVE",
"450 599 CURVE SMOOTH",
"196 115 LINE",
"195 108 LINE",
"205 107 LINE",
"242 163 OFFCURVE",
"529 581 OFFCURVE",
"540 611 CURVE"
);
},
{
closed = 1;
nodes = (
"206 50 OFFCURVE",
"190 68 OFFCURVE",
"168 68 CURVE SMOOTH",
"145 68 OFFCURVE",
"123 50 OFFCURVE",
"120 27 CURVE SMOOTH",
"116 4 OFFCURVE",
"131 -14 OFFCURVE",
"154 -14 CURVE SMOOTH",
"177 -14 OFFCURVE",
"198 4 OFFCURVE",
"202 27 CURVE SMOOTH"
);
}
);
width = 350;
}
);
note = exclam;
unicode = 0021;
},
{
glyphname = quotedbl;
layers = (
{
hints = (
{
horizontal = 1;
place = "{416, 20}";
type = Stem;
}
);
layerId = "5266B3E4-A2B0-4CF3-936E-1186C5B63406";
paths = (
{
closed = 1;
nodes = (
"329 650 OFFCURVE",
"322 657 OFFCURVE",
"308 657 CURVE SMOOTH",
"290 657 OFFCURVE",
"277 644 OFFCURVE",
"279 625 CURVE SMOOTH",
"287 459 LINE",
"297 459 LINE",
"304 489 OFFCURVE",
"337 608 OFFCURVE",
"331 637 CURVE SMOOTH"
);
},
{
closed = 1;
nodes = (
"220 651 OFFCURVE",
"212 657 OFFCURVE",
"200 657 CURVE SMOOTH",
"183 657 OFFCURVE",
"169 641 OFFCURVE",
"170 624 CURVE SMOOTH",
"179 459 LINE",
"189 459 LINE",
"197 490 OFFCURVE",
"228 608 OFFCURVE",
"222 638 CURVE SMOOTH"
);
}
);
width = 318;
}
);
note = quotedbl;
unicode = 0022;
},
{
glyphname = numbersign;
layers = (
{
hints = (
{
horizontal = 1;
place = "{0, 276}";
type = Stem;
},
{
horizontal = 1;
place = "{417, 48}";
type = Stem;
}
);
layerId = "5266B3E4-A2B0-4CF3-936E-1186C5B63406";
paths = (
{
closed = 1;
nodes = (
"719 465 LINE",
"571 465 LINE",
"710 696 LINE",
"656 696 LINE",
"517 465 LINE",
"377 465 LINE",
"517 696 LINE",
"462 696 LINE",
"324 465 LINE",
"154 465 LINE",
"125 417 LINE",
"295 417 LINE",
"211 276 LINE",
"55 276 LINE",
"25 229 LINE",
"183 229 LINE",
"45 0 LINE",
"98 0 LINE",
"237 229 LINE",
"375 229 LINE",
"238 0 LINE",
"291 0 LINE",
"430 229 LINE",
"591 229 LINE",
"620 276 LINE",
"459 276 LINE",
"542 417 LINE",
"691 417 LINE"
);
},
{
closed = 1;
nodes = (
"488 417 LINE",
"404 276 LINE",
"264 276 LINE",
"349 417 LINE"
);
}
);
width = 746;
}
);
note = numbersign;
unicode = 0023;
},
{
glyphname = dollar;
layers = (
{
hints = (
{
horizontal = 1;
place = "{421, 88}";
type = Stem;
},
{
place = "{158, 63}";
type = Stem;
},
{
place = "{277, 63}";
type = Stem;
},
{
place = "{453, 23}";
type = Stem;
}
);
layerId = "5266B3E4-A2B0-4CF3-936E-1186C5B63406";
paths = (
{
closed = 1;
nodes = (
"475 524 OFFCURVE",
"455 563 OFFCURVE",
"401 572 CURVE",
"434 633 LINE",
"402 627 LINE",
"374 575 LINE",
"284 575 OFFCURVE",
"157 528 OFFCURVE",
"157 420 CURVE SMOOTH",
"157 372 OFFCURVE",
"188 329 OFFCURVE",
"217 293 CURVE",
"68 21 LINE",
"28 29 OFFCURVE",
"-11 47 OFFCURVE",
"-40 77 CURVE",
"-49 77 LINE",
"-53 73 OFFCURVE",
"-66 59 OFFCURVE",
"-67 53 CURVE",
"-43 21 OFFCURVE",
"18 7 OFFCURVE",
"56 0 CURVE",
"21 -61 LINE",
"55 -55 LINE",
"83 -2 LINE",
"193 -2 OFFCURVE",
"339 64 OFFCURVE",
"339 192 CURVE SMOOTH",
"339 247 OFFCURVE",
"304 298 OFFCURVE",
"272 340 CURVE",
"389 552 LINE",
"417 546 OFFCURVE",
"446 532 OFFCURVE",
"452 492 CURVE",
"449 500 OFFCURVE",
"432 509 OFFCURVE",
"421 509 CURVE SMOOTH",
"395 509 OFFCURVE",
"377 491 OFFCURVE",
"376 467 CURVE SMOOTH",
"375 442 OFFCURVE",
"395 421 OFFCURVE",
"420 421 CURVE SMOOTH",
"452 421 OFFCURVE",
"475 452 OFFCURVE",
"475 487 CURVE SMOOTH"
);
},
{
closed = 1;
nodes = (
"256 362 LINE",
"239 390 OFFCURVE",
"220 412 OFFCURVE",
"220 446 CURVE SMOOTH",
"220 512 OFFCURVE",
"290 557 OFFCURVE",
"350 557 CURVE SMOOTH",
"355 557 OFFCURVE",
"359 556 OFFCURVE",
"364 556 CURVE"
);
},
{
closed = 1;
nodes = (
"276 80 OFFCURVE",
"180 18 OFFCURVE",
"94 18 CURVE",
"235 272 LINE",
"256 244 OFFCURVE",
"276 210 OFFCURVE",
"276 174 CURVE SMOOTH"
);
}
);
width = 449;
}
);
note = dollar;
unicode = 0024;
},
{
glyphname = percent;
layers = (
{
hints = (
{
horizontal = 1;
place = "{-29, 22}";
type = Stem;
},
{
horizontal = 1;
place = "{289, 32}";
type = Stem;
},
{
horizontal = 1;
place = "{381, 22}";
type = Stem;
},
{
horizontal = 1;
place = "{415, 106}";
type = Stem;
},
{
horizontal = 1;
place = "{700, 32}";
type = Stem;
},
{
place = "{62, 56}";
type = Stem;
},
{
place = "{193, 65}";
type = Stem;
},
{
place = "{279, 56}";
type = Stem;
},
{
place = "{537, 27}";
type = Stem;
}
);
layerId = "5266B3E4-A2B0-4CF3-936E-1186C5B63406";
paths = (
{
closed = 1;
nodes = (
"620 661 LINE",
"620 672 OFFCURVE",
"597 667 OFFCURVE",
"594 665 CURVE SMOOTH",
"580 657 OFFCURVE",
"458 511 OFFCURVE",
"413 476 CURVE SMOOTH",
"340 418 OFFCURVE",
"266 382 OFFCURVE",
"238 432 CURVE",
"308 497 OFFCURVE",
"422 728 OFFCURVE",
"273 732 CURVE SMOOTH",
"206 733 OFFCURVE",
"122 655 OFFCURVE",
"83 564 CURVE SMOOTH",
"45 475 OFFCURVE",
"56 383 OFFCURVE",
"132 381 CURVE SMOOTH",
"162 380 OFFCURVE",
"192 394 OFFCURVE",
"219 415 CURVE",
"272 360 OFFCURVE",
"359 406 OFFCURVE",
"437 473 CURVE",
"285 285 OFFCURVE",
"134 97 OFFCURVE",
"-33 -79 CURVE",
"-32 -84 LINE",
"5 -84 LINE"
);
},
{
closed = 1;
nodes = (
"423 323 OFFCURVE",
"339 245 OFFCURVE",
"300 153 CURVE SMOOTH",
"262 64 OFFCURVE",
"273 -27 OFFCURVE",
"349 -29 CURVE SMOOTH",
"489 -33 OFFCURVE",
"666 317 OFFCURVE",
"490 321 CURVE SMOOTH"
);
},
{
closed = 1;
nodes = (
"358 680 OFFCURVE",
"284 521 OFFCURVE",
"255 480 CURVE",
"257 484 OFFCURVE",
"257 487 OFFCURVE",
"257 491 CURVE SMOOTH",
"257 508 OFFCURVE",
"244 521 OFFCURVE",
"227 521 CURVE SMOOTH",
"203 521 OFFCURVE",
"193 501 OFFCURVE",
"193 478 CURVE SMOOTH",
"192 463 OFFCURVE",
"198 445 OFFCURVE",
"208 429 CURVE",
"184 409 OFFCURVE",
"160 399 OFFCURVE",
"140 405 CURVE SMOOTH",
"104 415 OFFCURVE",
"114 485 OFFCURVE",
"152 567 CURVE SMOOTH",
"190 647 OFFCURVE",
"251 710 OFFCURVE",
"294 698 CURVE SMOOTH"
);
},
{
closed = 1;
nodes = (
"507 131 OFFCURVE",
"486 88 OFFCURVE",
"472 70 CURVE SMOOTH",
"448 40 OFFCURVE",
"403 -19 OFFCURVE",
"357 -6 CURVE SMOOTH",
"321 4 OFFCURVE",
"331 74 OFFCURVE",
"369 157 CURVE SMOOTH",
"407 236 OFFCURVE",
"468 300 OFFCURVE",
"512 287 CURVE SMOOTH",
"547 277 OFFCURVE",
"540 225 OFFCURVE",
"522 173 CURVE SMOOTH"
);
}
);
width = 621;
}
);
note = percent;
unicode = 0025;
},
{
glyphname = ampersand;
layers = (
{
hints = (
{
horizontal = 1;
place = "{-45, 13}";
type = Stem;
},
{
horizontal = 1;
place = "{245, 38}";
type = Stem;
},
{
horizontal = 1;
place = "{337, 17}";
type = Stem;
},
{
horizontal = 1;
place = "{383, 17}";
type = Stem;
},
{
horizontal = 1;
place = "{541, 93}";
type = Stem;
},
{
horizontal = 1;
place = "{676, 27}";
type = Stem;
},
{
place = "{11, 98}";
type = Stem;
},
{
place = "{273, 53}";
type = Stem;
},
{
place = "{448, 17}";
type = Stem;
},
{
place = "{503, 52}";
type = Stem;
},
{
place = "{671, 26}";
type = Stem;
},
{
place = "{730, 16}";
type = Stem;
}
);
layerId = "5266B3E4-A2B0-4CF3-936E-1186C5B63406";
paths = (
{
closed = 1;
nodes = (
"724 431 OFFCURVE",
"713 423 OFFCURVE",
"720 412 CURVE SMOOTH",
"773 333 OFFCURVE",
"586 283 OFFCURVE",
"539 283 CURVE SMOOTH",
"362 283 LINE SMOOTH",
"159 283 OFFCURVE",
"107 139 OFFCURVE",
"282 45 CURVE SMOOTH",
"294 39 OFFCURVE",
"293 60 OFFCURVE",
"282 66 CURVE SMOOTH",
"231 93 OFFCURVE",
"211 127 OFFCURVE",
"216 158 CURVE SMOOTH",
"235 272 OFFCURVE",
"508 274 OFFCURVE",
"503 163 CURVE SMOOTH",
"499 84 OFFCURVE",
"402 -32 OFFCURVE",
"261 -32 CURVE SMOOTH",
"28 -32 OFFCURVE",
"77 346 OFFCURVE",
"314 381 CURVE",
"335 360 OFFCURVE",
"371 337 OFFCURVE",
"415 337 CURVE SMOOTH",
"485 337 OFFCURVE",
"476 395 OFFCURVE",
"418 400 CURVE SMOOTH",
"388 402 OFFCURVE",
"356 398 OFFCURVE",
"335 398 CURVE",
"304 463 OFFCURVE",
"362 553 OFFCURVE",
"408 594 CURVE SMOOTH",
"475 652 OFFCURVE",
"550 677 OFFCURVE",
"603 676 CURVE SMOOTH",
"639 675 OFFCURVE",
"678 661 OFFCURVE",
"670 616 CURVE",
"667 625 OFFCURVE",
"649 634 OFFCURVE",
"637 634 CURVE SMOOTH",
"610 635 OFFCURVE",
"590 616 OFFCURVE",
"589 589 CURVE SMOOTH",
"588 563 OFFCURVE",
"609 541 OFFCURVE",
"636 541 CURVE SMOOTH",
"670 541 OFFCURVE",
"697 577 OFFCURVE",
"697 615 CURVE SMOOTH",
"697 682 OFFCURVE",
"632 702 OFFCURVE",
"577 703 CURVE SMOOTH",
"453 705 OFFCURVE",
"276 627 OFFCURVE",
"273 485 CURVE SMOOTH",
"273 454 OFFCURVE",
"283 420 OFFCURVE",
"301 395 CURVE",
"-57 357 OFFCURVE",
"-98 -45 OFFCURVE",
"261 -45 CURVE SMOOTH",
"482 -45 OFFCURVE",
"627 161 OFFCURVE",
"518 251 CURVE",
"651 249 OFFCURVE",
"792 329 OFFCURVE",
"731 420 CURVE SMOOTH"
);
},
{
closed = 1;
nodes = (
"453 380 OFFCURVE",
"464 354 OFFCURVE",
"415 354 CURVE SMOOTH",
"382 354 OFFCURVE",
"358 365 OFFCURVE",
"343 384 CURVE",
"367 385 OFFCURVE",
"391 385 OFFCURVE",
"417 383 CURVE SMOOTH"
);
}
);
width = 606;
}
);
note = ampersand;
unicode = 0026;
},
{
glyphname = quotesingle;
layers = (
{
hints = (
{
horizontal = 1;
place = "{477, 82}";
type = Stem;
},
{
place = "{161, 27}";
type = Stem;
}
);
layerId = "5266B3E4-A2B0-4CF3-936E-1186C5B63406";
paths = (
{
closed = 1;
nodes = (
"188 530 OFFCURVE",
"176 559 OFFCURVE",
"147 559 CURVE SMOOTH",
"124 559 OFFCURVE",
"103 540 OFFCURVE",
"99 518 CURVE SMOOTH",
"95 495 OFFCURVE",
"111 476 OFFCURVE",
"133 476 CURVE SMOOTH",
"144 476 OFFCURVE",
"153 480 OFFCURVE",
"162 486 CURVE",
"156 441 OFFCURVE",
"122 412 OFFCURVE",
"85 399 CURVE SMOOTH",
"73 395 OFFCURVE",
"75 384 OFFCURVE",
"88 388 CURVE SMOOTH",
"130 402 OFFCURVE",
"188 439 OFFCURVE",
"188 504 CURVE SMOOTH"
);
}
);
width = 158;
}
);
note = quotesingle;
unicode = 0027;
},
{
glyphname = parenleft;
layers = (
{
hints = (
{
horizontal = 1;
place = "{-60, 22}";
type = Stem;
},
{
place = "{25, 58}";
type = Stem;
}
);
layerId = "5266B3E4-A2B0-4CF3-936E-1186C5B63406";
paths = (
{
closed = 1;
nodes = (
"266 696 OFFCURVE",
"80 471 OFFCURVE",
"41 324 CURVE SMOOTH",
"-18 95 OFFCURVE",
"88 -76 OFFCURVE",
"230 -59 CURVE SMOOTH",
"263 -55 OFFCURVE",
"263 -34 OFFCURVE",
"237 -37 CURVE SMOOTH",
"88 -55 OFFCURVE",
"49 148 OFFCURVE",
"109 333 CURVE SMOOTH",
"146 449 OFFCURVE",
"267 674 OFFCURVE",
"496 734 CURVE SMOOTH",
"525 742 OFFCURVE",
"529 763 OFFCURVE",
"496 755 CURVE SMOOTH"
);
}
);
width = 350;
}
);
note = parenleft;
unicode = 0028;
},
{
glyphname = parenright;
layers = (
{
hints = (
{
horizontal = 1;
place = "{742, 22}";
type = Stem;
},
{
place = "{451, 58}";
type = Stem;
}
);
layerId = "5266B3E4-A2B0-4CF3-936E-1186C5B63406";
paths = (
{
closed = 1;
nodes = (
"551 609 OFFCURVE",
"445 780 OFFCURVE",
"303 763 CURVE SMOOTH",
"270 759 OFFCURVE",
"270 738 OFFCURVE",
"297 741 CURVE SMOOTH",
"445 758 OFFCURVE",
"484 556 OFFCURVE",
"424 371 CURVE SMOOTH",
"387 255 OFFCURVE",
"266 30 OFFCURVE",
"38 -30 CURVE SMOOTH",
"8 -38 OFFCURVE",
"4 -59 OFFCURVE",
"37 -51 CURVE SMOOTH",
"267 8 OFFCURVE",
"454 233 OFFCURVE",
"492 380 CURVE SMOOTH"
);
}
);
width = 518;
}
);
note = parenright;
unicode = 0029;
},
{
glyphname = asterisk;
layers = (
{
hints = (
{
horizontal = 1;
place = "{357, 33}";
type = Stem;
}
);
layerId = "5266B3E4-A2B0-4CF3-936E-1186C5B63406";
paths = (
{
closed = 1;
nodes = (
"256 389 LINE",
"341 481 LINE SMOOTH",
"367 509 OFFCURVE",
"354 538 OFFCURVE",
"334 517 CURVE SMOOTH",
"218 400 LINE",
"159 515 LINE SMOOTH",
"142 547 OFFCURVE",
"112 540 OFFCURVE",
"125 514 CURVE SMOOTH",
"146 470 OFFCURVE",
"165 428 OFFCURVE",
"182 389 CURVE",
"37 389 LINE SMOOTH",
"1 389 OFFCURVE",
"18 343 OFFCURVE",
"36 344 CURVE SMOOTH",
"168 349 LINE",
"68 248 LINE SMOOTH",
"41 221 OFFCURVE",
"84 203 OFFCURVE",
"97 216 CURVE SMOOTH",
"206 335 LINE",
"256 223 LINE",
"273 190 OFFCURVE",
"302 231 OFFCURVE",
"294 247 CURVE SMOOTH",
"275 283 OFFCURVE",
"258 317 OFFCURVE",
"241 352 CURVE",
"373 357 LINE SMOOTH",
"408 358 OFFCURVE",
"420 389 OFFCURVE",
"392 389 CURVE SMOOTH"
);
}
);
width = 431;
}
);
note = asterisk;
unicode = 002A;
},
{
glyphname = plus;
layers = (
{
hints = (
{
horizontal = 1;
place = "{203, 36}";
type = Stem;
}
);
layerId = "5266B3E4-A2B0-4CF3-936E-1186C5B63406";
paths = (
{
closed = 1;
nodes = (
"418 239 OFFCURVE",
"370 238 OFFCURVE",
"331 239 CURVE",
"339 280 OFFCURVE",
"352 351 OFFCURVE",
"361 388 CURVE SMOOTH",
"367 415 OFFCURVE",
"339 407 OFFCURVE",
"333 384 CURVE SMOOTH",
"322 344 OFFCURVE",
"307 276 OFFCURVE",
"298 239 CURVE",
"245 240 OFFCURVE",
"181 242 OFFCURVE",
"159 242 CURVE SMOOTH",
"129 242 OFFCURVE",
"132 192 OFFCURVE",
"147 194 CURVE SMOOTH",
"176 197 OFFCURVE",
"241 199 OFFCURVE",
"288 203 CURVE",
"275 149 OFFCURVE",
"259 91 OFFCURVE",
"254 68 CURVE SMOOTH",
"247 39 OFFCURVE",
"300 54 OFFCURVE",
"302 68 CURVE SMOOTH",
"305 98 OFFCURVE",
"317 156 OFFCURVE",
"325 205 CURVE",
"368 208 OFFCURVE",
"420 211 OFFCURVE",
"458 211 CURVE SMOOTH",
"485 211 OFFCURVE",
"483 237 OFFCURVE",
"461 238 CURVE SMOOTH"
);
}
);
width = 458;
}
);
note = plus;
unicode = 002B;
},
{
glyphname = comma;
layers = (
{
hints = (
{
horizontal = 1;
place = "{-14, 82}";
type = Stem;
},
{
place = "{84, 27}";
type = Stem;
}
);
layerId = "5266B3E4-A2B0-4CF3-936E-1186C5B63406";
paths = (
{
closed = 1;
nodes = (
"114 46 OFFCURVE",
"99 68 OFFCURVE",
"70 68 CURVE SMOOTH",
"47 68 OFFCURVE",
"25 50 OFFCURVE",
"22 27 CURVE SMOOTH",
"18 4 OFFCURVE",
"33 -14 OFFCURVE",
"56 -14 CURVE SMOOTH",
"66 -14 OFFCURVE",
"76 -10 OFFCURVE",
"84 -4 CURVE",
"79 -49 OFFCURVE",
"45 -79 OFFCURVE",
"8 -91 CURVE SMOOTH",
"-5 -95 OFFCURVE",
"-2 -107 OFFCURVE",
"10 -102 CURVE SMOOTH",
"52 -88 OFFCURVE",
"114 -46 OFFCURVE",
"114 20 CURVE SMOOTH"
);
}
);
width = 153;
}
);
note = comma;
unicode = 002C;
},
{
glyphname = hyphen;
layers = (
{
hints = (
{
horizontal = 1;
place = "{211, 27}";
type = Stem;
},
{
place = "{147, 258}";
type = Stem;
}
);
layerId = "5266B3E4-A2B0-4CF3-936E-1186C5B63406";
paths = (
{
closed = 1;
nodes = (
"415 211 OFFCURVE",
"407 237 OFFCURVE",
"384 238 CURVE SMOOTH",
"268 241 OFFCURVE",
"206 242 OFFCURVE",
"164 242 CURVE SMOOTH",
"135 242 OFFCURVE",
"150 192 OFFCURVE",
"164 194 CURVE SMOOTH",
"224 201 OFFCURVE",
"296 211 OFFCURVE",
"388 211 CURVE SMOOTH"
);
}
);
width = 406;
}
);
note = hyphen;
unicode = 002D;
},
{
glyphname = period;
layers = (
{
hints = (
{
horizontal = 1;
place = "{-14, 82}";
type = Stem;
}
);
layerId = "5266B3E4-A2B0-4CF3-936E-1186C5B63406";
paths = (
{
closed = 1;
nodes = (
"189 50 OFFCURVE",
"173 68 OFFCURVE",
"151 68 CURVE SMOOTH",
"128 68 OFFCURVE",
"106 50 OFFCURVE",
"103 27 CURVE SMOOTH",
"99 4 OFFCURVE",
"114 -14 OFFCURVE",
"137 -14 CURVE SMOOTH",
"160 -14 OFFCURVE",
"181 4 OFFCURVE",
"185 27 CURVE SMOOTH"
);
}
);
width = 208;
}
);
note = period;
unicode = 002E;
},
{
glyphname = slash;
layers = (
{
hints = (
{
horizontal = 1;
place = "{761, 29}";
type = Stem;
}
);
layerId = "5266B3E4-A2B0-4CF3-936E-1186C5B63406";
paths = (
{
closed = 1;
nodes = (
"423 453 OFFCURVE",
"126 70 OFFCURVE",
"27 -17 CURVE SMOOTH",
"7 -34 OFFCURVE",
"17 -50 OFFCURVE",
"44 -33 CURVE SMOOTH",
"166 47 OFFCURVE",
"582 597 OFFCURVE",
"748 788 CURVE SMOOTH",
"772 815 OFFCURVE",
"719 827 OFFCURVE",
"698 800 CURVE SMOOTH"
);
}
);
width = 548;
}
);
note = slash;
unicode = 002F;
},
{
glyphname = zero;
layers = (
{
hints = (
{
horizontal = 1;
place = "{-11, 20}";
type = Stem;
},
{
horizontal = 1;
place = "{560, 19}";
type = Stem;
},
{
place = "{52, 60}";
type = Stem;
},
{
place = "{466, 39}";
type = Stem;
}
);
layerId = "5266B3E4-A2B0-4CF3-936E-1186C5B63406";
paths = (
{
closed = 1;
nodes = (
"505 530 OFFCURVE",
"481 579 OFFCURVE",
"412 579 CURVE SMOOTH",
"244 579 OFFCURVE",
"52 271 OFFCURVE",
"52 119 CURVE SMOOTH",
"52 51 OFFCURVE",
"86 -11 OFFCURVE",
"161 -11 CURVE SMOOTH",
"342 -11 OFFCURVE",
"505 310 OFFCURVE",
"505 468 CURVE SMOOTH"
);
},
{
closed = 1;
nodes = (
"467 367 OFFCURVE",
"309 9 OFFCURVE",
"173 9 CURVE SMOOTH",
"126 9 OFFCURVE",
"112 43 OFFCURVE",
"112 84 CURVE SMOOTH",
"112 197 OFFCURVE",
"282 560 OFFCURVE",
"413 560 CURVE SMOOTH",
"456 560 OFFCURVE",
"467 524 OFFCURVE",
"467 487 CURVE SMOOTH"
);
}
);
width = 502;
}
);
note = zero;
unicode = 0030;
},
{
glyphname = one;
layers = (
{
hints = (
{
horizontal = 1;
place = "{-2, 20}";
type = Stem;
}
);
layerId = "5266B3E4-A2B0-4CF3-936E-1186C5B63406";
paths = (
{
closed = 1;
nodes = (
"426 563 LINE",
"426 568 LINE",
"424 569 OFFCURVE",
"422 570 OFFCURVE",
"420 569 CURVE",
"389 566 LINE SMOOTH",
"372 564 OFFCURVE",
"355 545 OFFCURVE",
"344 533 CURVE SMOOTH",
"287 473 OFFCURVE",
"228 430 OFFCURVE",
"161 379 CURVE",
"159 373 LINE",
"163 365 LINE",
"167 365 LINE",
"226 401 OFFCURVE",
"279 442 OFFCURVE",
"330 488 CURVE",
"240 328 OFFCURVE",
"151 167 OFFCURVE",
"60 6 CURVE",
"61 0 LINE",
"63 0 OFFCURVE",
"68 -2 OFFCURVE",
"70 -2 CURVE SMOOTH",
"82 -1 OFFCURVE",
"112 -1 OFFCURVE",
"122 5 CURVE",
"421 553 LINE"
);
}
);
width = 378;
}
);
note = one;
unicode = 0031;
},
{
glyphname = two;
layers = (
{
hints = (
{
horizontal = 1;
place = "{-12, 56}";
type = Stem;
},
{
horizontal = 1;
place = "{545, 31}";
type = Stem;
},
{
place = "{432, 71}";
type = Stem;
}
);
layerId = "5266B3E4-A2B0-4CF3-936E-1186C5B63406";
paths = (
{
closed = 1;
nodes = (
"503 547 OFFCURVE",
"463 576 OFFCURVE",
"412 576 CURVE SMOOTH",
"311 576 OFFCURVE",
"233 479 OFFCURVE",
"202 392 CURVE",
"204 386 LINE",
"216 386 LINE",
"220 390 LINE",
"245 455 OFFCURVE",
"309 545 OFFCURVE",
"385 545 CURVE SMOOTH",
"414 545 OFFCURVE",
"433 532 OFFCURVE",
"433 501 CURVE SMOOTH",
"433 387 OFFCURVE",
"203 180 OFFCURVE",
"121 107 CURVE",
"115 110 OFFCURVE",
"105 109 OFFCURVE",
"99 108 CURVE SMOOTH",
"93 106 OFFCURVE",
"3 7 OFFCURVE",
"1 0 CURVE",
"14 -8 LINE",
"84 47 LINE",
"108 37 OFFCURVE",
"211 -12 OFFCURVE",
"240 -12 CURVE SMOOTH",
"293 -12 OFFCURVE",
"366 68 OFFCURVE",
"398 107 CURVE",
"398 111 LINE",
"391 117 LINE",
"378 113 OFFCURVE",
"334 44 OFFCURVE",
"278 44 CURVE SMOOTH",
"254 44 OFFCURVE",
"167 88 OFFCURVE",
"141 101 CURVE",
"217 164 OFFCURVE",
"503 385 OFFCURVE",
"503 493 CURVE SMOOTH"
);
}
);
width = 488;
}
);
note = two;
unicode = 0032;
},
{
glyphname = three;
layers = (
{
hints = (
{
horizontal = 1;
place = "{-11, 22}";
type = Stem;
},
{
horizontal = 1;
place = "{546, 32}";
type = Stem;
},
{
place = "{331, 68}";
type = Stem;
},
{
place = "{418, 68}";
type = Stem;
}
);
layerId = "5266B3E4-A2B0-4CF3-936E-1186C5B63406";
paths = (
{
closed = 1;
nodes = (
"486 561 OFFCURVE",
"450 578 OFFCURVE",
"410 578 CURVE SMOOTH",
"335 578 OFFCURVE",
"273 523 OFFCURVE",
"228 468 CURVE",
"228 463 LINE",
"235 457 LINE",
"240 457 LINE",
"272 493 OFFCURVE",
"326 546 OFFCURVE",
"378 546 CURVE SMOOTH",
"402 546 OFFCURVE",
"417 535 OFFCURVE",
"417 510 CURVE SMOOTH",
"417 413 OFFCURVE",
"260 337 OFFCURVE",
"187 308 CURVE",
"183 303 LINE",
"184 294 LINE",
"191 291 LINE",
"213 297 OFFCURVE",
"238 305 OFFCURVE",
"261 305 CURVE SMOOTH",
"299 305 OFFCURVE",
"331 284 OFFCURVE",
"331 243 CURVE SMOOTH",
"331 137 OFFCURVE",
"195 11 OFFCURVE",
"92 11 CURVE SMOOTH",
"71 11 OFFCURVE",
"41 17 OFFCURVE",
"22 26 CURVE",
"17 24 LINE",
"10 18 LINE",
"10 13 LINE",
"36 -6 OFFCURVE",
"72 -11 OFFCURVE",
"103 -11 CURVE SMOOTH",
"217 -11 OFFCURVE",
"399 112 OFFCURVE",
"399 235 CURVE SMOOTH",
"399 307 OFFCURVE",
"323 327 OFFCURVE",
"264 327 CURVE",
"342 355 OFFCURVE",
"486 416 OFFCURVE",
"486 516 CURVE SMOOTH"
);
}
);
width = 458;
}
);
note = three;
unicode = 0033;
},
{
glyphname = four;
layers = (
{
hints = (
{
horizontal = 1;
place = "{188, 21}";
type = Stem;
}
);
layerId = "5266B3E4-A2B0-4CF3-936E-1186C5B63406";
paths = (
{
closed = 1;
nodes = (
"484 569 LINE",
"477 572 LINE",
"424 562 OFFCURVE",
"407 569 OFFCURVE",
"374 526 CURVE SMOOTH",
"331 469 OFFCURVE",
"286 416 OFFCURVE",
"239 363 CURVE SMOOTH",
"191 309 OFFCURVE",
"127 252 OFFCURVE",
"83 197 CURVE SMOOTH",
"81 195 OFFCURVE",
"80 192 OFFCURVE",
"79 190 CURVE",
"79 182 LINE",
"322 188 LINE",
"313 172 OFFCURVE",
"222 5 OFFCURVE",
"222 -2 CURVE SMOOTH",
"222 -6 LINE",
"227 -7 LINE",
"235 -7 OFFCURVE",
"286 3 OFFCURVE",
"291 8 CURVE SMOOTH",
"302 19 OFFCURVE",
"373 167 OFFCURVE",
"385 191 CURVE",
"414 192 LINE",
"421 197 LINE",
"426 208 LINE",
"420 212 LINE",
"396 212 LINE",
"403 224 OFFCURVE",
"463 340 OFFCURVE",
"463 345 CURVE SMOOTH",
"462 351 LINE",
"456 354 LINE",
"438 353 OFFCURVE",
"408 354 OFFCURVE",
"399 335 CURVE SMOOTH",
"334 209 LINE",
"117 205 LINE",
"149 234 OFFCURVE",
"487 530 OFFCURVE",
"485 562 CURVE SMOOTH"
);
}
);
width = 464;
}
);
note = four;
unicode = 0034;
},
{
glyphname = five;
layers = (
{
hints = (
{
horizontal = 1;
place = "{-13, 19}";
type = Stem;
},
{
horizontal = 1;
place = "{324, 26}";
type = Stem;
},
{
horizontal = 1;
place = "{493, 64}";
type = Stem;
},
{
place = "{316, 67}";
type = Stem;
}
);
layerId = "5266B3E4-A2B0-4CF3-936E-1186C5B63406";
paths = (
{
closed = 1;
nodes = (
"503 578 LINE",
"443 532 OFFCURVE",
"334 579 OFFCURVE",
"273 554 CURVE",
"260 543 OFFCURVE",
"122 303 OFFCURVE",
"113 276 CURVE",
"113 270 LINE",
"119 268 LINE",
"161 289 OFFCURVE",
"202 324 OFFCURVE",
"251 324 CURVE SMOOTH",
"292 324 OFFCURVE",
"316 301 OFFCURVE",
"316 260 CURVE SMOOTH",
"316 148 OFFCURVE",
"172 6 OFFCURVE",
"60 6 CURVE SMOOTH",
"40 6 OFFCURVE",
"17 8 OFFCURVE",
"-2 15 CURVE",
"-6 13 LINE",
"-12 6 LINE",
"-12 -1 LINE",
"4 -12 OFFCURVE",
"40 -13 OFFCURVE",
"59 -13 CURVE SMOOTH",
"186 -13 OFFCURVE",
"383 125 OFFCURVE",
"383 263 CURVE SMOOTH",
"383 323 OFFCURVE",
"338 350 OFFCURVE",
"283 350 CURVE SMOOTH",
"238 350 OFFCURVE",
"186 330 OFFCURVE",
"149 305 CURVE",
"259 496 LINE",
"343 491 OFFCURVE",
"471 479 OFFCURVE",
"507 576 CURVE"
);
}
);
width = 445;
}
);
note = five;
unicode = 0035;
},
{
glyphname = six;
layers = (
{
hints = (
{
horizontal = 1;
place = "{-11, 23}";
type = Stem;
},
{
horizontal = 1;
place = "{306, 31}";
type = Stem;
},
{
place = "{37, 59}";
type = Stem;
},
{
place = "{338, 62}";
type = Stem;
}
);
layerId = "5266B3E4-A2B0-4CF3-936E-1186C5B63406";
paths = (
{
closed = 1;
nodes = (
"426 588 LINE",
"420 587 LINE",
"281 491 OFFCURVE",
"37 278 OFFCURVE",
"37 96 CURVE SMOOTH",
"37 29 OFFCURVE",
"79 -11 OFFCURVE",
"145 -11 CURVE SMOOTH",
"261 -11 OFFCURVE",
"400 145 OFFCURVE",
"400 258 CURVE SMOOTH",
"400 302 OFFCURVE",
"376 337 OFFCURVE",
"329 337 CURVE SMOOTH",
"240 337 OFFCURVE",
"163 225 OFFCURVE",
"144 147 CURVE",
"146 141 LINE",
"156 142 LINE",
"160 147 LINE",
"181 202 OFFCURVE",
"238 306 OFFCURVE",
"305 306 CURVE SMOOTH",
"330 306 OFFCURVE",
"339 289 OFFCURVE",
"339 266 CURVE SMOOTH",
"339 182 OFFCURVE",
"245 12 OFFCURVE",
"151 12 CURVE SMOOTH",
"115 12 OFFCURVE",
"96 40 OFFCURVE",
"96 74 CURVE SMOOTH",
"96 168 OFFCURVE",
"176 297 OFFCURVE",
"231 370 CURVE SMOOTH",
"270 421 OFFCURVE",
"313 468 OFFCURVE",
"360 511 CURVE SMOOTH",
"381 530 OFFCURVE",
"410 549 OFFCURVE",
"428 569 CURVE SMOOTH",
"430 571 OFFCURVE",
"431 575 OFFCURVE",
"433 577 CURVE"
);
}
);
width = 421;
}
);
note = six;
unicode = 0036;
},
{
glyphname = seven;
layers = (
{
hints = (
{
horizontal = 1;
place = "{-5, 20}";
type = Stem;
},
{
horizontal = 1;
place = "{499, 66}";
type = Stem;
}
);
layerId = "5266B3E4-A2B0-4CF3-936E-1186C5B63406";
paths = (
{
closed = 1;
nodes = (
"578 562 LINE",
"574 568 LINE",
"569 568 OFFCURVE",
"558 561 OFFCURVE",
"554 558 CURVE",
"507 564 OFFCURVE",
"459 565 OFFCURVE",
"412 565 CURVE SMOOTH",
"293 565 OFFCURVE",
"272 541 OFFCURVE",
"218 435 CURVE",
"218 429 LINE",
"221 427 LINE",
"251 429 OFFCURVE",
"252 499 OFFCURVE",
"340 499 CURVE SMOOTH",
"393 499 OFFCURVE",
"446 496 OFFCURVE",
"499 495 CURVE",
"450 449 OFFCURVE",
"20 41 OFFCURVE",
"10 2 CURVE",
"11 -2 LINE",
"17 -5 LINE",
"37 -3 OFFCURVE",
"72 -3 OFFCURVE",
"89 5 CURVE SMOOTH",
"95 7 OFFCURVE",
"149 78 OFFCURVE",
"156 86 CURVE SMOOTH",
"227 176 OFFCURVE",
"301 264 OFFCURVE",
"380 347 CURVE SMOOTH",
"446 416 OFFCURVE",
"514 484 OFFCURVE",
"576 555 CURVE"
);
}
);
width = 488;
}
);
note = seven;
unicode = 0037;
},
{
glyphname = eight;
layers = (
{
hints = (
{
horizontal = 1;
place = "{-11, 21}";
type = Stem;
},
{
horizontal = 1;
place = "{577, -20}";
target = down;
type = TopGhost;
},
{
place = "{14, 46}";
type = Stem;
},
{
place = "{265, 64}";
type = Stem;
},
{
place = "{425, 36}";
type = Stem;
}
);
layerId = "5266B3E4-A2B0-4CF3-936E-1186C5B63406";
paths = (
{
closed = 1;
nodes = (
"461 554 OFFCURVE",
"419 577 OFFCURVE",
"369 577 CURVE SMOOTH",
"283 577 OFFCURVE",
"201 502 OFFCURVE",
"201 414 CURVE SMOOTH",
"201 387 OFFCURVE",
"207 359 OFFCURVE",
"218 334 CURVE",
"148 282 OFFCURVE",
"14 180 OFFCURVE",
"14 86 CURVE SMOOTH",
"14 22 OFFCURVE",
"70 -11 OFFCURVE",
"128 -11 CURVE SMOOTH",
"224 -11 OFFCURVE",
"329 72 OFFCURVE",
"329 172 CURVE SMOOTH",
"329 216 OFFCURVE",
"328 244 OFFCURVE",
"310 284 CURVE",
"368 335 OFFCURVE",
"461 417 OFFCURVE",
"461 500 CURVE SMOOTH"
);
},
{
closed = 1;
nodes = (
"425 427 OFFCURVE",
"357 349 OFFCURVE",
"303 305 CURVE",
"288 345 OFFCURVE",
"266 403 OFFCURVE",
"266 447 CURVE SMOOTH",
"266 502 OFFCURVE",
"313 557 OFFCURVE",
"370 557 CURVE SMOOTH",
"405 557 OFFCURVE",
"425 536 OFFCURVE",
"425 501 CURVE SMOOTH"
);
},
{
closed = 1;
nodes = (
"265 85 OFFCURVE",
"205 10 OFFCURVE",
"130 10 CURVE SMOOTH",
"84 10 OFFCURVE",
"60 39 OFFCURVE",
"60 83 CURVE SMOOTH",
"60 179 OFFCURVE",
"153 263 OFFCURVE",
"223 315 CURVE",
"242 269 OFFCURVE",
"265 206 OFFCURVE",
"265 157 CURVE SMOOTH"
);
}
);
width = 420;
}
);
note = eight;
unicode = 0038;
},
{
glyphname = nine;
layers = (
{
hints = (
{
horizontal = 1;
place = "{208, 58}";
type = Stem;
},
{
horizontal = 1;
place = "{556, 21}";
target = up;
type = BottomGhost;
},
{
place = "{74, 57}";
type = Stem;
},
{
place = "{378, 60}";
type = Stem;
}
);
layerId = "5266B3E4-A2B0-4CF3-936E-1186C5B63406";
paths = (
{
closed = 1;
nodes = (
"438 517 OFFCURVE",
"409 577 OFFCURVE",
"340 577 CURVE SMOOTH",
"225 577 OFFCURVE",
"74 399 OFFCURVE",
"74 286 CURVE SMOOTH",
"74 242 OFFCURVE",
"99 208 OFFCURVE",
"145 208 CURVE SMOOTH",
"233 208 OFFCURVE",
"306 330 OFFCURVE",
"334 402 CURVE",
"333 407 LINE",
"322 408 LINE",
"318 405 LINE",
"295 350 OFFCURVE",
"251 266 OFFCURVE",
"181 266 CURVE SMOOTH",
"146 266 OFFCURVE",
"131 290 OFFCURVE",
"131 322 CURVE SMOOTH",
"131 410 OFFCURVE",
"228 556 OFFCURVE",
"323 556 CURVE SMOOTH",
"365 556 OFFCURVE",
"378 524 OFFCURVE",
"378 487 CURVE SMOOTH",
"378 463 OFFCURVE",
"374 438 OFFCURVE",
"368 415 CURVE SMOOTH",
"322 235 OFFCURVE",
"211 98 OFFCURVE",
"62 -7 CURVE",
"58 -13 LINE",
"63 -22 LINE",
"69 -22 LINE",
"212 72 OFFCURVE",
"438 270 OFFCURVE",
"438 456 CURVE SMOOTH"
);
}
);
width = 435;
}
);
note = nine;
unicode = 0039;
},
{
glyphname = colon;
layers = (
{
hints = (
{
horizontal = 1;
place = "{-14, 82}";
type = Stem;
},
{
horizontal = 1;
place = "{210, 82}";
type = Stem;
}
);
layerId = "5266B3E4-A2B0-4CF3-936E-1186C5B63406";
paths = (
{
closed = 1;
nodes = (
"258 274 OFFCURVE",
"242 292 OFFCURVE",
"220 292 CURVE SMOOTH",
"197 292 OFFCURVE",
"175 274 OFFCURVE",
"172 251 CURVE SMOOTH",
"168 228 OFFCURVE",
"183 210 OFFCURVE",
"206 210 CURVE SMOOTH",
"229 210 OFFCURVE",
"250 228 OFFCURVE",
"254 251 CURVE SMOOTH"
);
},
{
closed = 1;
nodes = (
"148 50 OFFCURVE",
"133 68 OFFCURVE",
"110 68 CURVE SMOOTH",
"87 68 OFFCURVE",
"66 50 OFFCURVE",
"62 27 CURVE SMOOTH",
"58 4 OFFCURVE",
"74 -14 OFFCURVE",
"96 -14 CURVE SMOOTH",
"119 -14 OFFCURVE",
"141 4 OFFCURVE",
"144 27 CURVE SMOOTH"
);
}
);
width = 256;
}
);
note = colon;
unicode = 003A;
},
{
glyphname = semicolon;
layers = (
{
hints = (
{
horizontal = 1;
place = "{-14, 82}";
type = Stem;
},
{
horizontal = 1;
place = "{210, 82}";
type = Stem;
},
{
place = "{125, 27}";
type = Stem;
}
);
layerId = "5266B3E4-A2B0-4CF3-936E-1186C5B63406";
paths = (
{
closed = 1;
nodes = (
"258 274 OFFCURVE",
"242 292 OFFCURVE",
"220 292 CURVE SMOOTH",
"197 292 OFFCURVE",
"175 274 OFFCURVE",
"172 251 CURVE SMOOTH",
"168 228 OFFCURVE",
"183 210 OFFCURVE",
"206 210 CURVE SMOOTH",
"229 210 OFFCURVE",
"250 228 OFFCURVE",
"254 251 CURVE SMOOTH"
);
},
{
closed = 1;
nodes = (
"151 40 OFFCURVE",
"139 68 OFFCURVE",
"110 68 CURVE SMOOTH",
"87 68 OFFCURVE",
"66 50 OFFCURVE",
"62 27 CURVE SMOOTH",
"58 4 OFFCURVE",
"74 -14 OFFCURVE",
"96 -14 CURVE SMOOTH",
"107 -14 OFFCURVE",
"116 -10 OFFCURVE",
"125 -4 CURVE",
"119 -49 OFFCURVE",
"85 -79 OFFCURVE",
"48 -91 CURVE SMOOTH",
"36 -95 OFFCURVE",
"38 -107 OFFCURVE",
"51 -102 CURVE SMOOTH",
"93 -88 OFFCURVE",
"151 -52 OFFCURVE",
"151 14 CURVE SMOOTH"
);
}
);
width = 255;
}
);
note = semicolon;
unicode = 003B;
},
{
glyphname = less;
layers = (
{
hints = (
{
horizontal = 1;
place = "{21, 21}";
target = up;
type = BottomGhost;
}
);
layerId = "5266B3E4-A2B0-4CF3-936E-1186C5B63406";
paths = (
{
closed = 1;
nodes = (
"332 304 LINE",
"325 307 LINE",
"314 308 OFFCURVE",
"134 192 OFFCURVE",
"112 179 CURVE",
"124 129 OFFCURVE",
"131 71 OFFCURVE",
"150 24 CURVE",
"152 22 OFFCURVE",
"155 21 OFFCURVE",
"158 21 CURVE",
"165 24 LINE",
"170 34 LINE",
"171 170 LINE",
"199 191 OFFCURVE",
"315 267 OFFCURVE",
"333 297 CURVE"
);
}
);
width = 329;
}
);
note = less;
unicode = 003C;
},
{
glyphname = equal;
layers = (
{
hints = (
{
horizontal = 1;
place = "{194, 48}";
type = Stem;
},
{
horizontal = 1;
place = "{294, 48}";
type = Stem;
},
{
place = "{147, 262}";
type = Stem;
}
);
layerId = "5266B3E4-A2B0-4CF3-936E-1186C5B63406";
paths = (
{
closed = 1;
nodes = (
"409 343 OFFCURVE",
"325 342 OFFCURVE",
"311 342 CURVE SMOOTH",
"164 342 LINE SMOOTH",
"153 342 OFFCURVE",
"147 333 OFFCURVE",
"147 323 CURVE SMOOTH",
"147 314 OFFCURVE",
"152 294 OFFCURVE",
"164 294 CURVE SMOOTH",
"190 294 OFFCURVE",
"215 300 OFFCURVE",
"241 303 CURVE SMOOTH",
"291 308 OFFCURVE",
"342 311 OFFCURVE",
"392 311 CURVE SMOOTH",
"399 311 OFFCURVE",
"409 313 OFFCURVE",
"409 322 CURVE SMOOTH"
);
},
{
closed = 1;
nodes = (
"409 243 OFFCURVE",
"325 242 OFFCURVE",
"311 242 CURVE SMOOTH",
"164 242 LINE SMOOTH",
"153 242 OFFCURVE",
"147 233 OFFCURVE",
"147 223 CURVE SMOOTH",
"147 214 OFFCURVE",
"152 194 OFFCURVE",
"164 194 CURVE SMOOTH",
"190 194 OFFCURVE",
"215 200 OFFCURVE",
"241 203 CURVE SMOOTH",
"291 208 OFFCURVE",
"342 211 OFFCURVE",
"392 211 CURVE SMOOTH",
"399 211 OFFCURVE",
"409 213 OFFCURVE",
"409 222 CURVE SMOOTH"
);
}
);
width = 458;
}
);
note = equal;
unicode = 003D;
},
{
glyphname = greater;
layers = (
{
hints = (
{
horizontal = 1;
place = "{21, 21}";
target = up;
type = BottomGhost;
},
{
horizontal = 1;
place = "{307, -20}";
target = down;
type = TopGhost;
}
);
layerId = "5266B3E4-A2B0-4CF3-936E-1186C5B63406";
paths = (
{
closed = 1;
nodes = (
"248 150 LINE",
"237 199 OFFCURVE",
"231 256 OFFCURVE",
"212 303 CURVE",
"203 307 LINE",
"195 303 LINE",
"193 301 OFFCURVE",
"192 297 OFFCURVE",
"190 294 CURVE",
"189 158 LINE",
"185 155 OFFCURVE",
"27 48 OFFCURVE",
"27 27 CURVE",
"28 23 LINE",
"30 22 OFFCURVE",
"34 21 OFFCURVE",
"36 21 CURVE SMOOTH",
"43 22 LINE"
);
}
);
width = 329;
}
);
note = greater;
unicode = 003E;
},
{
glyphname = question;
layers = (
{
hints = (
{
horizontal = 1;
place = "{-14, 82}";
type = Stem;
},
{
horizontal = 1;
place = "{604, 44}";
type = Stem;
},
{
place = "{207, 116}";
type = Stem;
},
{
place = "{417, 72}";
type = Stem;
}
);
layerId = "5266B3E4-A2B0-4CF3-936E-1186C5B63406";
paths = (
{
closed = 1;
nodes = (
"579 619 OFFCURVE",
"426 696 OFFCURVE",
"287 617 CURVE SMOOTH",
"260 601 OFFCURVE",
"227 580 OFFCURVE",
"214 551 CURVE SMOOTH",
"185 482 OFFCURVE",
"247 440 OFFCURVE",
"300 481 CURVE SMOOTH",
"346 517 OFFCURVE",
"319 586 OFFCURVE",
"260 554 CURVE SMOOTH",
"244 545 OFFCURVE",
"229 534 OFFCURVE",
"225 518 CURVE",
"221 542 OFFCURVE",
"251 572 OFFCURVE",
"281 587 CURVE SMOOTH",
"378 634 OFFCURVE",
"470 580 OFFCURVE",
"382 469 CURVE SMOOTH",
"308 376 OFFCURVE",
"205 267 OFFCURVE",
"181 167 CURVE SMOOTH",
"178 154 OFFCURVE",
"195 148 OFFCURVE",
"200 160 CURVE SMOOTH",
"251 295 OFFCURVE",
"338 346 OFFCURVE",
"424 444 CURVE SMOOTH"
);
},
{
closed = 1;
nodes = (
"206 50 OFFCURVE",
"190 68 OFFCURVE",
"168 68 CURVE SMOOTH",
"145 68 OFFCURVE",
"123 50 OFFCURVE",
"120 27 CURVE SMOOTH",
"116 4 OFFCURVE",
"131 -14 OFFCURVE",
"154 -14 CURVE SMOOTH",
"177 -14 OFFCURVE",
"198 4 OFFCURVE",
"202 27 CURVE SMOOTH"
);
}
);
width = 382;
}
);
note = question;
unicode = 003F;
},
{
glyphname = at;
layers = (
{
hints = (
{
horizontal = 1;
place = "{-148, 22}";
type = Stem;
},
{
horizontal = 1;
place = "{39, 35}";
type = Stem;
},
{
horizontal = 1;
place = "{458, 31}";
type = Stem;
},
{
horizontal = 1;
place = "{658, 21}";
target = up;
type = BottomGhost;
},
{
place = "{76, 48}";
type = Stem;
},
{
place = "{281, 57}";
type = Stem;
},
{
place = "{902, 40}";
type = Stem;
}
);
layerId = "5266B3E4-A2B0-4CF3-936E-1186C5B63406";
paths = (
{
closed = 1;
nodes = (
"929 612 OFFCURVE",
"764 679 OFFCURVE",
"613 679 CURVE SMOOTH",
"335 679 OFFCURVE",
"53 432 OFFCURVE",
"76 143 CURVE SMOOTH",
"93 -64 OFFCURVE",
"267 -148 OFFCURVE",
"451 -148 CURVE SMOOTH",
"572 -148 OFFCURVE",
"682 -107 OFFCURVE",
"778 -43 CURVE",
"794 -36 OFFCURVE",
"779 -15 OFFCURVE",
"767 -27 CURVE",
"678 -87 OFFCURVE",
"570 -126 OFFCURVE",
"458 -126 CURVE SMOOTH",
"299 -126 OFFCURVE",
"139 -47 OFFCURVE",
"125 131 CURVE SMOOTH",
"103 405 OFFCURVE",
"344 658 OFFCURVE",
"615 658 CURVE SMOOTH",
"755 658 OFFCURVE",
"889 599 OFFCURVE",
"902 440 CURVE SMOOTH",
"911 321 OFFCURVE",
"853 190 OFFCURVE",
"764 118 CURVE SMOOTH",
"706 71 OFFCURVE",
"563 19 OFFCURVE",
"589 146 CURVE SMOOTH",
"604 222 OFFCURVE",
"679 355 OFFCURVE",
"706 381 CURVE",
"688 378 OFFCURVE",
"669 386 OFFCURVE",
"653 387 CURVE SMOOTH",
"613 390 OFFCURVE",
"595 359 OFFCURVE",
"567 305 CURVE SMOOTH",
"535 244 OFFCURVE",
"500 182 OFFCURVE",
"455 129 CURVE SMOOTH",
"396 60 OFFCURVE",
"326 49 OFFCURVE",
"339 137 CURVE SMOOTH",
"346 185 OFFCURVE",
"380 247 OFFCURVE",
"391 265 CURVE SMOOTH",
"436 339 OFFCURVE",
"501 413 OFFCURVE",
"558 444 CURVE SMOOTH",
"604 470 OFFCURVE",
"652 460 OFFCURVE",
"666 413 CURVE",
"686 409 OFFCURVE",
"696 430 OFFCURVE",
"679 449 CURVE SMOOTH",
"607 528 OFFCURVE",
"462 481 OFFCURVE",
"387 391 CURVE SMOOTH",
"197 164 OFFCURVE",
"292 -57 OFFCURVE",
"437 82 CURVE SMOOTH",
"474 118 OFFCURVE",
"508 167 OFFCURVE",
"528 200 CURVE",
"490 68 OFFCURVE",
"565 42 OFFCURVE",
"607 45 CURVE SMOOTH",
"656 45 OFFCURVE",
"733 69 OFFCURVE",
"769 98 CURVE SMOOTH",
"869 178 OFFCURVE",
"953 307 OFFCURVE",
"942 442 CURVE SMOOTH"
);
}
);
width = 956;
}
);
note = at;
unicode = 0040;
},
{
glyphname = A;
layers = (
{
hints = (
{
horizontal = 1;
place = "{773, -20}";
target = down;
type = TopGhost;
}
);
layerId = "5266B3E4-A2B0-4CF3-936E-1186C5B63406";
paths = (
{
closed = 1;
nodes = (
"860 720 OFFCURVE",
"795 773 OFFCURVE",
"688 773 CURVE SMOOTH",
"493 773 OFFCURVE",
"326 652 OFFCURVE",
"200 512 CURVE",
"164 529 OFFCURVE",
"134 550 OFFCURVE",
"112 575 CURVE SMOOTH",
"89 601 OFFCURVE",
"78 624 OFFCURVE",
"91 654 CURVE SMOOTH",
"102 678 OFFCURVE",
"85 689 OFFCURVE",
"73 673 CURVE",
"51 657 OFFCURVE",
"54 592 OFFCURVE",
"82 560 CURVE SMOOTH",
"107 532 OFFCURVE",
"142 510 OFFCURVE",
"182 491 CURVE",
"148 452 OFFCURVE",
"119 409 OFFCURVE",
"94 364 CURVE SMOOTH",
"-6 183 OFFCURVE",
"-6 6 OFFCURVE",
"90 -35 CURVE SMOOTH",
"232 -96 OFFCURVE",
"419 95 OFFCURVE",
"501 192 CURVE",
"456 133 OFFCURVE",
"431 -64 OFFCURVE",
"542 -64 CURVE SMOOTH",
"598 -64 OFFCURVE",
"655 -24 OFFCURVE",
"689 22 CURVE SMOOTH",
"726 71 OFFCURVE",
"764 142 OFFCURVE",
"782 182 CURVE SMOOTH",
"793 206 OFFCURVE",
"774 205 OFFCURVE",
"765 186 CURVE SMOOTH",
"743 136 OFFCURVE",
"709 84 OFFCURVE",
"678 44 CURVE SMOOTH",
"599 -54 OFFCURVE",
"500 -79 OFFCURVE",
"531 90 CURVE SMOOTH",
"549 188 OFFCURVE",
"606 295 OFFCURVE",
"662 358 CURVE SMOOTH",
"720 421 OFFCURVE",
"667 502 OFFCURVE",
"605 386 CURVE SMOOTH",
"552 288 OFFCURVE",
"446 158 OFFCURVE",
"343 71 CURVE SMOOTH",
"159 -82 OFFCURVE",
"0 -37 OFFCURVE",
"102 218 CURVE SMOOTH",
"138 307 OFFCURVE",
"211 419 OFFCURVE",
"247 470 CURVE",
"341 440 OFFCURVE",
"436 437 OFFCURVE",
"549 447 CURVE SMOOTH",
"782 468 OFFCURVE",
"860 573 OFFCURVE",
"860 646 CURVE SMOOTH"
);
},
{
closed = 1;
nodes = (
"819 559 OFFCURVE",
"715 485 OFFCURVE",
"549 471 CURVE SMOOTH",
"422 460 OFFCURVE",
"341 465 OFFCURVE",
"263 490 CURVE",
"375 624 OFFCURVE",
"504 747 OFFCURVE",
"691 747 CURVE SMOOTH",
"764 747 OFFCURVE",
"819 717 OFFCURVE",
"819 658 CURVE SMOOTH"
);
}
);
width = 712;
}
);
note = A;
unicode = 0041;
},
{
glyphname = B;
layers = (
{
hints = (
{
horizontal = 1;
place = "{412, -20}";
target = down;
type = TopGhost;
}
);
layerId = "5266B3E4-A2B0-4CF3-936E-1186C5B63406";
paths = (
{
closed = 1;
nodes = (
"1134 604 OFFCURVE",
"1032 693 OFFCURVE",
"860 737 CURVE",
"862 742 OFFCURVE",
"876 755 OFFCURVE",
"889 764 CURVE SMOOTH",
"913 779 OFFCURVE",
"911 792 OFFCURVE",
"879 779 CURVE SMOOTH",
"862 773 OFFCURVE",
"841 760 OFFCURVE",
"824 745 CURVE",
"708 770 OFFCURVE",
"569 774 OFFCURVE",
"430 754 CURVE SMOOTH",
"78 704 OFFCURVE",
"-17 414 OFFCURVE",
"187 343 CURVE SMOOTH",
"275 312 OFFCURVE",
"384 368 OFFCURVE",
"399 467 CURVE SMOOTH",
"399 468 LINE SMOOTH",
"399 490 OFFCURVE",
"378 482 OFFCURVE",
"378 476 CURVE",
"383 447 OFFCURVE",
"315 330 OFFCURVE",
"197 367 CURVE SMOOTH",
"49 413 OFFCURVE",
"140 653 OFFCURVE",
"417 712 CURVE SMOOTH",
"552 741 OFFCURVE",
"689 742 OFFCURVE",
"800 723 CURVE",
"743 658 LINE SMOOTH",
"572 468 OFFCURVE",
"500 200 OFFCURVE",
"367 72 CURVE",
"304 103 OFFCURVE",
"259 132 OFFCURVE",
"222 146 CURVE SMOOTH",
"-3 225 OFFCURVE",
"-72 -11 OFFCURVE",
"132 -36 CURVE SMOOTH",
"223 -48 OFFCURVE",
"310 -23 OFFCURVE",
"387 34 CURVE",
"449 6 OFFCURVE",
"526 -19 OFFCURVE",
"653 -35 CURVE SMOOTH",
"833 -57 OFFCURVE",
"1084 59 OFFCURVE",
"1030 242 CURVE SMOOTH",
"1008 317 OFFCURVE",
"907 363 OFFCURVE",
"841 384 CURVE",
"916 387 OFFCURVE",
"1023 415 OFFCURVE",
"1066 488 CURVE SMOOTH"
);
},
{
closed = 1;
nodes = (
"1126 595 OFFCURVE",
"959 414 OFFCURVE",
"835 412 CURVE SMOOTH",
"757 412 OFFCURVE",
"690 432 OFFCURVE",
"690 398 CURVE",
"700 376 OFFCURVE",
"798 363 OFFCURVE",
"876 325 CURVE SMOOTH",
"1070 232 OFFCURVE",
"913 -32 OFFCURVE",
"652 -8 CURVE SMOOTH",
"549 2 OFFCURVE",
"471 26 OFFCURVE",
"409 52 CURVE",
"447 88 LINE",
"580 232 OFFCURVE",
"714 528 OFFCURVE",
"848 712 CURVE",
"883 704 OFFCURVE",
"915 694 OFFCURVE",
"942 681 CURVE SMOOTH"
);
},
{
closed = 1;
nodes = (
"292 13 OFFCURVE",
"230 -11 OFFCURVE",
"157 -8 CURVE SMOOTH",
"27 -1 OFFCURVE",
"44 173 OFFCURVE",
"197 120 CURVE SMOOTH",
"256 99 OFFCURVE",
"299 75 OFFCURVE",
"345 53 CURVE"
);
}
);
width = 1041;
}
);
note = B;
unicode = 0042;
},
{
glyphname = C;
layers = (
{
layerId = "5266B3E4-A2B0-4CF3-936E-1186C5B63406";
paths = (
{
closed = 1;
nodes = (
"790 203 OFFCURVE",
"776 210 OFFCURVE",
"768 193 CURVE SMOOTH",
"726 107 OFFCURVE",
"691 42 OFFCURVE",
"604 -9 CURVE SMOOTH",
"505 -68 OFFCURVE",
"376 -83 OFFCURVE",
"269 -51 CURVE SMOOTH",
"9 29 OFFCURVE",
"173 434 OFFCURVE",
"209 481 CURVE",
"261 373 OFFCURVE",
"353 326 OFFCURVE",
"457 311 CURVE SMOOTH",
"869 251 OFFCURVE",
"1011 732 OFFCURVE",
"621 776 CURVE SMOOTH",
"463 794 OFFCURVE",
"313 732 OFFCURVE",
"205 593 CURVE",
"195 647 OFFCURVE",
"186 720 OFFCURVE",
"197 783 CURVE SMOOTH",
"202 811 OFFCURVE",
"181 805 OFFCURVE",
"177 788 CURVE SMOOTH",
"157 714 OFFCURVE",
"165 621 OFFCURVE",
"181 559 CURVE",
"42 384 OFFCURVE",
"-21 36 OFFCURVE",
"230 -70 CURVE SMOOTH",
"375 -132 OFFCURVE",
"517 -95 OFFCURVE",
"619 -25 CURVE SMOOTH",
"704 35 OFFCURVE",
"737 95 OFFCURVE",
"780 183 CURVE SMOOTH"
);
},
{
closed = 1;
nodes = (
"922 696 OFFCURVE",
"833 295 OFFCURVE",
"472 335 CURVE SMOOTH",
"363 347 OFFCURVE",
"274 398 OFFCURVE",
"229 513 CURVE",
"328 664 OFFCURVE",
"481 760 OFFCURVE",
"630 738 CURVE SMOOTH"
);
}
);
width = 710;
}
);
note = C;
unicode = 0043;
},
{
glyphname = D;
layers = (
{
layerId = "5266B3E4-A2B0-4CF3-936E-1186C5B63406";
paths = (
{
closed = 1;
nodes = (
"1042 429 OFFCURVE",
"954 579 OFFCURVE",
"818 669 CURVE",
"830 691 OFFCURVE",
"879 772 OFFCURVE",
"906 772 CURVE SMOOTH",
"913 772 OFFCURVE",
"919 782 OFFCURVE",
"906 785 CURVE SMOOTH",
"878 791 OFFCURVE",
"826 754 OFFCURVE",
"775 694 CURVE",
"671 749 OFFCURVE",
"546 772 OFFCURVE",
"423 754 CURVE SMOOTH",
"11 694 OFFCURVE",
"5 404 OFFCURVE",
"180 343 CURVE SMOOTH",
"268 312 OFFCURVE",
"377 368 OFFCURVE",
"391 467 CURVE SMOOTH",
"394 486 OFFCURVE",
"372 486 OFFCURVE",
"371 476 CURVE SMOOTH",
"369 441 OFFCURVE",
"308 330 OFFCURVE",
"190 367 CURVE SMOOTH",
"42 413 OFFCURVE",
"126 660 OFFCURVE",
"403 719 CURVE SMOOTH",
"527 745 OFFCURVE",
"649 722 OFFCURVE",
"747 663 CURVE",
"590 488 OFFCURVE",
"515 214 OFFCURVE",
"367 72 CURVE",
"335 89 OFFCURVE",
"253 132 OFFCURVE",
"215 146 CURVE SMOOTH",
"-10 224 OFFCURVE",
"-79 -12 OFFCURVE",
"125 -36 CURVE SMOOTH",
"221 -48 OFFCURVE",
"302 -23 OFFCURVE",
"375 36 CURVE",
"577 -78 OFFCURVE",
"992 -79 OFFCURVE",
"1023 239 CURVE SMOOTH"
);
},
{
closed = 1;
nodes = (
"932 -20 OFFCURVE",
"592 -61 OFFCURVE",
"399 54 CURVE",
"412 65 OFFCURVE",
"424 76 OFFCURVE",
"437 90 CURVE SMOOTH",
"547 208 OFFCURVE",
"677 447 OFFCURVE",
"794 631 CURVE",
"907 542 OFFCURVE",
"977 401 OFFCURVE",
"960 237 CURVE SMOOTH"
);
},
{
closed = 1;
nodes = (
"286 12 OFFCURVE",
"222 -11 OFFCURVE",
"150 -8 CURVE SMOOTH",
"28 -2 OFFCURVE",
"45 170 OFFCURVE",
"190 120 CURVE SMOOTH",
"250 99 OFFCURVE",
"293 75 OFFCURVE",
"341 52 CURVE"
);
}
);
width = 1014;
}
);
note = D;
unicode = 0044;
},
{
glyphname = E;
layers = (
{
hints = (
{
horizontal = 1;
place = "{-55, 21}";
target = up;
type = BottomGhost;
}
);
layerId = "5266B3E4-A2B0-4CF3-936E-1186C5B63406";
paths = (
{
closed = 1;
nodes = (
"760 273 OFFCURVE",
"726 255 OFFCURVE",
"772 244 CURVE SMOOTH",
"827 231 OFFCURVE",
"791 161 OFFCURVE",
"717 103 CURVE SMOOTH",
"631 36 OFFCURVE",
"482 -33 OFFCURVE",
"328 -33 CURVE SMOOTH",
"-16 -33 OFFCURVE",
"62 303 OFFCURVE",
"271 361 CURVE SMOOTH",
"398 397 OFFCURVE",
"522 352 OFFCURVE",
"534 392 CURVE",
"549 463 OFFCURVE",
"297 413 OFFCURVE",
"324 570 CURVE SMOOTH",
"347 698 OFFCURVE",
"555 793 OFFCURVE",
"711 778 CURVE SMOOTH",
"894 759 OFFCURVE",
"783 581 OFFCURVE",
"691 571 CURVE SMOOTH",
"646 566 OFFCURVE",
"637 540 OFFCURVE",
"694 553 CURVE SMOOTH",
"896 598 OFFCURVE",
"948 775 OFFCURVE",
"715 802 CURVE SMOOTH",
"556 820 OFFCURVE",
"263 717 OFFCURVE",
"248 545 CURVE SMOOTH",
"243 486 OFFCURVE",
"312 440 OFFCURVE",
"368 420 CURVE",
"336 419 OFFCURVE",
"301 413 OFFCURVE",
"267 403 CURVE SMOOTH",
"-60 305 OFFCURVE",
"-79 -55 OFFCURVE",
"324 -55 CURVE SMOOTH",
"489 -55 OFFCURVE",
"659 -2 OFFCURVE",
"758 76 CURVE SMOOTH",
"846 145 OFFCURVE",
"866 220 OFFCURVE",
"793 257 CURVE SMOOTH"
);
}
);
width = 815;
}
);
note = E;
unicode = 0045;
},
{
glyphname = F;
layers = (
{
hints = (
{
horizontal = 1;
place = "{-130, 21}";
target = up;
type = BottomGhost;
}
);
layerId = "5266B3E4-A2B0-4CF3-936E-1186C5B63406";
paths = (
{
closed = 1;
nodes = (
"1392 597 OFFCURVE",
"1382 609 OFFCURVE",
"1368 577 CURVE SMOOTH",
"1330 496 OFFCURVE",
"1107 580 OFFCURVE",
"1040 615 CURVE",
"1054 628 OFFCURVE",
"1077 643 OFFCURVE",
"1100 634 CURVE",
"1122 609 OFFCURVE",
"1126 650 OFFCURVE",
"1100 658 CURVE SMOOTH",
"1055 671 OFFCURVE",
"1027 639 OFFCURVE",
"1016 627 CURVE",
"954 666 OFFCURVE",
"858 713 OFFCURVE",
"748 743 CURVE SMOOTH",
"419 836 OFFCURVE",
"247 509 OFFCURVE",
"413 415 CURVE SMOOTH",
"493 369 OFFCURVE",
"619 405 OFFCURVE",
"648 502 CURVE SMOOTH",
"660 538 OFFCURVE",
"632 520 OFFCURVE",
"631 498 CURVE SMOOTH",
"632 470 OFFCURVE",
"523 375 OFFCURVE",
"422 438 CURVE SMOOTH",
"331 495 OFFCURVE",
"458 746 OFFCURVE",
"731 705 CURVE SMOOTH",
"829 691 OFFCURVE",
"918 652 OFFCURVE",
"1003 610 CURVE",
"984 588 OFFCURVE",
"905 463 OFFCURVE",
"858 348 CURVE",
"762 365 OFFCURVE",
"656 369 OFFCURVE",
"610 267 CURVE SMOOTH",
"605 256 OFFCURVE",
"614 242 OFFCURVE",
"626 258 CURVE SMOOTH",
"673 326 OFFCURVE",
"806 311 OFFCURVE",
"844 311 CURVE",
"749 93 OFFCURVE",
"590 -93 OFFCURVE",
"368 -83 CURVE SMOOTH",
"222 -77 OFFCURVE",
"41 30 OFFCURVE",
"76 226 CURVE SMOOTH",
"88 294 OFFCURVE",
"128 324 OFFCURVE",
"153 342 CURVE SMOOTH",
"183 363 OFFCURVE",
"204 378 OFFCURVE",
"172 368 CURVE SMOOTH",
"143 359 OFFCURVE",
"86 321 OFFCURVE",
"68 264 CURVE SMOOTH",
"-3 46 OFFCURVE",
"147 -130 OFFCURVE",
"380 -130 CURVE SMOOTH",
"703 -130 OFFCURVE",
"811 121 OFFCURVE",
"880 308 CURVE",
"931 302 OFFCURVE",
"1047 304 OFFCURVE",
"1082 313 CURVE SMOOTH",
"1113 321 OFFCURVE",
"1114 335 OFFCURVE",
"1080 333 CURVE SMOOTH",
"1039 331 OFFCURVE",
"953 331 OFFCURVE",
"892 339 CURVE",
"920 404 OFFCURVE",
"961 524 OFFCURVE",
"1025 597 CURVE",
"1044 589 OFFCURVE",
"1143 530 OFFCURVE",
"1259 511 CURVE SMOOTH",
"1327 501 OFFCURVE",
"1380 531 OFFCURVE",
"1386 572 CURVE"
);
}
);
width = 1048;
}
);
note = F;
unicode = 0046;
},
{
glyphname = G;
layers = (
{
layerId = "5266B3E4-A2B0-4CF3-936E-1186C5B63406";
paths = (
{
closed = 1;
nodes = (
"710 -97 OFFCURVE",
"640 -87 OFFCURVE",
"551 -86 CURVE",
"624 34 OFFCURVE",
"673 133 OFFCURVE",
"687 244 CURVE SMOOTH",
"694 295 OFFCURVE",
"626 335 OFFCURVE",
"568 199 CURVE SMOOTH",
"540 132 OFFCURVE",
"358 26 OFFCURVE",
"226 69 CURVE SMOOTH",
"109 107 OFFCURVE",
"70 272 OFFCURVE",
"158 462 CURVE",
"222 419 OFFCURVE",
"324 391 OFFCURVE",
"421 393 CURVE SMOOTH",
"844 399 OFFCURVE",
"912 766 OFFCURVE",
"603 814 CURVE SMOOTH",
"442 839 OFFCURVE",
"240 741 OFFCURVE",
"134 568 CURVE SMOOTH",
"126 555 OFFCURVE",
"118 542 OFFCURVE",
"112 529 CURVE",
"51 602 OFFCURVE",
"39 698 OFFCURVE",
"105 781 CURVE SMOOTH",
"121 802 OFFCURVE",
"106 804 OFFCURVE",
"92 789 CURVE SMOOTH",
"0 695 OFFCURVE",
"19 579 OFFCURVE",
"96 499 CURVE",
"-12 272 OFFCURVE",
"67 79 OFFCURVE",
"192 36 CURVE SMOOTH",
"357 -19 OFFCURVE",
"546 120 OFFCURVE",
"606 177 CURVE",
"602 160 LINE SMOOTH",
"581 67 OFFCURVE",
"550 -3 OFFCURVE",
"501 -86 CURVE",
"438 -87 OFFCURVE",
"341 -94 OFFCURVE",
"289 -102 CURVE SMOOTH",
"40 -137 OFFCURVE",
"-161 -297 OFFCURVE",
"25 -365 CURVE SMOOTH",
"137 -406 OFFCURVE",
"409 -297 OFFCURVE",
"537 -112 CURVE",
"617 -111 OFFCURVE",
"716 -118 OFFCURVE",
"762 -130 CURVE SMOOTH",
"800 -139 OFFCURVE",
"799 -119 OFFCURVE",
"770 -112 CURVE SMOOTH"
);
},
{
closed = 1;
nodes = (
"853 747 OFFCURVE",
"774 458 OFFCURVE",
"437 424 CURVE SMOOTH",
"335 414 OFFCURVE",
"233 441 OFFCURVE",
"171 488 CURVE",
"180 506 OFFCURVE",
"191 525 OFFCURVE",
"202 543 CURVE SMOOTH",
"296 697 OFFCURVE",
"472 804 OFFCURVE",
"608 784 CURVE SMOOTH"
);
},
{
closed = 1;
nodes = (
"368 -281 OFFCURVE",
"140 -359 OFFCURVE",
"51 -339 CURVE SMOOTH",
"-96 -308 OFFCURVE",
"124 -156 OFFCURVE",
"301 -129 CURVE SMOOTH",
"357 -120 OFFCURVE",
"422 -115 OFFCURVE",
"485 -113 CURVE"
);
}
);
width = 699;
}
);
note = G;
unicode = 0047;
},
{
glyphname = H;
layers = (
{
layerId = "5266B3E4-A2B0-4CF3-936E-1186C5B63406";
paths = (
{
closed = 1;
nodes = (
"1560 769 OFFCURVE",
"1515 763 OFFCURVE",
"1476 749 CURVE SMOOTH",
"1397 722 OFFCURVE",
"1273 397 OFFCURVE",
"1258 355 CURVE",
"1188 355 OFFCURVE",
"1053 372 OFFCURVE",
"919 372 CURVE",
"936 415 OFFCURVE",
"1010 624 OFFCURVE",
"1048 698 CURVE",
"1088 698 OFFCURVE",
"1166 725 OFFCURVE",
"1166 772 CURVE SMOOTH",
"1166 800 OFFCURVE",
"1138 808 OFFCURVE",
"1109 800 CURVE SMOOTH",
"1077 790 OFFCURVE",
"1039 732 OFFCURVE",
"1032 720 CURVE",
"837 701 OFFCURVE",
"509 727 OFFCURVE",
"446 474 CURVE SMOOTH",
"413 343 OFFCURVE",
"526 232 OFFCURVE",
"646 276 CURVE SMOOTH",
"718 302 OFFCURVE",
"784 397 OFFCURVE",
"746 480 CURVE SMOOTH",
"739 495 OFFCURVE",
"722 489 OFFCURVE",
"733 473 CURVE SMOOTH",
"746 454 OFFCURVE",
"719 322 OFFCURVE",
"645 295 CURVE SMOOTH",
"544 258 OFFCURVE",
"480 349 OFFCURVE",
"514 458 CURVE SMOOTH",
"586 689 OFFCURVE",
"822 674 OFFCURVE",
"1018 696 CURVE",
"997 654 OFFCURVE",
"922 497 OFFCURVE",
"872 372 CURVE",
"833 372 LINE",
"807 369 OFFCURVE",
"780 349 OFFCURVE",
"771 334 CURVE SMOOTH",
"756 308 OFFCURVE",
"787 318 OFFCURVE",
"798 323 CURVE SMOOTH",
"817 332 OFFCURVE",
"837 339 OFFCURVE",
"858 339 CURVE",
"792 165 OFFCURVE",
"661 -37 OFFCURVE",
"381 -100 CURVE SMOOTH",
"241 -131 OFFCURVE",
"-2 -78 OFFCURVE",
"26 140 CURVE SMOOTH",
"37 223 OFFCURVE",
"95 284 OFFCURVE",
"128 298 CURVE SMOOTH",
"138 302 OFFCURVE",
"147 312 OFFCURVE",
"126 312 CURVE SMOOTH",
"94 311 OFFCURVE",
"21 250 OFFCURVE",
"4 185 CURVE SMOOTH",
"-61 -65 OFFCURVE",
"163 -196 OFFCURVE",
"391 -167 CURVE SMOOTH",
"649 -134 OFFCURVE",
"832 105 OFFCURVE",
"910 337 CURVE",
"1001 333 OFFCURVE",
"1204 324 OFFCURVE",
"1249 324 CURVE",
"1225 255 OFFCURVE",
"1125 14 OFFCURVE",
"1216 -33 CURVE SMOOTH",
"1251 -51 OFFCURVE",
"1294 -40 OFFCURVE",
"1329 -6 CURVE SMOOTH",
"1374 38 OFFCURVE",
"1399 72 OFFCURVE",
"1451 182 CURVE SMOOTH",
"1462 206 OFFCURVE",
"1447 211 OFFCURVE",
"1436 189 CURVE SMOOTH",
"1404 124 OFFCURVE",
"1362 46 OFFCURVE",
"1311 8 CURVE SMOOTH",
"1289 -8 OFFCURVE",
"1268 -6 OFFCURVE",
"1255 8 CURVE SMOOTH",
"1211 56 OFFCURVE",
"1289 265 OFFCURVE",
"1307 324 CURVE",
"1336 326 OFFCURVE",
"1378 333 OFFCURVE",
"1404 351 CURVE SMOOTH",
"1421 363 OFFCURVE",
"1415 370 OFFCURVE",
"1396 363 CURVE SMOOTH",
"1380 357 OFFCURVE",
"1336 356 OFFCURVE",
"1316 356 CURVE",
"1396 589 OFFCURVE",
"1504 740 OFFCURVE",
"1523 750 CURVE SMOOTH"
);
},
{
closed = 1;
nodes = (
"1131 771 OFFCURVE",
"1151 736 OFFCURVE",
"1066 723 CURVE",
"1080 741 OFFCURVE",
"1109 776 OFFCURVE",
"1119 771 CURVE"
);
}
);
width = 1381;
}
);
note = H;
unicode = 0048;
},
{
glyphname = I;
layers = (
{
layerId = "5266B3E4-A2B0-4CF3-936E-1186C5B63406";
paths = (
{
closed = 1;
nodes = (
"1195 832 OFFCURVE",
"1169 838 OFFCURVE",
"1139 829 CURVE SMOOTH",
"1107 818 OFFCURVE",
"1070 763 OFFCURVE",
"1062 747 CURVE",
"873 715 OFFCURVE",
"544 639 OFFCURVE",
"492 403 CURVE SMOOTH",
"466 285 OFFCURVE",
"571 210 OFFCURVE",
"677 251 CURVE SMOOTH",
"759 282 OFFCURVE",
"820 383 OFFCURVE",
"781 458 CURVE SMOOTH",
"773 476 OFFCURVE",
"756 454 OFFCURVE",
"760 449 CURVE",
"776 434 OFFCURVE",
"781 316 OFFCURVE",
"676 274 CURVE SMOOTH",
"590 241 OFFCURVE",
"537 307 OFFCURVE",
"559 403 CURVE SMOOTH",
"607 619 OFFCURVE",
"866 682 OFFCURVE",
"1046 721 CURVE",
"1025 685 OFFCURVE",
"955 555 OFFCURVE",
"896 398 CURVE SMOOTH",
"842 253 OFFCURVE",
"680 -41 OFFCURVE",
"389 -114 CURVE SMOOTH",
"229 -154 OFFCURVE",
"-32 -80 OFFCURVE",
"21 138 CURVE SMOOTH",
"42 221 OFFCURVE",
"107 284 OFFCURVE",
"142 299 CURVE SMOOTH",
"152 304 OFFCURVE",
"162 314 OFFCURVE",
"141 313 CURVE SMOOTH",
"109 311 OFFCURVE",
"29 248 OFFCURVE",
"4 182 CURVE SMOOTH",
"-90 -68 OFFCURVE",
"126 -193 OFFCURVE",
"408 -146 CURVE SMOOTH",
"553 -122 OFFCURVE",
"693 -42 OFFCURVE",
"803 99 CURVE SMOOTH",
"962 303 OFFCURVE",
"955 502 OFFCURVE",
"1077 726 CURVE",
"1086 726 OFFCURVE",
"1107 735 OFFCURVE",
"1119 735 CURVE",
"1157 748 OFFCURVE",
"1197 764 OFFCURVE",
"1196 805 CURVE SMOOTH"
);
},
{
closed = 1;
nodes = (
"1160 801 OFFCURVE",
"1182 769 OFFCURVE",
"1094 751 CURVE",
"1109 770 OFFCURVE",
"1138 805 OFFCURVE",
"1148 801 CURVE"
);
}
);
width = 912;
}
);
note = I;
unicode = 0049;
},
{
glyphname = J;
layers = (
{
layerId = "5266B3E4-A2B0-4CF3-936E-1186C5B63406";
paths = (
{
closed = 1;
nodes = (
"1270 801 OFFCURVE",
"1244 808 OFFCURVE",
"1214 800 CURVE SMOOTH",
"1181 790 OFFCURVE",
"1142 735 OFFCURVE",
"1133 720 CURVE",
"950 697 OFFCURVE",
"614 603 OFFCURVE",
"577 372 CURVE SMOOTH",
"558 254 OFFCURVE",
"651 181 OFFCURVE",
"758 218 CURVE SMOOTH",
"842 248 OFFCURVE",
"905 346 OFFCURVE",
"872 423 CURVE",
"856 443 OFFCURVE",
"835 425 OFFCURVE",
"851 415 CURVE",
"866 399 OFFCURVE",
"866 280 OFFCURVE",
"759 242 CURVE SMOOTH",
"675 211 OFFCURVE",
"630 274 OFFCURVE",
"644 366 CURVE SMOOTH",
"676 560 OFFCURVE",
"955 668 OFFCURVE",
"1116 694 CURVE",
"1094 659 OFFCURVE",
"1026 545 OFFCURVE",
"956 390 CURVE SMOOTH",
"862 182 OFFCURVE",
"691 -254 OFFCURVE",
"340 -332 CURVE SMOOTH",
"179 -367 OFFCURVE",
"-85 -284 OFFCURVE",
"-22 -65 CURVE SMOOTH",
"1 17 OFFCURVE",
"69 78 OFFCURVE",
"104 92 CURVE SMOOTH",
"115 97 OFFCURVE",
"126 107 OFFCURVE",
"105 106 CURVE SMOOTH",
"73 105 OFFCURVE",
"-10 44 OFFCURVE",
"-37 -21 CURVE SMOOTH",
"-142 -271 OFFCURVE",
"68 -403 OFFCURVE",
"352 -364 CURVE SMOOTH",
"482 -346 OFFCURVE",
"696 -242 OFFCURVE",
"813 -60 CURVE SMOOTH",
"992 218 OFFCURVE",
"1016 476 OFFCURVE",
"1146 698 CURVE",
"1155 698 OFFCURVE",
"1177 706 OFFCURVE",
"1189 706 CURVE",
"1228 718 OFFCURVE",
"1269 733 OFFCURVE",
"1270 774 CURVE SMOOTH"
);
},
{
closed = 1;
nodes = (
"1233 771 OFFCURVE",
"1253 738 OFFCURVE",
"1164 723 CURVE",
"1181 741 OFFCURVE",
"1211 776 OFFCURVE",
"1222 771 CURVE"
);
}
);
width = 966;
}
);
note = J;
unicode = 004A;
},
{
glyphname = K;
layers = (
{
layerId = "5266B3E4-A2B0-4CF3-936E-1186C5B63406";
paths = (
{
closed = 1;
nodes = (
"1638 844 OFFCURVE",
"1619 864 OFFCURVE",
"1596 829 CURVE SMOOTH",
"1389 511 OFFCURVE",
"969 274 OFFCURVE",
"896 280 CURVE",
"878 272 OFFCURVE",
"889 127 OFFCURVE",
"945 3 CURVE SMOOTH",
"993 -102 OFFCURVE",
"1078 -184 OFFCURVE",
"1188 -184 CURVE SMOOTH",
"1273 -184 OFFCURVE",
"1377 -117 OFFCURVE",
"1413 -44 CURVE SMOOTH",
"1427 -16 OFFCURVE",
"1408 -16 OFFCURVE",
"1400 -36 CURVE",
"1363 -108 OFFCURVE",
"1271 -141 OFFCURVE",
"1193 -141 CURVE SMOOTH",
"1115 -141 OFFCURVE",
"1056 -82 OFFCURVE",
"1014 15 CURVE SMOOTH",
"964 129 OFFCURVE",
"942 264 OFFCURVE",
"954 259 CURVE",
"1127 303 OFFCURVE",
"1461 550 OFFCURVE",
"1621 816 CURVE SMOOTH"
);
},
{
closed = 1;
nodes = (
"1077 790 OFFCURVE",
"1039 732 OFFCURVE",
"1032 720 CURVE",
"945 712 OFFCURVE",
"825 710 OFFCURVE",
"716 686 CURVE SMOOTH",
"307 594 OFFCURVE",
"428 200 OFFCURVE",
"652 282 CURVE SMOOTH",
"723 308 OFFCURVE",
"774 410 OFFCURVE",
"746 480 CURVE SMOOTH",
"740 494 OFFCURVE",
"726 497 OFFCURVE",
"728 487 CURVE SMOOTH",
"740 423 OFFCURVE",
"712 325 OFFCURVE",
"645 300 CURVE SMOOTH",
"459 233 OFFCURVE",
"433 574 OFFCURVE",
"728 656 CURVE SMOOTH",
"821 682 OFFCURVE",
"929 686 OFFCURVE",
"1018 696 CURVE",
"984 628 OFFCURVE",
"885 408 OFFCURVE",
"866 365 CURVE SMOOTH",
"790 194 OFFCURVE",
"662 -46 OFFCURVE",
"377 -111 CURVE SMOOTH",
"237 -142 OFFCURVE",
"-2 -78 OFFCURVE",
"26 140 CURVE SMOOTH",
"38 230 OFFCURVE",
"108 283 OFFCURVE",
"126 291 CURVE SMOOTH",
"134 295 OFFCURVE",
"135 307 OFFCURVE",
"119 305 CURVE SMOOTH",
"93 302 OFFCURVE",
"23 257 OFFCURVE",
"4 185 CURVE SMOOTH",
"-61 -65 OFFCURVE",
"189 -200 OFFCURVE",
"416 -166 CURVE SMOOTH",
"868 -98 OFFCURVE",
"897 426 OFFCURVE",
"1048 698 CURVE",
"1209 715 OFFCURVE",
"1184 822 OFFCURVE",
"1109 800 CURVE SMOOTH"
);
},
{
closed = 1;
nodes = (
"1100 730 OFFCURVE",
"1086 726 OFFCURVE",
"1066 723 CURVE",
"1076 735 OFFCURVE",
"1092 755 OFFCURVE",
"1105 765 CURVE SMOOTH",
"1138 792 OFFCURVE",
"1154 756 OFFCURVE",
"1110 735 CURVE SMOOTH"
);
}
);
width = 1144;
}
);
note = K;
unicode = 004B;
},
{
glyphname = L;
layers = (
{
layerId = "5266B3E4-A2B0-4CF3-936E-1186C5B63406";
paths = (
{
closed = 1;
nodes = (
"950 865 OFFCURVE",
"745 940 OFFCURVE",
"597 559 CURVE",
"597 559 OFFCURVE",
"524 372 OFFCURVE",
"512 345 CURVE",
"191 307 OFFCURVE",
"258 658 OFFCURVE",
"464 683 CURVE SMOOTH",
"508 689 OFFCURVE",
"504 710 OFFCURVE",
"462 700 CURVE SMOOTH",
"120 622 OFFCURVE",
"210 311 OFFCURVE",
"498 320 CURVE",
"462 246 OFFCURVE",
"431 186 OFFCURVE",
"393 127 CURVE",
"320 140 OFFCURVE",
"213 137 OFFCURVE",
"142 116 CURVE SMOOTH",
"-127 35 OFFCURVE",
"15 -191 OFFCURVE",
"224 -90 CURVE SMOOTH",
"289 -59 OFFCURVE",
"349 0 OFFCURVE",
"401 73 CURVE",
"528 48 OFFCURVE",
"666 19 OFFCURVE",
"763 -67 CURVE SMOOTH",
"831 -126 OFFCURVE",
"828 -227 OFFCURVE",
"812 -262 CURVE SMOOTH",
"804 -279 OFFCURVE",
"782 -315 OFFCURVE",
"825 -292 CURVE SMOOTH",
"833 -288 OFFCURVE",
"842 -280 OFFCURVE",
"850 -265 CURVE SMOOTH",
"875 -223 OFFCURVE",
"854 -105 OFFCURVE",
"759 -31 CURVE SMOOTH",
"666 41 OFFCURVE",
"529 94 OFFCURVE",
"431 118 CURVE",
"452 152 LINE SMOOTH",
"488 216 OFFCURVE",
"511 265 OFFCURVE",
"540 324 CURVE",
"753 360 OFFCURVE",
"974 581 OFFCURVE",
"957 783 CURVE SMOOTH"
);
},
{
closed = 1;
nodes = (
"917 576 OFFCURVE",
"734 391 OFFCURVE",
"554 351 CURVE",
"595 436 OFFCURVE",
"642 525 OFFCURVE",
"642 525 CURVE",
"797 828 OFFCURVE",
"915 828 OFFCURVE",
"916 761 CURVE SMOOTH"
);
},
{
closed = 1;
nodes = (
"314 11 OFFCURVE",
"262 -36 OFFCURVE",
"208 -62 CURVE SMOOTH",
"25 -150 OFFCURVE",
"-88 13 OFFCURVE",
"154 75 CURVE SMOOTH",
"219 92 OFFCURVE",
"296 93 OFFCURVE",
"362 79 CURVE"
);
}
);
width = 712;
}
);
note = L;
unicode = 004C;
},
{
glyphname = M;
layers = (
{
layerId = "5266B3E4-A2B0-4CF3-936E-1186C5B63406";
paths = (
{
closed = 1;
nodes = (
"1141 -108 OFFCURVE",
"1327 305 OFFCURVE",
"1414 478 CURVE SMOOTH",
"1529 708 OFFCURVE",
"1379 773 OFFCURVE",
"1148 484 CURVE SMOOTH",
"1066 382 OFFCURVE",
"991 276 OFFCURVE",
"950 212 CURVE",
"991 337 OFFCURVE",
"1036 458 OFFCURVE",
"1048 586 CURVE SMOOTH",
"1064 756 OFFCURVE",
"899 716 OFFCURVE",
"822 623 CURVE SMOOTH",
"751 537 OFFCURVE",
"717 486 OFFCURVE",
"659 381 CURVE SMOOTH",
"642 349 OFFCURVE",
"633 354 OFFCURVE",
"646 392 CURVE SMOOTH",
"671 458 OFFCURVE",
"691 528 OFFCURVE",
"698 591 CURVE SMOOTH",
"735 989 OFFCURVE",
"189 791 OFFCURVE",
"45 455 CURVE SMOOTH",
"-55 217 OFFCURVE",
"134 70 OFFCURVE",
"282 131 CURVE SMOOTH",
"498 221 OFFCURVE",
"519 471 OFFCURVE",
"352 447 CURVE SMOOTH",
"304 441 OFFCURVE",
"329 424 OFFCURVE",
"347 426 CURVE SMOOTH",
"506 447 OFFCURVE",
"411 198 OFFCURVE",
"283 150 CURVE SMOOTH",
"151 102 OFFCURVE",
"14 212 OFFCURVE",
"98 445 CURVE SMOOTH",
"195 711 OFFCURVE",
"695 991 OFFCURVE",
"640 593 CURVE SMOOTH",
"617 430 OFFCURVE",
"481 90 OFFCURVE",
"396 -42 CURVE",
"386 -74 OFFCURVE",
"462 -73 OFFCURVE",
"478 -36 CURVE SMOOTH",
"615 268 OFFCURVE",
"665 389 OFFCURVE",
"839 605 CURVE SMOOTH",
"918 703 OFFCURVE",
"1003 710 OFFCURVE",
"987 581 CURVE SMOOTH",
"947 251 OFFCURVE",
"804 33 OFFCURVE",
"788 0 CURVE",
"769 -29 OFFCURVE",
"841 -68 OFFCURVE",
"879 20 CURVE SMOOTH",
"915 107 OFFCURVE",
"1085 370 OFFCURVE",
"1148 448 CURVE SMOOTH",
"1328 673 OFFCURVE",
"1439 683 OFFCURVE",
"1359 499 CURVE SMOOTH",
"1294 351 OFFCURVE",
"1213 196 OFFCURVE",
"1201 76 CURVE SMOOTH",
"1185 -93 OFFCURVE",
"1317 -110 OFFCURVE",
"1358 -114 CURVE SMOOTH",
"1398 -118 OFFCURVE",
"1412 -96 OFFCURVE",
"1374 -98 CURVE SMOOTH"
);
}
);
width = 1329;
}
);
note = M;
unicode = 004D;
},
{
glyphname = N;
layers = (
{
layerId = "5266B3E4-A2B0-4CF3-936E-1186C5B63406";
paths = (
{
closed = 1;
nodes = (
"1190 777 OFFCURVE",
"1076 780 OFFCURVE",
"982 736 CURVE SMOOTH",
"905 701 OFFCURVE",
"820 619 OFFCURVE",
"745 528 CURVE SMOOTH",
"695 468 OFFCURVE",
"649 404 OFFCURVE",
"613 348 CURVE SMOOTH",
"594 319 OFFCURVE",
"556 246 OFFCURVE",
"608 359 CURVE SMOOTH",
"642 434 OFFCURVE",
"682 515 OFFCURVE",
"691 592 CURVE SMOOTH",
"721 838 OFFCURVE",
"466 823 OFFCURVE",
"301 733 CURVE SMOOTH",
"186 670 OFFCURVE",
"75 569 OFFCURVE",
"27 454 CURVE SMOOTH",
"-57 250 OFFCURVE",
"51 122 OFFCURVE",
"178 122 CURVE SMOOTH",
"443 122 OFFCURVE",
"573 499 OFFCURVE",
"336 442 CURVE SMOOTH",
"326 440 OFFCURVE",
"318 424 OFFCURVE",
"338 426 CURVE SMOOTH",
"516 449 OFFCURVE",
"391 141 OFFCURVE",
"181 141 CURVE SMOOTH",
"-17 141 OFFCURVE",
"17 507 OFFCURVE",
"312 690 CURVE SMOOTH",
"484 797 OFFCURVE",
"684 817 OFFCURVE",
"626 554 CURVE SMOOTH",
"578 342 OFFCURVE",
"422 30 OFFCURVE",
"373 -42 CURVE",
"365 -74 OFFCURVE",
"439 -72 OFFCURVE",
"456 -36 CURVE SMOOTH",
"521 100 OFFCURVE",
"624 341 OFFCURVE",
"765 512 CURVE SMOOTH",
"836 597 OFFCURVE",
"913 659 OFFCURVE",
"987 694 CURVE SMOOTH",
"1057 728 OFFCURVE",
"1121 727 OFFCURVE",
"1109 657 CURVE SMOOTH",
"1093 554 OFFCURVE",
"909 217 OFFCURVE",
"874 113 CURVE SMOOTH",
"820 -49 OFFCURVE",
"860 -140 OFFCURVE",
"996 -146 CURVE SMOOTH",
"1069 -149 OFFCURVE",
"1087 -76 OFFCURVE",
"1018 -108 CURVE SMOOTH",
"903 -161 OFFCURVE",
"869 -38 OFFCURVE",
"960 161 CURVE SMOOTH",
"1059 377 OFFCURVE",
"1186 549 OFFCURVE",
"1188 668 CURVE SMOOTH"
);
}
);
width = 1039;
}
);
note = N;
unicode = 004E;
},
{
glyphname = O;
layers = (
{
layerId = "5266B3E4-A2B0-4CF3-936E-1186C5B63406";
paths = (
{
closed = 1;
nodes = (
"919 571 OFFCURVE",
"896 572 OFFCURVE",
"889 558 CURVE SMOOTH",
"864 509 OFFCURVE",
"813 468 OFFCURVE",
"759 432 CURVE",
"779 926 OFFCURVE",
"12 841 OFFCURVE",
"51 457 CURVE SMOOTH",
"56 402 OFFCURVE",
"85 360 OFFCURVE",
"128 331 CURVE",
"60 157 OFFCURVE",
"117 -11 OFFCURVE",
"231 -48 CURVE SMOOTH",
"443 -117 OFFCURVE",
"670 101 OFFCURVE",
"732 290 CURVE SMOOTH",
"744 328 OFFCURVE",
"752 363 OFFCURVE",
"755 397 CURVE",
"818 437 OFFCURVE",
"867 489 OFFCURVE",
"904 547 CURVE SMOOTH"
);
},
{
closed = 1;
nodes = (
"535 312 OFFCURVE",
"315 280 OFFCURVE",
"197 338 CURVE",
"239 432 OFFCURVE",
"396 663 OFFCURVE",
"521 624 CURVE SMOOTH",
"534 620 OFFCURVE",
"544 630 OFFCURVE",
"529 638 CURVE SMOOTH",
"378 723 OFFCURVE",
"201 488 OFFCURVE",
"146 372 CURVE",
"124 391 OFFCURVE",
"110 417 OFFCURVE",
"106 448 CURVE SMOOTH",
"53 805 OFFCURVE",
"745 928 OFFCURVE",
"698 400 CURVE"
);
},
{
closed = 1;
nodes = (
"689 342 OFFCURVE",
"682 317 OFFCURVE",
"674 294 CURVE SMOOTH",
"605 98 OFFCURVE",
"409 -102 OFFCURVE",
"234 -16 CURVE SMOOTH",
"137 32 OFFCURVE",
"134 177 OFFCURVE",
"182 303 CURVE",
"314 250 OFFCURVE",
"527 277 OFFCURVE",
"692 365 CURVE"
);
}
);
width = 726;
}
);
note = O;
unicode = 004F;
},
{
glyphname = P;
layers = (
{
layerId = "5266B3E4-A2B0-4CF3-936E-1186C5B63406";
paths = (
{
closed = 1;
nodes = (
"929 726 OFFCURVE",
"890 742 OFFCURVE",
"848 753 CURVE",
"865 770 OFFCURVE",
"883 783 OFFCURVE",
"893 790 CURVE SMOOTH",
"917 805 OFFCURVE",
"915 818 OFFCURVE",
"883 805 CURVE SMOOTH",
"853 794 OFFCURVE",
"830 780 OFFCURVE",
"808 763 CURVE",
"690 787 OFFCURVE",
"559 780 OFFCURVE",
"448 764 CURVE SMOOTH",
"305 743 OFFCURVE",
"51 669 OFFCURVE",
"42 490 CURVE SMOOTH",
"37 388 OFFCURVE",
"111 338 OFFCURVE",
"190 335 CURVE SMOOTH",
"268 333 OFFCURVE",
"355 384 OFFCURVE",
"356 475 CURVE SMOOTH",
"356 489 OFFCURVE",
"345 491 OFFCURVE",
"342 476 CURVE",
"319 409 OFFCURVE",
"255 353 OFFCURVE",
"192 355 CURVE SMOOTH",
"132 357 OFFCURVE",
"83 412 OFFCURVE",
"94 482 CURVE SMOOTH",
"118 631 OFFCURVE",
"326 708 OFFCURVE",
"452 731 CURVE SMOOTH",
"536 747 OFFCURVE",
"667 755 OFFCURVE",
"781 738 CURVE",
"763 721 OFFCURVE",
"747 702 OFFCURVE",
"728 682 CURVE SMOOTH",
"558 491 OFFCURVE",
"482 225 OFFCURVE",
"351 96 CURVE SMOOTH",
"284 31 OFFCURVE",
"210 -12 OFFCURVE",
"121 -8 CURVE SMOOTH",
"-17 -1 OFFCURVE",
"23 193 OFFCURVE",
"183 133 CURVE SMOOTH",
"200 126 OFFCURVE",
"207 138 OFFCURVE",
"186 146 CURVE SMOOTH",
"-40 222 OFFCURVE",
"-108 -12 OFFCURVE",
"96 -36 CURVE SMOOTH",
"203 -49 OFFCURVE",
"305 -13 OFFCURVE",
"390 67 CURVE SMOOTH",
"447 122 OFFCURVE",
"496 184 OFFCURVE",
"540 249 CURVE",
"593 245 OFFCURVE",
"682 253 OFFCURVE",
"764 273 CURVE SMOOTH",
"962 321 OFFCURVE",
"1216 555 OFFCURVE",
"964 705 CURVE SMOOTH"
);
},
{
closed = 1;
nodes = (
"1098 579 OFFCURVE",
"949 363 OFFCURVE",
"732 297 CURVE SMOOTH",
"669 278 OFFCURVE",
"605 268 OFFCURVE",
"554 270 CURVE",
"651 419 OFFCURVE",
"727 586 OFFCURVE",
"829 729 CURVE",
"872 719 OFFCURVE",
"911 704 OFFCURVE",
"941 684 CURVE SMOOTH"
);
}
);
width = 890;
}
);
note = P;
unicode = 0050;
},
{
glyphname = Q;
layers = (
{
layerId = "5266B3E4-A2B0-4CF3-936E-1186C5B63406";
paths = (
{
closed = 1;
nodes = (
"332 749 OFFCURVE",
"7 346 OFFCURVE",
"118 69 CURVE SMOOTH",
"184 -98 OFFCURVE",
"374 -88 OFFCURVE",
"505 -2 CURVE SMOOTH",
"872 240 OFFCURVE",
"902 876 OFFCURVE",
"312 776 CURVE SMOOTH",
"145 748 OFFCURVE",
"33 598 OFFCURVE",
"107 447 CURVE SMOOTH",
"120 421 OFFCURVE",
"136 431 OFFCURVE",
"131 453 CURVE SMOOTH",
"93 608 OFFCURVE",
"160 733 OFFCURVE",
"316 754 CURVE SMOOTH",
"758 812 OFFCURVE",
"855 298 OFFCURVE",
"503 32 CURVE SMOOTH",
"371 -68 OFFCURVE",
"208 -83 OFFCURVE",
"161 81 CURVE SMOOTH",
"99 304 OFFCURVE",
"364 672 OFFCURVE",
"521 624 CURVE SMOOTH",
"534 620 OFFCURVE",
"544 630 OFFCURVE",
"529 638 CURVE SMOOTH"
);
},
{
closed = 1;
nodes = (
"920 -369 OFFCURVE",
"877 -145 OFFCURVE",
"644 -108 CURVE SMOOTH",
"625 -105 OFFCURVE",
"627 -124 OFFCURVE",
"647 -127 CURVE SMOOTH",
"838 -158 OFFCURVE",
"882 -381 OFFCURVE",
"665 -339 CURVE SMOOTH",
"365 -281 OFFCURVE",
"289 -61 OFFCURVE",
"111 -61 CURVE SMOOTH",
"66 -61 OFFCURVE",
"31 -105 OFFCURVE",
"29 -132 CURVE SMOOTH",
"28 -152 OFFCURVE",
"43 -158 OFFCURVE",
"45 -138 CURVE SMOOTH",
"48 -109 OFFCURVE",
"86 -91 OFFCURVE",
"111 -91 CURVE SMOOTH",
"267 -91 OFFCURVE",
"313 -369 OFFCURVE",
"665 -369 CURVE SMOOTH"
);
}
);
width = 752;
}
);
note = Q;
unicode = 0051;
},
{
glyphname = R;
layers = (
{
layerId = "5266B3E4-A2B0-4CF3-936E-1186C5B63406";
paths = (
{
closed = 1;
nodes = (
"1106 209 OFFCURVE",
"1088 204 OFFCURVE",
"1079 187 CURVE SMOOTH",
"1068 165 OFFCURVE",
"1031 86 OFFCURVE",
"983 38 CURVE SMOOTH",
"911 -33 OFFCURVE",
"861 3 OFFCURVE",
"811 79 CURVE SMOOTH",
"736 193 OFFCURVE",
"705 349 OFFCURVE",
"700 377 CURVE",
"722 378 OFFCURVE",
"753 380 OFFCURVE",
"792 386 CURVE SMOOTH",
"1109 438 OFFCURVE",
"1233 656 OFFCURVE",
"961 735 CURVE SMOOTH",
"931 743 OFFCURVE",
"898 748 OFFCURVE",
"862 754 CURVE",
"872 785 OFFCURVE",
"868 806 OFFCURVE",
"825 759 CURVE",
"709 775 OFFCURVE",
"583 774 OFFCURVE",
"444 754 CURVE SMOOTH",
"222 722 OFFCURVE",
"105 600 OFFCURVE",
"95 494 CURVE SMOOTH",
"80 325 OFFCURVE",
"273 280 OFFCURVE",
"374 386 CURVE SMOOTH",
"394 407 OFFCURVE",
"408 435 OFFCURVE",
"413 467 CURVE SMOOTH",
"414 478 OFFCURVE",
"402 493 OFFCURVE",
"400 469 CURVE SMOOTH",
"399 456 OFFCURVE",
"387 431 OFFCURVE",
"362 404 CURVE SMOOTH",
"276 312 OFFCURVE",
"118 359 OFFCURVE",
"146 494 CURVE SMOOTH",
"164 580 OFFCURVE",
"261 677 OFFCURVE",
"431 712 CURVE SMOOTH",
"566 741 OFFCURVE",
"690 746 OFFCURVE",
"803 735 CURVE",
"721 644 OFFCURVE",
"647 496 OFFCURVE",
"566 354 CURVE SMOOTH",
"459 166 OFFCURVE",
"348 -17 OFFCURVE",
"171 -8 CURVE SMOOTH",
"33 -1 OFFCURVE",
"70 195 OFFCURVE",
"230 134 CURVE SMOOTH",
"247 128 OFFCURVE",
"254 139 OFFCURVE",
"236 146 CURVE SMOOTH",
"3 226 OFFCURVE",
"-66 -11 OFFCURVE",
"146 -36 CURVE SMOOTH",
"262 -51 OFFCURVE",
"373 -7 OFFCURVE",
"461 88 CURVE SMOOTH",
"543 178 OFFCURVE",
"589 270 OFFCURVE",
"637 365 CURVE",
"648 300 OFFCURVE",
"691 105 OFFCURVE",
"782 10 CURVE SMOOTH",
"847 -58 OFFCURVE",
"932 -58 OFFCURVE",
"994 9 CURVE SMOOTH",
"1037 56 OFFCURVE",
"1083 158 OFFCURVE",
"1096 187 CURVE SMOOTH"
);
},
{
closed = 1;
nodes = (
"1144 651 OFFCURVE",
"991 442 OFFCURVE",
"784 416 CURVE SMOOTH",
"736 410 OFFCURVE",
"697 410 OFFCURVE",
"658 403 CURVE",
"716 519 OFFCURVE",
"787 619 OFFCURVE",
"850 729 CURVE",
"886 723 OFFCURVE",
"919 718 OFFCURVE",
"948 710 CURVE SMOOTH"
);
}
);
width = 1024;
}
);
note = R;
unicode = 0052;
},
{
glyphname = S;
layers = (
{
hints = (
{
place = "{-2, 56}";
type = Stem;
}
);
layerId = "5266B3E4-A2B0-4CF3-936E-1186C5B63406";
paths = (
{
closed = 1;
nodes = (
"962 673 OFFCURVE",
"938 755 OFFCURVE",
"867 790 CURVE SMOOTH",
"795 826 OFFCURVE",
"646 820 OFFCURVE",
"546 785 CURVE SMOOTH",
"400 733 OFFCURVE",
"309 585 OFFCURVE",
"458 486 CURVE SMOOTH",
"533 436 OFFCURVE",
"667 400 OFFCURVE",
"729 350 CURVE SMOOTH",
"850 252 OFFCURVE",
"779 80 OFFCURVE",
"611 -8 CURVE SMOOTH",
"411 -112 OFFCURVE",
"52 -86 OFFCURVE",
"54 162 CURVE SMOOTH",
"55 226 OFFCURVE",
"74 293 OFFCURVE",
"110 349 CURVE SMOOTH",
"128 378 OFFCURVE",
"152 403 OFFCURVE",
"179 424 CURVE SMOOTH",
"212 449 OFFCURVE",
"183 445 OFFCURVE",
"169 439 CURVE SMOOTH",
"71 393 OFFCURVE",
"-7 257 OFFCURVE",
"-2 162 CURVE SMOOTH",
"15 -120 OFFCURVE",
"441 -148 OFFCURVE",
"667 -13 CURVE SMOOTH",
"836 88 OFFCURVE",
"970 276 OFFCURVE",
"766 402 CURVE SMOOTH",
"692 448 OFFCURVE",
"591 483 OFFCURVE",
"530 520 CURVE SMOOTH",
"395 603 OFFCURVE",
"465 715 OFFCURVE",
"584 758 CURVE SMOOTH",
"906 873 OFFCURVE",
"963 625 OFFCURVE",
"838 610 CURVE SMOOTH",
"805 606 OFFCURVE",
"806 583 OFFCURVE",
"833 590 CURVE SMOOTH",
"862 598 OFFCURVE",
"884 609 OFFCURVE",
"900 622 CURVE SMOOTH"
);
}
);
width = 901;
}
);
note = S;
unicode = 0053;
},
{
glyphname = T;
layers = (
{
layerId = "5266B3E4-A2B0-4CF3-936E-1186C5B63406";
paths = (
{
closed = 1;
nodes = (
"1400 615 OFFCURVE",
"1397 631 OFFCURVE",
"1390 631 CURVE SMOOTH",
"1381 631 OFFCURVE",
"1379 625 OFFCURVE",
"1379 616 CURVE SMOOTH",
"1379 548 OFFCURVE",
"1136 615 OFFCURVE",
"1050 643 CURVE",
"1063 656 OFFCURVE",
"1093 690 OFFCURVE",
"1102 683 CURVE",
"1135 673 OFFCURVE",
"1127 722 OFFCURVE",
"1095 712 CURVE",
"1096 712 LINE SMOOTH",
"1074 712 OFFCURVE",
"1031 662 OFFCURVE",
"1022 651 CURVE",
"958 669 OFFCURVE",
"816 728 OFFCURVE",
"696 738 CURVE SMOOTH",
"321 772 OFFCURVE",
"245 404 OFFCURVE",
"449 333 CURVE SMOOTH",
"543 301 OFFCURVE",
"657 358 OFFCURVE",
"670 465 CURVE",
"670 478 OFFCURVE",
"660 482 OFFCURVE",
"650 473 CURVE",
"650 471 LINE SMOOTH",
"654 443 OFFCURVE",
"582 319 OFFCURVE",
"459 358 CURVE SMOOTH",
"302 408 OFFCURVE",
"417 701 OFFCURVE",
"703 687 CURVE SMOOTH",
"810 682 OFFCURVE",
"901 665 OFFCURVE",
"1006 632 CURVE",
"964 576 OFFCURVE",
"833 223 OFFCURVE",
"712 92 CURVE SMOOTH",
"636 9 OFFCURVE",
"529 -54 OFFCURVE",
"372 -58 CURVE SMOOTH",
"218 -61 OFFCURVE",
"33 49 OFFCURVE",
"69 254 CURVE SMOOTH",
"85 349 OFFCURVE",
"156 372 OFFCURVE",
"172 392 CURVE",
"178 434 OFFCURVE",
"79 393 OFFCURVE",
"49 300 CURVE SMOOTH",
"-86 -127 OFFCURVE",
"548 -197 OFFCURVE",
"760 44 CURVE SMOOTH",
"907 212 OFFCURVE",
"915 431 OFFCURVE",
"1035 622 CURVE",
"1056 613 OFFCURVE",
"1139 577 OFFCURVE",
"1287 558 CURVE SMOOTH",
"1350 550 OFFCURVE",
"1400 572 OFFCURVE",
"1400 610 CURVE SMOOTH"
);
}
);
width = 918;
}
);
note = T;
unicode = 0054;
},
{
glyphname = U;
layers = (
{
layerId = "5266B3E4-A2B0-4CF3-936E-1186C5B63406";
paths = (
{
closed = 1;
nodes = (
"974 482 OFFCURVE",
"952 468 OFFCURVE",
"930 429 CURVE SMOOTH",
"889 355 OFFCURVE",
"829 214 OFFCURVE",
"762 117 CURVE SMOOTH",
"652 -42 OFFCURVE",
"550 -59 OFFCURVE",
"539 45 CURVE SMOOTH",
"524 191 OFFCURVE",
"681 419 OFFCURVE",
"717 577 CURVE SMOOTH",
"742 687 OFFCURVE",
"730 788 OFFCURVE",
"632 830 CURVE SMOOTH",
"543 869 OFFCURVE",
"420 849 OFFCURVE",
"306 786 CURVE SMOOTH",
"-181 520 OFFCURVE",
"-20 29 OFFCURVE",
"279 156 CURVE SMOOTH",
"500 249 OFFCURVE",
"532 578 OFFCURVE",
"326 491 CURVE SMOOTH",
"318 488 OFFCURVE",
"279 462 OFFCURVE",
"331 474 CURVE SMOOTH",
"522 517 OFFCURVE",
"417 230 OFFCURVE",
"280 179 CURVE SMOOTH",
"2 75 OFFCURVE",
"-96 519 OFFCURVE",
"304 753 CURVE SMOOTH",
"418 819 OFFCURVE",
"555 848 OFFCURVE",
"637 798 CURVE SMOOTH",
"685 769 OFFCURVE",
"682 677 OFFCURVE",
"658 581 CURVE SMOOTH",
"621 436 OFFCURVE",
"460 180 OFFCURVE",
"482 45 CURVE SMOOTH",
"503 -83 OFFCURVE",
"644 -82 OFFCURVE",
"777 89 CURVE SMOOTH",
"802 121 OFFCURVE",
"823 154 OFFCURVE",
"838 179 CURVE",
"821 93 OFFCURVE",
"803 -68 OFFCURVE",
"897 -85 CURVE SMOOTH",
"928 -90 OFFCURVE",
"952 -58 OFFCURVE",
"904 -62 CURVE SMOOTH",
"849 -65 OFFCURVE",
"861 57 OFFCURVE",
"890 165 CURVE SMOOTH",
"909 236 OFFCURVE",
"937 299 OFFCURVE",
"950 327 CURVE SMOOTH",
"977 388 OFFCURVE",
"1035 458 OFFCURVE",
"986 482 CURVE"
);
}
);
width = 942;
}
);
note = U;
unicode = 0055;
},
{
glyphname = V;
layers = (
{
layerId = "5266B3E4-A2B0-4CF3-936E-1186C5B63406";
paths = (
{
closed = 1;
nodes = (
"1089 537 OFFCURVE",
"1001 606 OFFCURVE",
"952 619 CURVE SMOOTH",
"912 629 OFFCURVE",
"913 599 OFFCURVE",
"948 592 CURVE SMOOTH",
"971 588 OFFCURVE",
"987 593 OFFCURVE",
"996 541 CURVE SMOOTH",
"1016 419 OFFCURVE",
"927 257 OFFCURVE",
"820 132 CURVE SMOOTH",
"786 92 OFFCURVE",
"505 -206 OFFCURVE",
"544 20 CURVE SMOOTH",
"560 111 OFFCURVE",
"608 268 OFFCURVE",
"672 398 CURVE SMOOTH",
"749 556 OFFCURVE",
"793 760 OFFCURVE",
"647 824 CURVE SMOOTH",
"470 902 OFFCURVE",
"130 751 OFFCURVE",
"22 504 CURVE SMOOTH",
"-71 291 OFFCURVE",
"62 135 OFFCURVE",
"200 135 CURVE SMOOTH",
"325 135 OFFCURVE",
"491 267 OFFCURVE",
"491 394 CURVE SMOOTH",
"491 470 OFFCURVE",
"436 526 OFFCURVE",
"351 486 CURVE SMOOTH",
"332 477 OFFCURVE",
"326 463 OFFCURVE",
"356 472 CURVE SMOOTH",
"423 492 OFFCURVE",
"447 446 OFFCURVE",
"447 392 CURVE SMOOTH",
"447 282 OFFCURVE",
"328 161 OFFCURVE",
"216 161 CURVE SMOOTH",
"103 161 OFFCURVE",
"-1 263 OFFCURVE",
"75 472 CURVE SMOOTH",
"157 695 OFFCURVE",
"489 893 OFFCURVE",
"651 793 CURVE SMOOTH",
"729 745 OFFCURVE",
"658 533 OFFCURVE",
"606 410 CURVE SMOOTH",
"472 90 OFFCURVE",
"447 -79 OFFCURVE",
"530 -94 CURVE SMOOTH",
"659 -117 OFFCURVE",
"936 136 OFFCURVE",
"1032 389 CURVE SMOOTH"
);
}
);
width = 975;
}
);
note = V;
unicode = 0056;
},
{
glyphname = W;
layers = (
{
layerId = "5266B3E4-A2B0-4CF3-936E-1186C5B63406";
paths = (
{
closed = 1;
nodes = (
"1441 468 OFFCURVE",
"1325 623 OFFCURVE",
"1197 612 CURVE",
"1151 621 OFFCURVE",
"1093 564 OFFCURVE",
"1183 588 CURVE",
"1342 610 OFFCURVE",
"1367 431 OFFCURVE",
"1284 234 CURVE SMOOTH",
"1200 34 OFFCURVE",
"836 -201 OFFCURVE",
"872 86 CURVE SMOOTH",
"883 170 OFFCURVE",
"946 287 OFFCURVE",
"972 362 CURVE SMOOTH",
"1000 445 OFFCURVE",
"958 469 OFFCURVE",
"906 396 CURVE SMOOTH",
"819 275 OFFCURVE",
"682 -14 OFFCURVE",
"560 -86 CURVE SMOOTH",
"520 -110 OFFCURVE",
"494 -99 OFFCURVE",
"508 -30 CURVE SMOOTH",
"527 65 OFFCURVE",
"593 246 OFFCURVE",
"652 378 CURVE SMOOTH",
"723 538 OFFCURVE",
"768 725 OFFCURVE",
"623 789 CURVE SMOOTH",
"446 867 OFFCURVE",
"123 712 OFFCURVE",
"16 465 CURVE SMOOTH",
"-96 209 OFFCURVE",
"100 49 OFFCURVE",
"257 114 CURVE SMOOTH",
"502 217 OFFCURVE",
"529 522 OFFCURVE",
"308 454 CURVE SMOOTH",
"286 447 OFFCURVE",
"279 433 OFFCURVE",
"310 438 CURVE SMOOTH",
"487 467 OFFCURVE",
"398 189 OFFCURVE",
"259 138 CURVE SMOOTH",
"126 89 OFFCURVE",
"-21 177 OFFCURVE",
"72 428 CURVE SMOOTH",
"155 652 OFFCURVE",
"464 857 OFFCURVE",
"627 757 CURVE SMOOTH",
"705 709 OFFCURVE",
"631 497 OFFCURVE",
"580 374 CURVE SMOOTH",
"505 195 OFFCURVE",
"456 64 OFFCURVE",
"450 -20 CURVE SMOOTH",
"444 -102 OFFCURVE",
"480 -126 OFFCURVE",
"520 -124 CURVE SMOOTH",
"630 -119 OFFCURVE",
"788 111 OFFCURVE",
"844 203 CURVE",
"832 163 OFFCURVE",
"821 109 OFFCURVE",
"824 60 CURVE SMOOTH",
"843 -204 OFFCURVE",
"1244 -34 OFFCURVE",
"1346 225 CURVE SMOOTH"
);
}
);
width = 1344;
}
);
note = W;
unicode = 0057;
},
{
glyphname = X;
layers = (
{
hints = (
{
horizontal = 1;
place = "{-220, 21}";
target = up;
type = BottomGhost;
},
{
place = "{498, 61}";
type = Stem;
}
);
layerId = "5266B3E4-A2B0-4CF3-936E-1186C5B63406";
paths = (
{
closed = 1;
nodes = (
"1124 812 OFFCURVE",
"1097 817 OFFCURVE",
"1081 817 CURVE SMOOTH",
"1065 817 OFFCURVE",
"1043 793 OFFCURVE",
"1008 759 CURVE SMOOTH",
"913 665 OFFCURVE",
"758 573 OFFCURVE",
"559 433 CURVE",
"558 610 OFFCURVE",
"563 788 OFFCURVE",
"432 788 CURVE SMOOTH",
"301 788 OFFCURVE",
"119 623 OFFCURVE",
"108 606 CURVE SMOOTH",
"87 576 OFFCURVE",
"119 570 OFFCURVE",
"124 574 CURVE",
"170 673 OFFCURVE",
"461 834 OFFCURVE",
"487 658 CURVE SMOOTH",
"499 576 OFFCURVE",
"498 491 OFFCURVE",
"497 395 CURVE",
"278 239 OFFCURVE",
"55 50 OFFCURVE",
"-103 -169 CURVE SMOOTH",
"-128 -203 OFFCURVE",
"-125 -220 OFFCURVE",
"-108 -220 CURVE SMOOTH",
"-94 -220 OFFCURVE",
"-71 -208 OFFCURVE",
"-47 -169 CURVE SMOOTH",
"82 33 OFFCURVE",
"288 205 OFFCURVE",
"498 357 CURVE",
"495 206 OFFCURVE",
"491 65 OFFCURVE",
"502 17 CURVE SMOOTH",
"540 -159 OFFCURVE",
"731 -122 OFFCURVE",
"877 184 CURVE SMOOTH",
"889 209 OFFCURVE",
"868 206 OFFCURVE",
"860 189 CURVE SMOOTH",
"776 -5 OFFCURVE",
"621 -118 OFFCURVE",
"575 53 CURVE SMOOTH",
"559 114 OFFCURVE",
"557 256 OFFCURVE",
"560 395 CURVE",
"795 563 OFFCURVE",
"1004 695 OFFCURVE",
"1079 768 CURVE SMOOTH"
);
}
);
width = 807;
}
);
note = X;
unicode = 0058;
},
{
glyphname = Y;
layers = (
{
layerId = "5266B3E4-A2B0-4CF3-936E-1186C5B63406";
paths = (
{
closed = 1;
nodes = (
"1112 -3 OFFCURVE",
"1106 -13 OFFCURVE",
"1108 -28 CURVE",
"1088 -139 OFFCURVE",
"912 -122 OFFCURVE",
"814 -128 CURVE",
"888 3 OFFCURVE",
"957 231 OFFCURVE",
"992 385 CURVE SMOOTH",
"1026 534 OFFCURVE",
"948 473 OFFCURVE",
"943 449 CURVE",
"912 345 OFFCURVE",
"810 95 OFFCURVE",
"686 7 CURVE SMOOTH",
"608 -49 OFFCURVE",
"516 -41 OFFCURVE",
"542 79 CURVE SMOOTH",
"562 170 OFFCURVE",
"631 307 OFFCURVE",
"698 421 CURVE SMOOTH",
"788 573 OFFCURVE",
"831 756 OFFCURVE",
"684 822 CURVE SMOOTH",
"509 901 OFFCURVE",
"176 738 OFFCURVE",
"58 495 CURVE SMOOTH",
"-64 245 OFFCURVE",
"125 82 OFFCURVE",
"284 148 CURVE SMOOTH",
"508 240 OFFCURVE",
"577 544 OFFCURVE",
"366 487 CURVE SMOOTH",
"348 483 OFFCURVE",
"334 466 OFFCURVE",
"368 473 CURVE SMOOTH",
"542 504 OFFCURVE",
"427 221 OFFCURVE",
"288 171 CURVE SMOOTH",
"158 124 OFFCURVE",
"7 222 OFFCURVE",
"110 469 CURVE SMOOTH",
"203 690 OFFCURVE",
"527 893 OFFCURVE",
"688 790 CURVE SMOOTH",
"765 741 OFFCURVE",
"707 553 OFFCURVE",
"618 408 CURVE SMOOTH",
"563 318 OFFCURVE",
"486 185 OFFCURVE",
"472 85 CURVE SMOOTH",
"452 -67 OFFCURVE",
"598 -83 OFFCURVE",
"700 -14 CURVE SMOOTH",
"793 49 OFFCURVE",
"865 176 OFFCURVE",
"903 258 CURVE",
"867 124 OFFCURVE",
"818 -1 OFFCURVE",
"766 -129 CURVE",
"621 -129 OFFCURVE",
"470 -137 OFFCURVE",
"334 -193 CURVE SMOOTH",
"84 -296 OFFCURVE",
"261 -467 OFFCURVE",
"522 -367 CURVE SMOOTH",
"624 -328 OFFCURVE",
"732 -255 OFFCURVE",
"799 -154 CURVE",
"900 -153 OFFCURVE",
"996 -152 OFFCURVE",
"1048 -131 CURVE SMOOTH",
"1109 -105 OFFCURVE",
"1128 -55 OFFCURVE",
"1120 -29 CURVE SMOOTH"
);
},
{
closed = 1;
nodes = (
"692 -250 OFFCURVE",
"596 -313 OFFCURVE",
"507 -346 CURVE SMOOTH",
"347 -405 OFFCURVE",
"154 -347 OFFCURVE",
"350 -235 CURVE SMOOTH",
"469 -166 OFFCURVE",
"617 -154 OFFCURVE",
"752 -154 CURVE"
);
}
);
width = 959;
}
);
note = Y;
unicode = 0059;
},
{
glyphname = Z;
layers = (
{
layerId = "5266B3E4-A2B0-4CF3-936E-1186C5B63406";
paths = (
{
closed = 1;
nodes = (
"1112 717 OFFCURVE",
"1061 781 OFFCURVE",
"978 752 CURVE SMOOTH",
"947 741 OFFCURVE",
"908 717 OFFCURVE",
"867 685 CURVE",
"756 719 OFFCURVE",
"613 775 OFFCURVE",
"490 765 CURVE SMOOTH",
"257 747 OFFCURVE",
"243 593 OFFCURVE",
"298 532 CURVE SMOOTH",
"313 515 OFFCURVE",
"330 504 OFFCURVE",
"338 502 CURVE SMOOTH",
"348 499 OFFCURVE",
"385 497 OFFCURVE",
"350 521 CURVE SMOOTH",
"246 590 OFFCURVE",
"345 676 OFFCURVE",
"430 698 CURVE SMOOTH",
"549 729 OFFCURVE",
"730 703 OFFCURVE",
"848 670 CURVE",
"773 609 OFFCURVE",
"691 526 OFFCURVE",
"635 460 CURVE SMOOTH",
"557 365 OFFCURVE",
"297 61 OFFCURVE",
"297 61 CURVE",
"228 105 OFFCURVE",
"184 125 OFFCURVE",
"154 133 CURVE SMOOTH",
"-12 177 OFFCURVE",
"-34 -8 OFFCURVE",
"92 -37 CURVE SMOOTH",
"139 -47 OFFCURVE",
"205 -30 OFFCURVE",
"292 32 CURVE",
"292 32 OFFCURVE",
"616 -161 OFFCURVE",
"763 -158 CURVE SMOOTH",
"958 -154 OFFCURVE",
"994 -51 OFFCURVE",
"998 -13 CURVE SMOOTH",
"1004 44 OFFCURVE",
"980 34 OFFCURVE",
"975 2 CURVE SMOOTH",
"959 -112 OFFCURVE",
"774 -109 OFFCURVE",
"698 -94 CURVE SMOOTH",
"591 -73 OFFCURVE",
"317 46 OFFCURVE",
"317 46 CURVE",
"390 106 OFFCURVE",
"516 205 OFFCURVE",
"630 346 CURVE SMOOTH",
"705 439 OFFCURVE",
"812 595 OFFCURVE",
"884 661 CURVE",
"956 643 OFFCURVE",
"1015 635 OFFCURVE",
"1046 661 CURVE SMOOTH"
);
},
{
closed = 1;
nodes = (
"1002 653 OFFCURVE",
"956 660 OFFCURVE",
"899 676 CURVE",
"945 715 OFFCURVE",
"986 741 OFFCURVE",
"1017 741 CURVE SMOOTH",
"1053 741 OFFCURVE",
"1057 687 OFFCURVE",
"1028 669 CURVE SMOOTH"
);
},
{
closed = 1;
nodes = (
"250 18 OFFCURVE",
"196 -6 OFFCURVE",
"150 -8 CURVE SMOOTH",
"25 -12 OFFCURVE",
"27 117 OFFCURVE",
"146 104 CURVE SMOOTH",
"172 101 OFFCURVE",
"207 88 OFFCURVE",
"248 65 CURVE",
"258 58 OFFCURVE",
"278 42 OFFCURVE",
"278 42 CURVE"
);
}
);
width = 677;
}
);
note = Z;
unicode = 005A;
},
{
glyphname = Z.stroke;
layers = (
{
hints = (
{
horizontal = 1;
place = "{333, 26}";
type = Stem;
},
{
place = "{376, 404}";
type = Stem;
}
);
layerId = "5266B3E4-A2B0-4CF3-936E-1186C5B63406";
paths = (
{
closed = 1;
nodes = (
"795 333 OFFCURVE",
"783 358 OFFCURVE",
"747 359 CURVE SMOOTH",
"708 359 OFFCURVE",
"673 360 OFFCURVE",
"642 361 CURVE",
"716 455 OFFCURVE",
"815 598 OFFCURVE",
"884 661 CURVE",
"956 643 OFFCURVE",
"1015 635 OFFCURVE",
"1046 661 CURVE SMOOTH",
"1112 717 OFFCURVE",
"1061 781 OFFCURVE",
"978 752 CURVE SMOOTH",
"947 741 OFFCURVE",
"908 717 OFFCURVE",
"867 685 CURVE",
"756 719 OFFCURVE",
"613 775 OFFCURVE",
"490 765 CURVE SMOOTH",
"257 747 OFFCURVE",
"243 593 OFFCURVE",
"298 532 CURVE SMOOTH",
"313 515 OFFCURVE",
"330 504 OFFCURVE",
"338 502 CURVE SMOOTH",
"348 499 OFFCURVE",
"385 497 OFFCURVE",
"350 521 CURVE SMOOTH",
"246 590 OFFCURVE",
"345 676 OFFCURVE",
"430 698 CURVE SMOOTH",
"549 729 OFFCURVE",
"730 703 OFFCURVE",
"848 670 CURVE",
"773 609 OFFCURVE",
"691 526 OFFCURVE",
"635 460 CURVE SMOOTH",
"553 362 LINE",
"487 363 OFFCURVE",
"439 363 OFFCURVE",
"403 363 CURVE SMOOTH",
"357 363 OFFCURVE",
"381 314 OFFCURVE",
"403 316 CURVE SMOOTH",
"439 318 OFFCURVE",
"479 322 OFFCURVE",
"522 325 CURVE",
"420 204 OFFCURVE",
"297 61 OFFCURVE",
"297 61 CURVE",
"228 105 OFFCURVE",
"184 125 OFFCURVE",
"154 133 CURVE SMOOTH",
"-12 177 OFFCURVE",
"-34 -8 OFFCURVE",
"92 -37 CURVE SMOOTH",
"139 -47 OFFCURVE",
"205 -30 OFFCURVE",
"292 32 CURVE",
"292 32 OFFCURVE",
"616 -161 OFFCURVE",
"763 -158 CURVE SMOOTH",
"958 -154 OFFCURVE",
"994 -51 OFFCURVE",
"998 -13 CURVE SMOOTH",
"1004 44 OFFCURVE",
"980 34 OFFCURVE",
"975 2 CURVE SMOOTH",
"959 -112 OFFCURVE",
"774 -109 OFFCURVE",
"698 -94 CURVE SMOOTH",
"591 -73 OFFCURVE",
"317 46 OFFCURVE",
"317 46 CURVE",
"387 103 OFFCURVE",
"506 197 OFFCURVE",
"617 330 CURVE",
"659 332 OFFCURVE",
"704 333 OFFCURVE",
"753 333 CURVE SMOOTH"
);
},
{
closed = 1;
nodes = (
"250 18 OFFCURVE",
"196 -6 OFFCURVE",
"150 -8 CURVE SMOOTH",
"25 -12 OFFCURVE",
"27 117 OFFCURVE",
"146 104 CURVE SMOOTH",
"172 101 OFFCURVE",
"207 88 OFFCURVE",
"248 65 CURVE",
"258 58 OFFCURVE",
"278 42 OFFCURVE",
"278 42 CURVE"
);
},
{
closed = 1;
nodes = (
"1002 653 OFFCURVE",
"956 660 OFFCURVE",
"899 676 CURVE",
"945 715 OFFCURVE",
"986 741 OFFCURVE",
"1017 741 CURVE SMOOTH",
"1053 741 OFFCURVE",
"1057 687 OFFCURVE",
"1028 669 CURVE SMOOTH"
);
}
);
width = 677;
}
);
note = Z.stroke;
},
{
glyphname = bracketleft;
layers = (
{
hints = (
{
horizontal = 1;
place = "{-17, 41}";
type = Stem;
},
{
horizontal = 1;
place = "{668, 50}";
type = Stem;
},
{
place = "{38, 59}";
type = Stem;
}
);
layerId = "5266B3E4-A2B0-4CF3-936E-1186C5B63406";
paths = (
{
closed = 1;
nodes = (
"583 718 OFFCURVE",
"516 718 OFFCURVE",
"492 718 CURVE SMOOTH",
"472 718 LINE SMOOTH",
"407 718 OFFCURVE",
"379 688 OFFCURVE",
"339 642 CURVE SMOOTH",
"229 514 OFFCURVE",
"38 196 OFFCURVE",
"38 28 CURVE SMOOTH",
"38 -17 OFFCURVE",
"124 -17 OFFCURVE",
"154 -17 CURVE SMOOTH",
"177 -17 OFFCURVE",
"278 -20 OFFCURVE",
"278 6 CURVE SMOOTH",
"278 24 OFFCURVE",
"249 28 OFFCURVE",
"236 28 CURVE SMOOTH",
"212 28 OFFCURVE",
"188 24 OFFCURVE",
"164 24 CURVE SMOOTH",
"134 24 OFFCURVE",
"97 29 OFFCURVE",
"97 68 CURVE SMOOTH",
"97 183 OFFCURVE",
"336 612 OFFCURVE",
"437 663 CURVE SMOOTH",
"448 669 OFFCURVE",
"472 668 OFFCURVE",
"484 668 CURVE SMOOTH",
"509 668 OFFCURVE",
"533 664 OFFCURVE",
"558 664 CURVE SMOOTH",
"573 664 OFFCURVE",
"583 663 OFFCURVE",
"583 682 CURVE SMOOTH"
);
}
);
width = 585;
}
);
note = bracketleft;
unicode = 005B;
},
{
glyphname = backslash;
layers = (
{
hints = (
{
horizontal = 1;
place = "{761, 29}";
type = Stem;
}
);
layerId = "5266B3E4-A2B0-4CF3-936E-1186C5B63406";
paths = (
{
closed = 1;
nodes = (
"859 -34 LINE",
"858 -28 OFFCURVE",
"854 -24 OFFCURVE",
"850 -19 CURVE SMOOTH",
"687 150 OFFCURVE",
"571 327 OFFCURVE",
"433 513 CURVE SMOOTH",
"329 652 OFFCURVE",
"203 790 OFFCURVE",
"92 790 CURVE SMOOTH",
"64 790 OFFCURVE",
"30 783 OFFCURVE",
"20 754 CURVE",
"27 747 LINE",
"41 751 OFFCURVE",
"55 761 OFFCURVE",
"69 761 CURVE SMOOTH",
"249 761 OFFCURVE",
"669 14 OFFCURVE",
"852 -40 CURVE"
);
}
);
width = 867;
}
);
note = backslash;
unicode = 005C;
},
{
glyphname = bracketright;
layers = (
{
hints = (
{
horizontal = 1;
place = "{670, 46}";
type = Stem;
},
{
place = "{489, 59}";
type = Stem;
}
);
layerId = "5266B3E4-A2B0-4CF3-936E-1186C5B63406";
paths = (
{
closed = 1;
nodes = (
"548 713 OFFCURVE",
"520 716 OFFCURVE",
"485 716 CURVE SMOOTH",
"445 716 OFFCURVE",
"352 717 OFFCURVE",
"339 667 CURVE",
"342 665 LINE",
"379 665 OFFCURVE",
"416 669 OFFCURVE",
"453 669 CURVE SMOOTH",
"464 669 OFFCURVE",
"475 669 OFFCURVE",
"486 665 CURVE",
"488 655 OFFCURVE",
"489 645 OFFCURVE",
"489 635 CURVE SMOOTH",
"489 489 OFFCURVE",
"348 186 OFFCURVE",
"251 77 CURVE SMOOTH",
"172 -12 OFFCURVE",
"31 61 OFFCURVE",
"17 -12 CURVE",
"32 -19 OFFCURVE",
"72 -17 OFFCURVE",
"92 -17 CURVE SMOOTH",
"152 -17 OFFCURVE",
"230 -16 OFFCURVE",
"275 29 CURVE SMOOTH",
"411 166 OFFCURVE",
"548 477 OFFCURVE",
"548 670 CURVE SMOOTH"
);
}
);
width = 556;
}
);
note = bracketright;
unicode = 005D;
},
{
glyphname = asciicircum;
layers = (
{
hints = (
{
horizontal = 1;
place = "{382, 21}";
target = up;
type = BottomGhost;
},
{
horizontal = 1;
place = "{516, -20}";
target = down;
type = TopGhost;
}
);
layerId = "5266B3E4-A2B0-4CF3-936E-1186C5B63406";
paths = (
{
closed = 1;
nodes = (
"398 399 LINE",
"357 433 OFFCURVE",
"319 470 OFFCURVE",
"288 513 CURVE",
"282 516 LINE",
"260 513 OFFCURVE",
"121 411 OFFCURVE",
"118 393 CURVE",
"124 386 LINE",
"142 389 OFFCURVE",
"239 459 OFFCURVE",
"260 474 CURVE",
"279 448 OFFCURVE",
"359 382 OFFCURVE",
"391 382 CURVE SMOOTH",
"396 382 OFFCURVE",
"403 384 OFFCURVE",
"403 391 CURVE"
);
}
);
width = 370;
}
);
note = asciicircum;
unicode = 005E;
},
{
glyphname = underscore;
layers = (
{
hints = (
{
horizontal = 1;
place = "{-60, 35}";
type = Stem;
}
);
layerId = "5266B3E4-A2B0-4CF3-936E-1186C5B63406";
paths = (
{
closed = 1;
nodes = (
"793 -53 LINE",
"792 -39 OFFCURVE",
"780 -25 OFFCURVE",
"765 -25 CURVE SMOOTH",
"25 -25 LINE SMOOTH",
"14 -25 OFFCURVE",
"8 -34 OFFCURVE",
"8 -44 CURVE SMOOTH",
"8 -53 OFFCURVE",
"13 -73 OFFCURVE",
"25 -73 CURVE SMOOTH",
"90 -73 OFFCURVE",
"154 -68 OFFCURVE",
"219 -67 CURVE SMOOTH",
"408 -63 OFFCURVE",
"597 -60 OFFCURVE",
"786 -60 CURVE"
);
}
);
width = 806;
}
);
note = underscore;
unicode = 005F;
},
{
glyphname = grave;
layers = (
{
hints = (
{
horizontal = 1;
place = "{399, 21}";
target = up;
type = BottomGhost;
},
{
horizontal = 1;
place = "{534, -20}";
target = down;
type = TopGhost;
}
);
layerId = "5266B3E4-A2B0-4CF3-936E-1186C5B63406";
paths = (
{
closed = 1;
nodes = (
"193 415 OFFCURVE",
"47 534 OFFCURVE",
"28 534 CURVE SMOOTH",
"17 534 OFFCURVE",
"9 525 OFFCURVE",
"9 513 CURVE SMOOTH",
"9 491 OFFCURVE",
"28 477 OFFCURVE",
"46 468 CURVE SMOOTH",
"65 459 OFFCURVE",
"174 399 OFFCURVE",
"183 399 CURVE SMOOTH",
"188 399 OFFCURVE",
"193 402 OFFCURVE",
"193 408 CURVE SMOOTH"
);
}
);
width = 211;
}
);
note = grave;
unicode = 0060;
},
{
glyphname = a;
layers = (
{
layerId = "5266B3E4-A2B0-4CF3-936E-1186C5B63406";
paths = (
{
closed = 1;
nodes = (
"431 204 OFFCURVE",
"416 210 OFFCURVE",
"407 192 CURVE SMOOTH",
"386 149 OFFCURVE",
"320 22 OFFCURVE",
"278 24 CURVE SMOOTH",
"265 24 OFFCURVE",
"260 43 OFFCURVE",
"268 84 CURVE SMOOTH",
"281 145 OFFCURVE",
"340 250 OFFCURVE",
"361 271 CURVE",
"347 268 OFFCURVE",
"332 274 OFFCURVE",
"319 275 CURVE SMOOTH",
"287 277 OFFCURVE",
"273 253 OFFCURVE",
"251 211 CURVE SMOOTH",
"225 162 OFFCURVE",
"197 113 OFFCURVE",
"162 71 CURVE SMOOTH",
"115 15 OFFCURVE",
"60 7 OFFCURVE",
"70 77 CURVE SMOOTH",
"76 115 OFFCURVE",
"103 164 OFFCURVE",
"111 178 CURVE SMOOTH",
"147 237 OFFCURVE",
"199 296 OFFCURVE",
"244 321 CURVE SMOOTH",
"281 341 OFFCURVE",
"318 333 OFFCURVE",
"329 296 CURVE",
"346 293 OFFCURVE",
"354 310 OFFCURVE",
"340 325 CURVE SMOOTH",
"283 387 OFFCURVE",
"168 350 OFFCURVE",
"108 279 CURVE SMOOTH",
"-43 98 OFFCURVE",
"33 -77 OFFCURVE",
"148 33 CURVE SMOOTH",
"177 61 OFFCURVE",
"204 101 OFFCURVE",
"220 127 CURVE",
"190 22 OFFCURVE",
"237 -4 OFFCURVE",
"270 -2 CURVE SMOOTH",
"330 3 OFFCURVE",
"391 123 OFFCURVE",
"421 184 CURVE SMOOTH"
);
}
);
width = 350;
}
);
note = a;
unicode = 0061;
},
{
glyphname = b;
layers = (
{
hints = (
{
horizontal = 1;
place = "{618, -20}";
target = down;
type = TopGhost;
}
);
layerId = "5266B3E4-A2B0-4CF3-936E-1186C5B63406";
paths = (
{
closed = 1;
nodes = (
"176 441 OFFCURVE",
"44 142 OFFCURVE",
"-24 52 CURVE SMOOTH",
"-30 43 OFFCURVE",
"-24 32 OFFCURVE",
"-16 39 CURVE SMOOTH",
"4 58 OFFCURVE",
"44 130 OFFCURVE",
"90 217 CURVE",
"70 176 OFFCURVE",
"54 138 OFFCURVE",
"46 107 CURVE SMOOTH",
"28 35 OFFCURVE",
"70 -24 OFFCURVE",
"184 7 CURVE SMOOTH",
"268 29 OFFCURVE",
"329 124 OFFCURVE",
"347 208 CURVE SMOOTH",
"360 272 OFFCURVE",
"340 338 OFFCURVE",
"267 349 CURVE SMOOTH",
"222 356 OFFCURVE",
"223 326 OFFCURVE",
"253 329 CURVE SMOOTH",
"316 335 OFFCURVE",
"317 271 OFFCURVE",
"291 205 CURVE SMOOTH",
"274 165 OFFCURVE",
"244 114 OFFCURVE",
"216 81 CURVE SMOOTH",
"181 39 OFFCURVE",
"153 19 OFFCURVE",
"130 24 CURVE SMOOTH",
"62 38 OFFCURVE",
"105 179 OFFCURVE",
"156 280 CURVE SMOOTH",
"223 413 OFFCURVE",
"340 576 OFFCURVE",
"376 614 CURVE",
"362 611 OFFCURVE",
"347 617 OFFCURVE",
"334 618 CURVE SMOOTH",
"329 618 LINE SMOOTH",
"307 619 OFFCURVE",
"286 604 OFFCURVE",
"262 569 CURVE SMOOTH"
);
}
);
width = 345;
}
);
note = b;
unicode = 0062;
},
{
glyphname = c;
layers = (
{
hints = (
{
horizontal = 1;
place = "{-4, 21}";
target = up;
type = BottomGhost;
},
{
horizontal = 1;
place = "{352, -20}";
target = down;
type = TopGhost;
}
);
layerId = "5266B3E4-A2B0-4CF3-936E-1186C5B63406";
paths = (
{
closed = 1;
nodes = (
"347 203 OFFCURVE",
"333 208 OFFCURVE",
"324 190 CURVE SMOOTH",
"284 111 OFFCURVE",
"236 14 OFFCURVE",
"149 14 CURVE SMOOTH",
"106 14 OFFCURVE",
"90 51 OFFCURVE",
"90 91 CURVE SMOOTH",
"90 149 OFFCURVE",
"127 218 OFFCURVE",
"145 244 CURVE SMOOTH",
"173 284 OFFCURVE",
"216 330 OFFCURVE",
"252 330 CURVE SMOOTH",
"271 330 OFFCURVE",
"281 316 OFFCURVE",
"272 281 CURVE SMOOTH",
"267 263 OFFCURVE",
"252 243 OFFCURVE",
"241 230 CURVE",
"263 208 OFFCURVE",
"304 250 OFFCURVE",
"308 283 CURVE SMOOTH",
"313 324 OFFCURVE",
"289 352 OFFCURVE",
"239 352 CURVE SMOOTH",
"191 352 OFFCURVE",
"142 323 OFFCURVE",
"105 273 CURVE SMOOTH",
"33 176 OFFCURVE",
"-19 -4 OFFCURVE",
"139 -4 CURVE SMOOTH",
"249 -4 OFFCURVE",
"289 79 OFFCURVE",
"338 183 CURVE SMOOTH"
);
}
);
width = 260;
}
);
note = c;
unicode = 0063;
},
{
glyphname = d;
layers = (
{
hints = (
{
horizontal = 1;
place = "{0, 21}";
target = up;
type = BottomGhost;
}
);
layerId = "5266B3E4-A2B0-4CF3-936E-1186C5B63406";
paths = (
{
closed = 1;
nodes = (
"537 620 OFFCURVE",
"522 625 OFFCURVE",
"509 626 CURVE SMOOTH",
"477 629 OFFCURVE",
"460 619 OFFCURVE",
"441 574 CURVE SMOOTH",
"417 520 OFFCURVE",
"373 428 OFFCURVE",
"325 337 CURVE",
"253 379 OFFCURVE",
"166 344 OFFCURVE",
"110 279 CURVE SMOOTH",
"37 191 OFFCURVE",
"-18 30 OFFCURVE",
"76 4 CURVE SMOOTH",
"145 -14 OFFCURVE",
"192 66 OFFCURVE",
"222 115 CURVE",
"212 74 OFFCURVE",
"220 44 OFFCURVE",
"231 27 CURVE SMOOTH",
"244 8 OFFCURVE",
"260 0 OFFCURVE",
"276 0 CURVE SMOOTH",
"356 0 OFFCURVE",
"414 130 OFFCURVE",
"438 186 CURVE SMOOTH",
"447 206 OFFCURVE",
"431 210 OFFCURVE",
"423 192 CURVE SMOOTH",
"402 150 OFFCURVE",
"344 26 OFFCURVE",
"294 26 CURVE SMOOTH",
"247 26 OFFCURVE",
"278 110 OFFCURVE",
"288 133 CURVE SMOOTH",
"346 271 OFFCURVE",
"522 594 OFFCURVE",
"552 622 CURVE"
);
},
{
closed = 1;
nodes = (
"270 233 OFFCURVE",
"220 147 OFFCURVE",
"183 95 CURVE SMOOTH",
"98 -25 OFFCURVE",
"38 37 OFFCURVE",
"104 161 CURVE SMOOTH",
"157 259 OFFCURVE",
"267 370 OFFCURVE",
"317 321 CURVE"
);
}
);
width = 367;
}
);
note = d;
unicode = 0064;
},
{
glyphname = e;
layers = (
{
hints = (
{
horizontal = 1;
place = "{-4, 21}";
target = up;
type = BottomGhost;
}
);
layerId = "5266B3E4-A2B0-4CF3-936E-1186C5B63406";
paths = (
{
closed = 1;
nodes = (
"328 208 OFFCURVE",
"308 206 OFFCURVE",
"300 188 CURVE SMOOTH",
"277 135 OFFCURVE",
"223 17 OFFCURVE",
"135 17 CURVE SMOOTH",
"69 17 OFFCURVE",
"86 118 OFFCURVE",
"101 154 CURVE",
"128 154 OFFCURVE",
"193 175 OFFCURVE",
"224 198 CURVE SMOOTH",
"288 247 OFFCURVE",
"317 315 OFFCURVE",
"279 344 CURVE SMOOTH",
"235 377 OFFCURVE",
"159 339 OFFCURVE",
"108 279 CURVE SMOOTH",
"64 227 OFFCURVE",
"30 152 OFFCURVE",
"31 92 CURVE SMOOTH",
"32 29 OFFCURVE",
"77 -4 OFFCURVE",
"127 -4 CURVE SMOOTH",
"238 -4 OFFCURVE",
"281 107 OFFCURVE",
"318 187 CURVE SMOOTH"
);
},
{
closed = 1;
nodes = (
"178 185 OFFCURVE",
"126 171 OFFCURVE",
"108 171 CURVE",
"117 189 OFFCURVE",
"142 233 OFFCURVE",
"168 265 CURVE SMOOTH",
"291 414 OFFCURVE",
"296 284 OFFCURVE",
"214 215 CURVE SMOOTH"
);
}
);
width = 246;
}
);
note = e;
unicode = 0065;
},
{
glyphname = f;
layers = (
{
hints = (
{
horizontal = 1;
place = "{-1, 21}";
target = up;
type = BottomGhost;
},
{
horizontal = 1;
place = "{626, -20}";
target = down;
type = TopGhost;
}
);
layerId = "5266B3E4-A2B0-4CF3-936E-1186C5B63406";
paths = (
{
closed = 1;
nodes = (
"348 619 OFFCURVE",
"331 626 OFFCURVE",
"319 626 CURVE SMOOTH",
"277 626 OFFCURVE",
"256 599 OFFCURVE",
"234 556 CURVE SMOOTH",
"179 453 OFFCURVE",
"101 291 OFFCURVE",
"29 129 CURVE",
"16 131 OFFCURVE",
"3 126 OFFCURVE",
"-7 118 CURVE SMOOTH",
"-26 104 OFFCURVE",
"-35 61 OFFCURVE",
"-14 29 CURVE",
"-73 -110 OFFCURVE",
"-119 -231 OFFCURVE",
"-117 -296 CURVE SMOOTH",
"-116 -336 OFFCURVE",
"-93 -347 OFFCURVE",
"-65 -348 CURVE SMOOTH",
"43 -353 OFFCURVE",
"119 -141 OFFCURVE",
"107 -1 CURVE",
"178 -1 OFFCURVE",
"233 104 OFFCURVE",
"270 188 CURVE SMOOTH",
"277 203 OFFCURVE",
"262 208 OFFCURVE",
"255 195 CURVE SMOOTH",
"222 125 OFFCURVE",
"165 14 OFFCURVE",
"105 18 CURVE",
"102 31 LINE SMOOTH",
"95 66 OFFCURVE",
"83 90 OFFCURVE",
"70 106 CURVE",
"170 331 OFFCURVE",
"300 562 OFFCURVE",
"363 621 CURVE"
);
},
{
closed = 1;
nodes = (
"88 -94 OFFCURVE",
"52 -217 OFFCURVE",
"3 -281 CURVE SMOOTH",
"-36 -333 OFFCURVE",
"-82 -352 OFFCURVE",
"-55 -236 CURVE SMOOTH",
"-39 -170 OFFCURVE",
"-7 -77 OFFCURVE",
"28 11 CURVE",
"41 0 OFFCURVE",
"66 -7 OFFCURVE",
"86 -5 CURVE"
);
},
{
closed = 1;
nodes = (
"78 14 LINE SMOOTH",
"60 14 OFFCURVE",
"44 22 OFFCURVE",
"38 33 CURVE",
"60 83 LINE",
"65 77 OFFCURVE",
"71 68 OFFCURVE",
"75 59 CURVE SMOOTH",
"80 46 OFFCURVE",
"83 31 OFFCURVE",
"84 14 CURVE"
);
}
);
width = 198;
}
);
note = f;
unicode = 0066;
},
{
glyphname = g;
layers = (
{
hints = (
{
horizontal = 1;
place = "{-316, 21}";
target = up;
type = BottomGhost;
}
);
layerId = "5266B3E4-A2B0-4CF3-936E-1186C5B63406";
paths = (
{
closed = 1;
nodes = (
"473 204 OFFCURVE",
"457 210 OFFCURVE",
"448 192 CURVE SMOOTH",
"438 173 OFFCURVE",
"423 130 OFFCURVE",
"390 86 CURVE SMOOTH",
"370 59 OFFCURVE",
"344 38 OFFCURVE",
"320 21 CURVE",
"341 100 OFFCURVE",
"346 184 OFFCURVE",
"333 264 CURVE",
"317 252 OFFCURVE",
"285 270 OFFCURVE",
"271 224 CURVE SMOOTH",
"252 161 OFFCURVE",
"155 8 OFFCURVE",
"96 33 CURVE SMOOTH",
"44 56 OFFCURVE",
"100 177 OFFCURVE",
"173 259 CURVE SMOOTH",
"234 327 OFFCURVE",
"308 367 OFFCURVE",
"334 296 CURVE SMOOTH",
"345 266 OFFCURVE",
"380 296 OFFCURVE",
"345 325 CURVE SMOOTH",
"270 384 OFFCURVE",
"172 350 OFFCURVE",
"113 279 CURVE SMOOTH",
"39 191 OFFCURVE",
"-21 47 OFFCURVE",
"79 4 CURVE",
"159 -20 OFFCURVE",
"239 115 OFFCURVE",
"271 177 CURVE",
"274 166 OFFCURVE",
"274 134 OFFCURVE",
"270 95 CURVE SMOOTH",
"266 55 OFFCURVE",
"259 19 OFFCURVE",
"247 -16 CURVE",
"170 -47 OFFCURVE",
"79 -66 OFFCURVE",
"-19 -124 CURVE SMOOTH",
"-67 -152 OFFCURVE",
"-106 -190 OFFCURVE",
"-106 -239 CURVE SMOOTH",
"-106 -291 OFFCURVE",
"-75 -316 OFFCURVE",
"-12 -316 CURVE SMOOTH",
"133 -316 OFFCURVE",
"265 -138 OFFCURVE",
"309 -12 CURVE",
"383 23 OFFCURVE",
"412 79 OFFCURVE",
"463 184 CURVE SMOOTH"
);
},
{
closed = 1;
nodes = (
"237 -45 LINE",
"223 -79 OFFCURVE",
"204 -112 OFFCURVE",
"180 -146 CURVE SMOOTH",
"152 -183 OFFCURVE",
"121 -219 OFFCURVE",
"90 -244 CURVE SMOOTH",
"66 -262 OFFCURVE",
"7 -296 OFFCURVE",
"-36 -296 CURVE SMOOTH",
"-119 -296 OFFCURVE",
"-83 -196 OFFCURVE",
"-18 -153 CURVE SMOOTH",
"45 -111 OFFCURVE",
"129 -82 OFFCURVE",
"202 -57 CURVE SMOOTH"
);
}
);
width = 392;
}
);
note = g;
unicode = 0067;
},
{
glyphname = h;
layers = (
{
hints = (
{
horizontal = 1;
place = "{-4, 21}";
target = up;
type = BottomGhost;
},
{
horizontal = 1;
place = "{-7, 21}";
target = up;
type = BottomGhost;
},
{
horizontal = 1;
place = "{-1, 21}";
target = up;
type = BottomGhost;
}
);
layerId = "5266B3E4-A2B0-4CF3-936E-1186C5B63406";
paths = (
{
closed = 1;
nodes = (
"412 204 OFFCURVE",
"397 211 OFFCURVE",
"388 193 CURVE SMOOTH",
"367 150 OFFCURVE",
"299 14 OFFCURVE",
"253 17 CURVE SMOOTH",
"240 18 OFFCURVE",
"230 29 OFFCURVE",
"238 70 CURVE SMOOTH",
"251 140 OFFCURVE",
"358 328 OFFCURVE",
"358 328 CURVE",
"324 340 OFFCURVE",
"221 277 OFFCURVE",
"173 234 CURVE SMOOTH",
"146 211 OFFCURVE",
"119 180 OFFCURVE",
"92 146 CURVE",
"174 313 OFFCURVE",
"304 558 OFFCURVE",
"348 603 CURVE",
"334 601 OFFCURVE",
"319 606 OFFCURVE",
"306 607 CURVE SMOOTH",
"274 609 OFFCURVE",
"258 586 OFFCURVE",
"235 544 CURVE SMOOTH",
"138 365 OFFCURVE",
"41 161 OFFCURVE",
"-40 -7 CURVE",
"-30 -1 OFFCURVE",
"-21 -2 OFFCURVE",
"-6 -1 CURVE SMOOTH",
"15 -1 OFFCURVE",
"24 0 OFFCURVE",
"31 14 CURVE SMOOTH",
"88 125 OFFCURVE",
"137 181 OFFCURVE",
"171 212 CURVE SMOOTH",
"248 284 OFFCURVE",
"266 257 OFFCURVE",
"242 218 CURVE SMOOTH",
"214 173 OFFCURVE",
"195 139 OFFCURVE",
"187 113 CURVE SMOOTH",
"157 20 OFFCURVE",
"205 -4 OFFCURVE",
"240 -4 CURVE SMOOTH",
"314 -4 OFFCURVE",
"369 114 OFFCURVE",
"402 183 CURVE SMOOTH"
);
}
);
width = 332;
}
);
note = h;
unicode = 0068;
},
{
glyphname = i;
layers = (
{
hints = (
{
horizontal = 1;
place = "{0, 21}";
target = up;
type = BottomGhost;
},
{
horizontal = 1;
place = "{459, -20}";
target = down;
type = TopGhost;
}
);
layerId = "5266B3E4-A2B0-4CF3-936E-1186C5B63406";
paths = (
{
closed = 1;
nodes = (
"215 441 OFFCURVE",
"199 459 OFFCURVE",
"176 459 CURVE SMOOTH",
"154 459 OFFCURVE",
"132 441 OFFCURVE",
"128 418 CURVE SMOOTH",
"125 395 OFFCURVE",
"140 377 OFFCURVE",
"163 377 CURVE SMOOTH",
"186 377 OFFCURVE",
"207 395 OFFCURVE",
"211 418 CURVE SMOOTH"
);
},
{
closed = 1;
nodes = (
"72 92 OFFCURVE",
"82 114 OFFCURVE",
"82 114 CURVE",
"162 301 LINE SMOOTH",
"173 325 OFFCURVE",
"173 336 OFFCURVE",
"141 336 CURVE SMOOTH",
"86 335 LINE",
"90 330 OFFCURVE",
"104 312 OFFCURVE",
"96 293 CURVE SMOOTH",
"32 130 LINE SMOOTH",
"11 78 OFFCURVE",
"11 0 OFFCURVE",
"86 0 CURVE SMOOTH",
"160 0 OFFCURVE",
"217 127 OFFCURVE",
"243 183 CURVE SMOOTH",
"252 203 OFFCURVE",
"238 210 OFFCURVE",
"230 192 CURVE SMOOTH",
"202 136 OFFCURVE",
"169 74 OFFCURVE",
"136 41 CURVE SMOOTH",
"125 31 OFFCURVE",
"106 20 OFFCURVE",
"91 22 CURVE SMOOTH",
"63 24 OFFCURVE",
"61 52 OFFCURVE",
"70 85 CURVE SMOOTH"
);
}
);
width = 174;
}
);
note = i;
unicode = 0069;
},
{
glyphname = j;
layers = (
{
hints = (
{
horizontal = 1;
place = "{-316, 21}";
target = up;
type = BottomGhost;
},
{
horizontal = 1;
place = "{459, -20}";
target = down;
type = TopGhost;
}
);
layerId = "5266B3E4-A2B0-4CF3-936E-1186C5B63406";
paths = (
{
closed = 1;
nodes = (
"42 127 OFFCURVE",
"13 66 OFFCURVE",
"-11 18 CURVE SMOOTH",
"-20 -1 OFFCURVE",
"-32 -21 OFFCURVE",
"-43 -40 CURVE",
"-124 -63 OFFCURVE",
"-219 -80 OFFCURVE",
"-286 -112 CURVE SMOOTH",
"-325 -130 OFFCURVE",
"-361 -157 OFFCURVE",
"-380 -194 CURVE SMOOTH",
"-410 -250 OFFCURVE",
"-400 -316 OFFCURVE",
"-300 -316 CURVE SMOOTH",
"-152 -316 OFFCURVE",
"-53 -163 OFFCURVE",
"10 -50 CURVE",
"154 2 OFFCURVE",
"180 45 OFFCURVE",
"248 184 CURVE SMOOTH",
"258 204 OFFCURVE",
"243 211 OFFCURVE",
"234 193 CURVE SMOOTH",
"224 174 OFFCURVE",
"206 133 OFFCURVE",
"174 86 CURVE SMOOTH",
"129 20 OFFCURVE",
"87 5 OFFCURVE",
"27 -18 CURVE",
"49 26 OFFCURVE",
"70 70 OFFCURVE",
"89 114 CURVE SMOOTH",
"169 301 LINE SMOOTH",
"180 325 OFFCURVE",
"180 336 OFFCURVE",
"148 336 CURVE SMOOTH",
"93 335 LINE",
"97 330 OFFCURVE",
"112 311 OFFCURVE",
"103 293 CURVE SMOOTH",
"50 178 LINE SMOOTH",
"44 165 OFFCURVE",
"53 162 OFFCURVE",
"59 162 CURVE"
);
},
{
closed = 1;
nodes = (
"-69 -85 OFFCURVE",
"-76 -98 OFFCURVE",
"-84 -109 CURVE SMOOTH",
"-129 -172 OFFCURVE",
"-236 -296 OFFCURVE",
"-324 -296 CURVE SMOOTH",
"-409 -296 OFFCURVE",
"-372 -178 OFFCURVE",
"-269 -134 CURVE SMOOTH",
"-212 -109 OFFCURVE",
"-126 -89 OFFCURVE",
"-62 -72 CURVE"
);
},
{
closed = 1;
nodes = (
"215 441 OFFCURVE",
"199 459 OFFCURVE",
"176 459 CURVE SMOOTH",
"154 459 OFFCURVE",
"132 441 OFFCURVE",
"128 418 CURVE SMOOTH",
"125 395 OFFCURVE",
"140 377 OFFCURVE",
"163 377 CURVE SMOOTH",
"186 377 OFFCURVE",
"207 395 OFFCURVE",
"211 418 CURVE SMOOTH"
);
}
);
width = 177;
}
);
note = j;
unicode = 006A;
},
{
glyphname = k;
layers = (
{
hints = (
{
horizontal = 1;
place = "{0, 21}";
target = up;
type = BottomGhost;
},
{
horizontal = 1;
place = "{618, -20}";
target = down;
type = TopGhost;
}
);
layerId = "5266B3E4-A2B0-4CF3-936E-1186C5B63406";
paths = (
{
closed = 1;
nodes = (
"176 441 OFFCURVE",
"44 142 OFFCURVE",
"-24 52 CURVE SMOOTH",
"-30 43 OFFCURVE",
"-24 32 OFFCURVE",
"-16 39 CURVE SMOOTH",
"4 58 OFFCURVE",
"44 130 OFFCURVE",
"90 217 CURVE",
"60 148 OFFCURVE",
"26 91 OFFCURVE",
"8 22 CURVE SMOOTH",
"4 9 OFFCURVE",
"2 0 OFFCURVE",
"16 0 CURVE SMOOTH",
"79 0 LINE",
"62 14 OFFCURVE",
"89 122 OFFCURVE",
"107 156 CURVE",
"134 194 OFFCURVE",
"163 224 OFFCURVE",
"189 247 CURVE SMOOTH",
"304 345 OFFCURVE",
"348 275 OFFCURVE",
"285 224 CURVE SMOOTH",
"262 205 OFFCURVE",
"228 192 OFFCURVE",
"206 194 CURVE",
"184 192 OFFCURVE",
"147 144 OFFCURVE",
"159 79 CURVE SMOOTH",
"169 27 OFFCURVE",
"200 -2 OFFCURVE",
"236 -6 CURVE SMOOTH",
"294 -12 OFFCURVE",
"356 4 OFFCURVE",
"435 186 CURVE SMOOTH",
"442 202 OFFCURVE",
"430 211 OFFCURVE",
"422 195 CURVE SMOOTH",
"394 137 OFFCURVE",
"366 85 OFFCURVE",
"341 58 CURVE SMOOTH",
"249 -40 OFFCURVE",
"185 85 OFFCURVE",
"223 178 CURVE",
"267 182 OFFCURVE",
"294 196 OFFCURVE",
"324 217 CURVE SMOOTH",
"400 271 OFFCURVE",
"412 383 OFFCURVE",
"283 335 CURVE SMOOTH",
"225 313 OFFCURVE",
"162 247 OFFCURVE",
"120 195 CURVE",
"130 225 OFFCURVE",
"143 254 OFFCURVE",
"156 280 CURVE SMOOTH",
"223 413 OFFCURVE",
"325 575 OFFCURVE",
"376 614 CURVE",
"362 611 OFFCURVE",
"347 617 OFFCURVE",
"334 618 CURVE SMOOTH",
"329 618 LINE SMOOTH",
"307 619 OFFCURVE",
"286 604 OFFCURVE",
"262 569 CURVE SMOOTH"
);
}
);
width = 363;
}
);
note = k;
unicode = 006B;
},
{
glyphname = l;
layers = (
{
hints = (
{
horizontal = 1;
place = "{-2, 21}";
target = up;
type = BottomGhost;
}
);
layerId = "5266B3E4-A2B0-4CF3-936E-1186C5B63406";
paths = (
{
closed = 1;
nodes = (
"389 653 OFFCURVE",
"281 667 OFFCURVE",
"210 548 CURVE SMOOTH",
"152 451 OFFCURVE",
"89 307 OFFCURVE",
"58 195 CURVE SMOOTH",
"41 135 OFFCURVE",
"-7 -2 OFFCURVE",
"105 -2 CURVE SMOOTH",
"206 -2 OFFCURVE",
"258 133 OFFCURVE",
"283 186 CURVE SMOOTH",
"292 206 OFFCURVE",
"277 208 OFFCURVE",
"268 191 CURVE SMOOTH",
"255 165 OFFCURVE",
"227 111 OFFCURVE",
"194 64 CURVE SMOOTH",
"141 -10 OFFCURVE",
"61 7 OFFCURVE",
"91 127 CURVE SMOOTH",
"97 152 OFFCURVE",
"107 176 OFFCURVE",
"112 193 CURVE",
"210 282 OFFCURVE",
"271 390 OFFCURVE",
"317 493 CURVE SMOOTH"
);
},
{
closed = 1;
nodes = (
"263 415 OFFCURVE",
"191 297 OFFCURVE",
"120 225 CURVE",
"151 305 OFFCURVE",
"229 484 OFFCURVE",
"278 553 CURVE SMOOTH",
"332 630 OFFCURVE",
"322 554 OFFCURVE",
"302 508 CURVE SMOOTH"
);
}
);
width = 212;
}
);
note = l;
unicode = 006C;
},
{
glyphname = m;
layers = (
{
hints = (
{
horizontal = 1;
place = "{-5, 21}";
target = up;
type = BottomGhost;
},
{
horizontal = 1;
place = "{-4, 21}";
target = up;
type = BottomGhost;
},
{
horizontal = 1;
place = "{0, 21}";
target = up;
type = BottomGhost;
}
);
layerId = "5266B3E4-A2B0-4CF3-936E-1186C5B63406";
paths = (
{
closed = 1;
nodes = (
"588 204 OFFCURVE",
"572 211 OFFCURVE",
"564 193 CURVE SMOOTH",
"543 147 OFFCURVE",
"479 20 OFFCURVE",
"427 20 CURVE SMOOTH",
"414 20 OFFCURVE",
"403 29 OFFCURVE",
"410 70 CURVE SMOOTH",
"424 140 OFFCURVE",
"530 328 OFFCURVE",
"530 328 CURVE",
"497 340 OFFCURVE",
"393 277 OFFCURVE",
"345 234 CURVE SMOOTH",
"315 207 OFFCURVE",
"282 169 OFFCURVE",
"262 144 CURVE",
"286 193 OFFCURVE",
"317 242 OFFCURVE",
"335 284 CURVE SMOOTH",
"344 304 OFFCURVE",
"338 321 OFFCURVE",
"320 328 CURVE SMOOTH",
"286 340 OFFCURVE",
"222 277 OFFCURVE",
"174 234 CURVE SMOOTH",
"143 207 OFFCURVE",
"111 169 OFFCURVE",
"91 144 CURVE",
"127 216 OFFCURVE",
"182 316 OFFCURVE",
"212 332 CURVE",
"198 329 OFFCURVE",
"183 335 OFFCURVE",
"170 336 CURVE SMOOTH",
"138 338 OFFCURVE",
"125 321 OFFCURVE",
"99 273 CURVE SMOOTH",
"50 183 OFFCURVE",
"11 90 OFFCURVE",
"-37 -5 CURVE",
"-27 1 OFFCURVE",
"-18 0 OFFCURVE",
"-4 1 CURVE SMOOTH",
"18 1 OFFCURVE",
"27 2 OFFCURVE",
"34 17 CURVE SMOOTH",
"91 127 OFFCURVE",
"138 181 OFFCURVE",
"172 212 CURVE SMOOTH",
"277 310 OFFCURVE",
"245 237 OFFCURVE",
"212 169 CURVE SMOOTH",
"195 132 OFFCURVE",
"177 99 OFFCURVE",
"170 55 CURVE SMOOTH",
"165 26 OFFCURVE",
"179 0 OFFCURVE",
"202 0 CURVE",
"215 60 OFFCURVE",
"300 172 OFFCURVE",
"343 212 CURVE SMOOTH",
"420 284 OFFCURVE",
"438 257 OFFCURVE",
"414 218 CURVE SMOOTH",
"386 173 OFFCURVE",
"367 139 OFFCURVE",
"359 113 CURVE SMOOTH",
"329 20 OFFCURVE",
"377 -4 OFFCURVE",
"413 -4 CURVE SMOOTH",
"489 -4 OFFCURVE",
"548 123 OFFCURVE",
"578 184 CURVE SMOOTH"
);
}
);
width = 507;
}
);
note = m;
unicode = 006D;
},
{
glyphname = n;
layers = (
{
hints = (
{
horizontal = 1;
place = "{-1, 21}";
target = up;
type = BottomGhost;
},
{
horizontal = 1;
place = "{-7, 21}";
target = up;
type = BottomGhost;
},
{
horizontal = 1;
place = "{-4, 21}";
target = up;
type = BottomGhost;
}
);
layerId = "5266B3E4-A2B0-4CF3-936E-1186C5B63406";
paths = (
{
closed = 1;
nodes = (
"416 204 OFFCURVE",
"400 211 OFFCURVE",
"392 193 CURVE SMOOTH",
"371 151 OFFCURVE",
"307 20 OFFCURVE",
"255 20 CURVE SMOOTH",
"242 20 OFFCURVE",
"231 29 OFFCURVE",
"239 70 CURVE SMOOTH",
"252 140 OFFCURVE",
"359 328 OFFCURVE",
"359 328 CURVE",
"325 340 OFFCURVE",
"222 277 OFFCURVE",
"174 234 CURVE SMOOTH",
"143 207 OFFCURVE",
"111 169 OFFCURVE",
"91 144 CURVE",
"127 216 OFFCURVE",
"182 316 OFFCURVE",
"212 332 CURVE",
"198 329 OFFCURVE",
"183 335 OFFCURVE",
"170 336 CURVE SMOOTH",
"138 338 OFFCURVE",
"125 321 OFFCURVE",
"99 273 CURVE SMOOTH",
"50 183 OFFCURVE",
"9 88 OFFCURVE",
"-39 -7 CURVE",
"-29 -1 OFFCURVE",
"-20 -2 OFFCURVE",
"-5 -1 CURVE SMOOTH",
"16 -1 OFFCURVE",
"25 0 OFFCURVE",
"33 14 CURVE SMOOTH",
"89 125 OFFCURVE",
"138 181 OFFCURVE",
"172 212 CURVE SMOOTH",
"249 284 OFFCURVE",
"267 257 OFFCURVE",
"243 218 CURVE SMOOTH",
"215 173 OFFCURVE",
"196 139 OFFCURVE",
"188 113 CURVE SMOOTH",
"158 20 OFFCURVE",
"206 -4 OFFCURVE",
"241 -4 CURVE SMOOTH",
"318 -4 OFFCURVE",
"376 123 OFFCURVE",
"406 184 CURVE SMOOTH"
);
}
);
width = 335;
}
);
note = n;
unicode = 006E;
},
{
glyphname = o;
layers = (
{
layerId = "5266B3E4-A2B0-4CF3-936E-1186C5B63406";
paths = (
{
closed = 1;
nodes = (
"415 203 OFFCURVE",
"398 207 OFFCURVE",
"393 197 CURVE SMOOTH",
"369 149 OFFCURVE",
"317 25 OFFCURVE",
"253 25 CURVE SMOOTH",
"229 25 OFFCURVE",
"214 35 OFFCURVE",
"206 50 CURVE",
"244 86 OFFCURVE",
"275 133 OFFCURVE",
"290 168 CURVE SMOOTH",
"328 257 OFFCURVE",
"317 349 OFFCURVE",
"241 350 CURVE SMOOTH",
"173 352 OFFCURVE",
"90 274 OFFCURVE",
"51 182 CURVE SMOOTH",
"13 93 OFFCURVE",
"24 2 OFFCURVE",
"100 0 CURVE SMOOTH",
"129 -1 OFFCURVE",
"159 13 OFFCURVE",
"187 34 CURVE",
"200 19 OFFCURVE",
"221 8 OFFCURVE",
"251 8 CURVE SMOOTH",
"335 8 OFFCURVE",
"391 150 OFFCURVE",
"408 188 CURVE SMOOTH"
);
},
{
closed = 1;
nodes = (
"298 306 OFFCURVE",
"293 235 OFFCURVE",
"254 153 CURVE SMOOTH",
"245 134 OFFCURVE",
"234 115 OFFCURVE",
"223 99 CURVE",
"224 103 OFFCURVE",
"225 106 OFFCURVE",
"225 110 CURVE SMOOTH",
"225 126 OFFCURVE",
"212 140 OFFCURVE",
"195 140 CURVE SMOOTH",
"170 140 OFFCURVE",
"161 120 OFFCURVE",
"160 97 CURVE SMOOTH",
"160 82 OFFCURVE",
"165 64 OFFCURVE",
"176 48 CURVE",
"152 28 OFFCURVE",
"127 18 OFFCURVE",
"108 23 CURVE SMOOTH",
"72 34 OFFCURVE",
"81 104 OFFCURVE",
"120 186 CURVE SMOOTH",
"157 265 OFFCURVE",
"219 329 OFFCURVE",
"262 317 CURVE SMOOTH"
);
}
);
width = 335;
}
);
note = o;
unicode = 006F;
},
{
glyphname = p;
layers = (
{
layerId = "5266B3E4-A2B0-4CF3-936E-1186C5B63406";
paths = (
{
closed = 1;
nodes = (
"239 369 OFFCURVE",
"158 231 OFFCURVE",
"128 182 CURVE",
"141 216 OFFCURVE",
"155 269 OFFCURVE",
"156 302 CURVE SMOOTH",
"158 351 OFFCURVE",
"149 346 OFFCURVE",
"120 343 CURVE SMOOTH",
"112 342 OFFCURVE",
"71 335 OFFCURVE",
"71 335 CURVE",
"95 330 OFFCURVE",
"84 254 OFFCURVE",
"65 210 CURVE SMOOTH",
"60 198 OFFCURVE",
"50 175 OFFCURVE",
"45 165 CURVE SMOOTH",
"38 151 OFFCURVE",
"57 157 OFFCURVE",
"68 174 CURVE",
"50 83 OFFCURVE",
"-120 -242 OFFCURVE",
"-145 -266 CURVE",
"-131 -264 OFFCURVE",
"-116 -270 OFFCURVE",
"-103 -271 CURVE SMOOTH",
"-70 -273 OFFCURVE",
"-56 -262 OFFCURVE",
"-36 -219 CURVE",
"59 18 LINE",
"130 -24 OFFCURVE",
"218 10 OFFCURVE",
"273 76 CURVE SMOOTH",
"346 164 OFFCURVE",
"402 324 OFFCURVE",
"307 350 CURVE SMOOTH"
);
},
{
closed = 1;
nodes = (
"226 95 OFFCURVE",
"116 -16 OFFCURVE",
"67 33 CURVE",
"114 121 OFFCURVE",
"163 208 OFFCURVE",
"201 260 CURVE SMOOTH",
"286 379 OFFCURVE",
"346 317 OFFCURVE",
"280 194 CURVE SMOOTH"
);
}
);
width = 336;
}
);
note = p;
unicode = 0070;
},
{
glyphname = q;
layers = (
{
hints = (
{
horizontal = 1;
place = "{-287, 21}";
target = up;
type = BottomGhost;
}
);
layerId = "5266B3E4-A2B0-4CF3-936E-1186C5B63406";
paths = (
{
closed = 1;
nodes = (
"352 251 OFFCURVE",
"336 257 OFFCURVE",
"324 257 CURVE SMOOTH",
"298 259 OFFCURVE",
"289 251 OFFCURVE",
"263 207 CURVE SMOOTH",
"237 165 OFFCURVE",
"149 10 OFFCURVE",
"96 33 CURVE SMOOTH",
"1 75 OFFCURVE",
"277 451 OFFCURVE",
"334 296 CURVE SMOOTH",
"345 266 OFFCURVE",
"380 296 OFFCURVE",
"344 325 CURVE SMOOTH",
"270 384 OFFCURVE",
"172 350 OFFCURVE",
"113 279 CURVE SMOOTH",
"39 191 OFFCURVE",
"-21 47 OFFCURVE",
"78 4 CURVE",
"121 -9 OFFCURVE",
"161 23 OFFCURVE",
"189 56 CURVE SMOOTH",
"198 68 OFFCURVE",
"253 147 OFFCURVE",
"259 158 CURVE",
"217 64 OFFCURVE",
"189 25 OFFCURVE",
"108 -162 CURVE SMOOTH",
"88 -206 OFFCURVE",
"80 -233 OFFCURVE",
"102 -257 CURVE SMOOTH",
"110 -266 OFFCURVE",
"124 -275 OFFCURVE",
"131 -287 CURVE",
"140 -225 OFFCURVE",
"289 135 OFFCURVE",
"366 253 CURVE"
);
}
);
width = 342;
}
);
note = q;
unicode = 0071;
},
{
glyphname = r;
layers = (
{
layerId = "5266B3E4-A2B0-4CF3-936E-1186C5B63406";
paths = (
{
closed = 1;
nodes = (
"340 203 OFFCURVE",
"327 210 OFFCURVE",
"318 193 CURVE SMOOTH",
"297 150 OFFCURVE",
"235 25 OFFCURVE",
"194 26 CURVE SMOOTH",
"134 29 OFFCURVE",
"236 212 OFFCURVE",
"251 243 CURVE SMOOTH",
"263 268 OFFCURVE",
"279 306 OFFCURVE",
"272 320 CURVE",
"223 315 OFFCURVE",
"171 314 OFFCURVE",
"134 316 CURVE",
"151 328 OFFCURVE",
"183 355 OFFCURVE",
"189 383 CURVE SMOOTH",
"203 450 OFFCURVE",
"138 475 OFFCURVE",
"128 419 CURVE SMOOTH",
"108 307 OFFCURVE",
"53 156 OFFCURVE",
"-26 52 CURVE SMOOTH",
"-32 43 OFFCURVE",
"-26 32 OFFCURVE",
"-18 39 CURVE SMOOTH",
"31 86 OFFCURVE",
"79 197 OFFCURVE",
"103 260 CURVE SMOOTH",
"115 292 LINE",
"171 291 OFFCURVE",
"206 278 OFFCURVE",
"192 245 CURVE SMOOTH",
"181 220 OFFCURVE",
"145 168 OFFCURVE",
"130 127 CURVE SMOOTH",
"90 23 OFFCURVE",
"151 -7 OFFCURVE",
"185 1 CURVE SMOOTH",
"250 17 OFFCURVE",
"301 123 OFFCURVE",
"330 183 CURVE SMOOTH"
);
}
);
width = 260;
}
);
note = r;
unicode = 0072;
},
{
glyphname = s;
layers = (
{
hints = (
{
horizontal = 1;
place = "{-4, 21}";
target = up;
type = BottomGhost;
},
{
place = "{152, 61}";
type = Stem;
}
);
layerId = "5266B3E4-A2B0-4CF3-936E-1186C5B63406";
paths = (
{
closed = 1;
nodes = (
"334 199 OFFCURVE",
"319 205 OFFCURVE",
"314 195 CURVE SMOOTH",
"293 154 OFFCURVE",
"262 92 OFFCURVE",
"239 64 CURVE SMOOTH",
"214 34 OFFCURVE",
"183 13 OFFCURVE",
"149 18 CURVE SMOOTH",
"142 19 LINE",
"181 45 OFFCURVE",
"211 91 OFFCURVE",
"213 130 CURVE SMOOTH",
"215 174 OFFCURVE",
"193 210 OFFCURVE",
"177 248 CURVE SMOOTH",
"162 284 OFFCURVE",
"152 353 OFFCURVE",
"198 375 CURVE SMOOTH",
"208 380 OFFCURVE",
"220 378 OFFCURVE",
"230 374 CURVE SMOOTH",
"248 365 OFFCURVE",
"252 382 OFFCURVE",
"234 391 CURVE SMOOTH",
"224 396 OFFCURVE",
"212 398 OFFCURVE",
"197 396 CURVE SMOOTH",
"162 391 OFFCURVE",
"132 349 OFFCURVE",
"114 310 CURVE SMOOTH",
"88 253 OFFCURVE",
"55 188 OFFCURVE",
"28 137 CURVE",
"-20 135 OFFCURVE",
"-43 -4 OFFCURVE",
"78 -4 CURVE SMOOTH",
"91 -4 OFFCURVE",
"105 0 OFFCURVE",
"119 6 CURVE",
"232 -28 OFFCURVE",
"292 106 OFFCURVE",
"329 189 CURVE SMOOTH"
);
},
{
closed = 1;
nodes = (
"149 77 OFFCURVE",
"130 43 OFFCURVE",
"108 26 CURVE",
"85 37 OFFCURVE",
"64 65 OFFCURVE",
"66 103 CURVE SMOOTH",
"67 136 OFFCURVE",
"45 135 OFFCURVE",
"45 135 CURVE",
"69 179 OFFCURVE",
"112 266 OFFCURVE",
"139 320 CURVE",
"131 275 OFFCURVE",
"155 193 OFFCURVE",
"152 130 CURVE SMOOTH"
);
},
{
closed = 1;
nodes = (
"85 14 OFFCURVE",
"78 13 OFFCURVE",
"71 13 CURVE SMOOTH",
"32 13 OFFCURVE",
"19 60 OFFCURVE",
"51 92 CURVE",
"53 54 OFFCURVE",
"70 30 OFFCURVE",
"91 17 CURVE"
);
}
);
width = 256;
}
);
note = s;
unicode = 0073;
},
{
glyphname = t;
layers = (
{
layerId = "5266B3E4-A2B0-4CF3-936E-1186C5B63406";
paths = (
{
closed = 1;
nodes = (
"255 380 LINE",
"270 408 OFFCURVE",
"284 436 OFFCURVE",
"298 466 CURVE SMOOTH",
"372 626 OFFCURVE",
"264 643 OFFCURVE",
"195 522 CURVE SMOOTH",
"170 479 OFFCURVE",
"145 430 OFFCURVE",
"122 380 CURVE",
"62 380 LINE SMOOTH",
"51 380 OFFCURVE",
"49 358 OFFCURVE",
"60 358 CURVE SMOOTH",
"112 358 LINE",
"80 280 OFFCURVE",
"43 171 OFFCURVE",
"34 103 CURVE SMOOTH",
"19 -7 OFFCURVE",
"118 -24 OFFCURVE",
"172 28 CURVE SMOOTH",
"209 65 OFFCURVE",
"226 92 OFFCURVE",
"270 184 CURVE SMOOTH",
"280 204 OFFCURVE",
"265 208 OFFCURVE",
"257 190 CURVE SMOOTH",
"230 136 OFFCURVE",
"197 73 OFFCURVE",
"151 39 CURVE SMOOTH",
"118 15 OFFCURVE",
"72 24 OFFCURVE",
"87 91 CURVE",
"87 91 OFFCURVE",
"101 167 OFFCURVE",
"110 193 CURVE",
"169 247 OFFCURVE",
"209 300 OFFCURVE",
"243 358 CURVE",
"301 358 LINE SMOOTH",
"311 358 OFFCURVE",
"313 380 OFFCURVE",
"303 380 CURVE SMOOTH"
);
},
{
closed = 1;
nodes = (
"269 449 OFFCURVE",
"252 414 OFFCURVE",
"233 380 CURVE",
"183 380 LINE",
"208 437 OFFCURVE",
"230 492 OFFCURVE",
"254 526 CURVE SMOOTH",
"316 613 OFFCURVE",
"302 524 OFFCURVE",
"283 482 CURVE SMOOTH"
);
},
{
closed = 1;
nodes = (
"220 358 LINE",
"191 310 OFFCURVE",
"157 264 OFFCURVE",
"119 225 CURVE",
"133 260 OFFCURVE",
"152 309 OFFCURVE",
"173 358 CURVE"
);
}
);
width = 200;
}
);
note = t;
unicode = 0074;
},
{
glyphname = u;
layers = (
{
hints = (
{
horizontal = 1;
place = "{344, -20}";
target = down;
type = TopGhost;
}
);
layerId = "5266B3E4-A2B0-4CF3-936E-1186C5B63406";
paths = (
{
closed = 1;
nodes = (
"438 204 OFFCURVE",
"422 211 OFFCURVE",
"414 193 CURVE SMOOTH",
"380 121 OFFCURVE",
"330 26 OFFCURVE",
"281 26 CURVE SMOOTH",
"267 27 OFFCURVE",
"253 43 OFFCURVE",
"262 86 CURVE SMOOTH",
"268 120 OFFCURVE",
"301 189 OFFCURVE",
"329 245 CURVE SMOOTH",
"359 307 OFFCURVE",
"369 321 OFFCURVE",
"398 344 CURVE",
"344 344 LINE SMOOTH",
"325 344 OFFCURVE",
"313 339 OFFCURVE",
"305 323 CURVE SMOOTH",
"267 244 OFFCURVE",
"212 127 OFFCURVE",
"156 62 CURVE SMOOTH",
"91 -13 OFFCURVE",
"49 27 OFFCURVE",
"97 131 CURVE SMOOTH",
"115 169 OFFCURVE",
"160 260 OFFCURVE",
"160 260 CURVE",
"187 315 OFFCURVE",
"201 327 OFFCURVE",
"224 344 CURVE",
"163 344 LINE SMOOTH",
"144 344 OFFCURVE",
"132 339 OFFCURVE",
"124 323 CURVE SMOOTH",
"109 292 OFFCURVE",
"88 251 OFFCURVE",
"68 213 CURVE SMOOTH",
"50 178 LINE SMOOTH",
"44 165 OFFCURVE",
"53 162 OFFCURVE",
"59 162 CURVE",
"41 126 OFFCURVE",
"16 89 OFFCURVE",
"25 46 CURVE SMOOTH",
"33 8 OFFCURVE",
"68 1 OFFCURVE",
"88 1 CURVE SMOOTH",
"137 1 OFFCURVE",
"189 69 OFFCURVE",
"223 129 CURVE",
"197 48 OFFCURVE",
"224 1 OFFCURVE",
"269 1 CURVE SMOOTH",
"342 1 OFFCURVE",
"396 116 OFFCURVE",
"428 184 CURVE SMOOTH"
);
}
);
width = 357;
}
);
note = u;
unicode = 0075;
},
{
glyphname = v;
layers = (
{
layerId = "5266B3E4-A2B0-4CF3-936E-1186C5B63406";
paths = (
{
closed = 1;
nodes = (
"339 380 OFFCURVE",
"263 380 OFFCURVE",
"235 291 CURVE SMOOTH",
"226 264 OFFCURVE",
"229 222 OFFCURVE",
"243 191 CURVE",
"203 92 OFFCURVE",
"149 8 OFFCURVE",
"101 29 CURVE SMOOTH",
"75 41 OFFCURVE",
"100 115 OFFCURVE",
"125 181 CURVE SMOOTH",
"138 214 OFFCURVE",
"153 269 OFFCURVE",
"154 302 CURVE SMOOTH",
"156 351 OFFCURVE",
"147 346 OFFCURVE",
"118 343 CURVE SMOOTH",
"110 342 OFFCURVE",
"69 335 OFFCURVE",
"69 335 CURVE",
"96 328 OFFCURVE",
"86 250 OFFCURVE",
"66 211 CURVE SMOOTH",
"48 177 LINE SMOOTH",
"42 163 OFFCURVE",
"55 157 OFFCURVE",
"66 174 CURVE",
"38 97 OFFCURVE",
"13 7 OFFCURVE",
"73 -5 CURVE SMOOTH",
"211 -33 OFFCURVE",
"295 259 OFFCURVE",
"318 331 CURVE",
"318 333 OFFCURVE",
"319 335 OFFCURVE",
"320 336 CURVE"
);
}
);
width = 262;
}
);
note = v;
unicode = 0076;
},
{
glyphname = w;
layers = (
{
hints = (
{
horizontal = 1;
place = "{0, 21}";
target = up;
type = BottomGhost;
}
);
layerId = "5266B3E4-A2B0-4CF3-936E-1186C5B63406";
paths = (
{
closed = 1;
nodes = (
"518 380 OFFCURVE",
"446 381 OFFCURVE",
"420 292 CURVE SMOOTH",
"412 265 OFFCURVE",
"414 223 OFFCURVE",
"428 192 CURVE",
"390 96 OFFCURVE",
"338 14 OFFCURVE",
"281 18 CURVE SMOOTH",
"217 22 OFFCURVE",
"290 177 OFFCURVE",
"302 202 CURVE SMOOTH",
"328 257 OFFCURVE",
"336 272 OFFCURVE",
"357 307 CURVE SMOOTH",
"369 328 OFFCURVE",
"389 336 OFFCURVE",
"397 344 CURVE",
"336 344 LINE SMOOTH",
"318 344 OFFCURVE",
"305 339 OFFCURVE",
"298 323 CURVE SMOOTH",
"275 275 OFFCURVE",
"197 101 OFFCURVE",
"136 42 CURVE SMOOTH",
"86 -6 OFFCURVE",
"54 38 OFFCURVE",
"97 131 CURVE SMOOTH",
"115 169 OFFCURVE",
"160 260 OFFCURVE",
"160 260 CURVE",
"187 315 OFFCURVE",
"201 327 OFFCURVE",
"224 344 CURVE",
"163 344 LINE SMOOTH",
"144 344 OFFCURVE",
"132 339 OFFCURVE",
"124 323 CURVE SMOOTH",
"109 292 OFFCURVE",
"88 252 OFFCURVE",
"68 213 CURVE SMOOTH",
"50 178 LINE SMOOTH",
"44 165 OFFCURVE",
"53 162 OFFCURVE",
"59 162 CURVE",
"41 126 OFFCURVE",
"16 89 OFFCURVE",
"25 46 CURVE SMOOTH",
"31 17 OFFCURVE",
"59 0 OFFCURVE",
"87 0 CURVE SMOOTH",
"142 0 OFFCURVE",
"197 93 OFFCURVE",
"220 135 CURVE",
"207 92 OFFCURVE",
"201 12 OFFCURVE",
"255 0 CURVE SMOOTH",
"400 -31 OFFCURVE",
"477 262 OFFCURVE",
"498 332 CURVE",
"498 334 OFFCURVE",
"499 336 OFFCURVE",
"500 337 CURVE"
);
}
);
width = 476;
}
);
note = w;
unicode = 0077;
},
{
glyphname = x;
layers = (
{
hints = (
{
horizontal = 1;
place = "{0, 21}";
target = up;
type = BottomGhost;
}
);
layerId = "5266B3E4-A2B0-4CF3-936E-1186C5B63406";
paths = (
{
closed = 1;
nodes = (
"412 201 OFFCURVE",
"400 211 OFFCURVE",
"390 192 CURVE SMOOTH",
"352 119 OFFCURVE",
"303 11 OFFCURVE",
"239 25 CURVE SMOOTH",
"214 30 OFFCURVE",
"202 76 OFFCURVE",
"212 134 CURVE",
"233 198 OFFCURVE",
"280 270 OFFCURVE",
"320 308 CURVE",
"323 298 OFFCURVE",
"332 291 OFFCURVE",
"345 291 CURVE SMOOTH",
"363 291 OFFCURVE",
"381 305 OFFCURVE",
"385 323 CURVE SMOOTH",
"391 350 OFFCURVE",
"367 358 OFFCURVE",
"345 353 CURVE SMOOTH",
"316 345 OFFCURVE",
"261 276 OFFCURVE",
"226 209 CURVE",
"237 265 OFFCURVE",
"240 329 OFFCURVE",
"186 335 CURVE SMOOTH",
"167 337 OFFCURVE",
"148 327 OFFCURVE",
"130 312 CURVE SMOOTH",
"104 288 OFFCURVE",
"63 204 OFFCURVE",
"44 164 CURVE SMOOTH",
"34 143 OFFCURVE",
"44 135 OFFCURVE",
"53 151 CURVE SMOOTH",
"65 172 OFFCURVE",
"103 246 OFFCURVE",
"115 266 CURVE SMOOTH",
"153 328 OFFCURVE",
"180 312 OFFCURVE",
"180 281 CURVE SMOOTH",
"181 256 OFFCURVE",
"176 232 OFFCURVE",
"171 205 CURVE",
"143 113 OFFCURVE",
"77 15 OFFCURVE",
"37 -4 CURVE SMOOTH",
"15 -14 OFFCURVE",
"-3 -14 OFFCURVE",
"-14 -4 CURVE SMOOTH",
"-23 6 OFFCURVE",
"-40 -10 OFFCURVE",
"-31 -20 CURVE SMOOTH",
"-11 -40 OFFCURVE",
"20 -36 OFFCURVE",
"44 -24 CURVE SMOOTH",
"80 -7 OFFCURVE",
"125 52 OFFCURVE",
"159 118 CURVE",
"158 112 OFFCURVE",
"158 105 OFFCURVE",
"158 98 CURVE SMOOTH",
"156 54 OFFCURVE",
"181 0 OFFCURVE",
"231 0 CURVE SMOOTH",
"327 0 OFFCURVE",
"372 121 OFFCURVE",
"405 187 CURVE SMOOTH"
);
}
);
width = 333;
}
);
note = x;
unicode = 0078;
},
{
glyphname = y;
layers = (
{
hints = (
{
horizontal = 1;
place = "{-316, 21}";
target = up;
type = BottomGhost;
},
{
horizontal = 1;
place = "{344, -20}";
target = down;
type = TopGhost;
}
);
layerId = "5266B3E4-A2B0-4CF3-936E-1186C5B63406";
paths = (
{
closed = 1;
nodes = (
"479 202 OFFCURVE",
"464 209 OFFCURVE",
"455 191 CURVE SMOOTH",
"445 172 OFFCURVE",
"423 126 OFFCURVE",
"392 81 CURVE SMOOTH",
"353 25 OFFCURVE",
"292 -5 OFFCURVE",
"248 -18 CURVE",
"277 61 OFFCURVE",
"303 144 OFFCURVE",
"328 211 CURVE SMOOTH",
"353 278 OFFCURVE",
"368 318 OFFCURVE",
"406 344 CURVE",
"352 344 LINE SMOOTH",
"333 344 OFFCURVE",
"321 339 OFFCURVE",
"313 323 CURVE SMOOTH",
"275 244 OFFCURVE",
"212 127 OFFCURVE",
"156 62 CURVE SMOOTH",
"91 -13 OFFCURVE",
"49 27 OFFCURVE",
"97 131 CURVE SMOOTH",
"125 191 OFFCURVE",
"153 250 OFFCURVE",
"187 308 CURVE SMOOTH",
"199 329 OFFCURVE",
"215 336 OFFCURVE",
"224 344 CURVE",
"163 344 LINE SMOOTH",
"144 344 OFFCURVE",
"132 339 OFFCURVE",
"124 323 CURVE SMOOTH",
"109 292 OFFCURVE",
"88 251 OFFCURVE",
"68 213 CURVE SMOOTH",
"50 178 LINE SMOOTH",
"44 165 OFFCURVE",
"53 162 OFFCURVE",
"59 162 CURVE",
"41 126 OFFCURVE",
"16 89 OFFCURVE",
"25 46 CURVE SMOOTH",
"33 8 OFFCURVE",
"68 1 OFFCURVE",
"88 1 CURVE SMOOTH",
"165 1 OFFCURVE",
"230 125 OFFCURVE",
"264 185 CURVE",
"248 133 OFFCURVE",
"216 26 OFFCURVE",
"178 -40 CURVE",
"97 -63 OFFCURVE",
"2 -80 OFFCURVE",
"-65 -112 CURVE SMOOTH",
"-104 -130 OFFCURVE",
"-140 -157 OFFCURVE",
"-159 -194 CURVE SMOOTH",
"-189 -250 OFFCURVE",
"-179 -316 OFFCURVE",
"-79 -316 CURVE SMOOTH",
"69 -316 OFFCURVE",
"168 -163 OFFCURVE",
"231 -50 CURVE",
"375 2 OFFCURVE",
"401 44 OFFCURVE",
"469 182 CURVE SMOOTH"
);
},
{
closed = 1;
nodes = (
"138 -109 LINE",
"92 -172 OFFCURVE",
"-14 -296 OFFCURVE",
"-102 -296 CURVE SMOOTH",
"-188 -296 OFFCURVE",
"-150 -178 OFFCURVE",
"-48 -134 CURVE SMOOTH",
"9 -109 OFFCURVE",
"95 -89 OFFCURVE",
"160 -72 CURVE"
);
}
);
width = 399;
}
);
note = y;
unicode = 0079;
},
{
glyphname = z;
layers = (
{
layerId = "5266B3E4-A2B0-4CF3-936E-1186C5B63406";
paths = (
{
closed = 1;
nodes = (
"422 204 OFFCURVE",
"407 210 OFFCURVE",
"398 192 CURVE SMOOTH",
"359 110 OFFCURVE",
"310 26 OFFCURVE",
"244 13 CURVE",
"249 29 OFFCURVE",
"255 72 OFFCURVE",
"255 86 CURVE SMOOTH",
"254 123 OFFCURVE",
"236 152 OFFCURVE",
"186 151 CURVE",
"249 189 OFFCURVE",
"282 245 OFFCURVE",
"284 289 CURVE SMOOTH",
"288 370 OFFCURVE",
"159 381 OFFCURVE",
"98 270 CURVE SMOOTH",
"76 230 OFFCURVE",
"57 191 OFFCURVE",
"39 156 CURVE SMOOTH",
"28 133 OFFCURVE",
"43 128 OFFCURVE",
"51 145 CURVE SMOOTH",
"66 177 OFFCURVE",
"92 225 OFFCURVE",
"104 245 CURVE SMOOTH",
"165 350 OFFCURVE",
"265 288 OFFCURVE",
"218 216 CURVE SMOOTH",
"205 196 OFFCURVE",
"172 148 OFFCURVE",
"106 128 CURVE SMOOTH",
"90 123 OFFCURVE",
"98 103 OFFCURVE",
"114 109 CURVE SMOOTH",
"130 115 OFFCURVE",
"145 121 OFFCURVE",
"158 128 CURVE",
"216 138 OFFCURVE",
"192 37 OFFCURVE",
"177 -11 CURVE",
"50 -51 OFFCURVE",
"-120 -92 OFFCURVE",
"-174 -173 CURVE SMOOTH",
"-227 -255 OFFCURVE",
"-162 -333 OFFCURVE",
"-60 -303 CURVE SMOOTH",
"84 -261 OFFCURVE",
"187 -152 OFFCURVE",
"238 -12 CURVE",
"323 5 OFFCURVE",
"366 91 OFFCURVE",
"412 184 CURVE SMOOTH"
);
},
{
closed = 1;
nodes = (
"114 -178 OFFCURVE",
"-13 -269 OFFCURVE",
"-91 -286 CURVE SMOOTH",
"-196 -308 OFFCURVE",
"-168 -174 OFFCURVE",
"-80 -123 CURVE SMOOTH",
"-22 -88 OFFCURVE",
"79 -64 OFFCURVE",
"168 -36 CURVE"
);
}
);
width = 341;
}
);
note = z;
unicode = 007A;
},
{
glyphname = z.alt;
layers = (
{
hints = (
{
horizontal = 1;
place = "{-12, 21}";
target = up;
type = BottomGhost;
},
{
horizontal = 1;
place = "{281, 62}";
type = Stem;
}
);
layerId = "5266B3E4-A2B0-4CF3-936E-1186C5B63406";
paths = (
{
closed = 1;
nodes = (
"318 -9 OFFCURVE",
"379 100 OFFCURVE",
"424 210 CURVE SMOOTH",
"432 229 OFFCURVE",
"414 227 OFFCURVE",
"410 218 CURVE SMOOTH",
"386 170 OFFCURVE",
"339 56 OFFCURVE",
"278 40 CURVE SMOOTH",
"248 32 OFFCURVE",
"189 48 OFFCURVE",
"157 58 CURVE",
"218 114 OFFCURVE",
"280 250 OFFCURVE",
"348 287 CURVE SMOOTH",
"357 292 OFFCURVE",
"372 294 OFFCURVE",
"373 312 CURVE SMOOTH",
"373 324 OFFCURVE",
"365 334 OFFCURVE",
"356 334 CURVE SMOOTH",
"346 334 OFFCURVE",
"337 314 OFFCURVE",
"312 314 CURVE SMOOTH",
"282 314 OFFCURVE",
"253 343 OFFCURVE",
"220 343 CURVE SMOOTH",
"179 343 OFFCURVE",
"133 333 OFFCURVE",
"84 245 CURVE SMOOTH",
"74 227 OFFCURVE",
"32 141 OFFCURVE",
"25 128 CURVE SMOOTH",
"14 108 OFFCURVE",
"31 108 OFFCURVE",
"38 120 CURVE SMOOTH",
"109 262 OFFCURVE",
"133 281 OFFCURVE",
"196 281 CURVE SMOOTH",
"223 281 OFFCURVE",
"256 273 OFFCURVE",
"280 267 CURVE",
"227 212 OFFCURVE",
"159 84 OFFCURVE",
"109 60 CURVE",
"96 52 OFFCURVE",
"32 32 OFFCURVE",
"25 20 CURVE SMOOTH",
"18 8 OFFCURVE",
"15 -12 OFFCURVE",
"37 -12 CURVE SMOOTH",
"60 -12 OFFCURVE",
"78 3 OFFCURVE",
"99 8 CURVE SMOOTH",
"125 14 OFFCURVE",
"182 -4 OFFCURVE",
"242 -6 CURVE SMOOTH"
);
}
);
width = 341;
}
);
note = z.alt;
},
{
glyphname = z.stroke;
layers = (
{
hints = (
{
horizontal = 1;
place = "{156, 19}";
type = Stem;
},
{
place = "{125, 188}";
type = Stem;
}
);
layerId = "5266B3E4-A2B0-4CF3-936E-1186C5B63406";
paths = (
{
closed = 1;
nodes = (
"320 156 OFFCURVE",
"315 175 OFFCURVE",
"298 175 CURVE SMOOTH",
"279 175 OFFCURVE",
"262 176 OFFCURVE",
"247 176 CURVE",
"280 224 OFFCURVE",
"314 268 OFFCURVE",
"348 287 CURVE SMOOTH",
"357 292 OFFCURVE",
"372 294 OFFCURVE",
"373 312 CURVE SMOOTH",
"373 324 OFFCURVE",
"365 334 OFFCURVE",
"356 334 CURVE SMOOTH",
"346 334 OFFCURVE",
"337 314 OFFCURVE",
"312 314 CURVE SMOOTH",
"282 314 OFFCURVE",
"253 343 OFFCURVE",
"220 343 CURVE SMOOTH",
"179 343 OFFCURVE",
"133 333 OFFCURVE",
"84 245 CURVE SMOOTH",
"74 227 OFFCURVE",
"32 141 OFFCURVE",
"25 128 CURVE SMOOTH",
"14 108 OFFCURVE",
"31 108 OFFCURVE",
"38 120 CURVE SMOOTH",
"109 262 OFFCURVE",
"133 281 OFFCURVE",
"196 281 CURVE SMOOTH",
"223 281 OFFCURVE",
"256 273 OFFCURVE",
"280 267 CURVE",
"258 244 OFFCURVE",
"240 215 OFFCURVE",
"213 177 CURVE",
"179 178 OFFCURVE",
"155 178 OFFCURVE",
"137 178 CURVE SMOOTH",
"116 178 OFFCURVE",
"127 142 OFFCURVE",
"137 144 CURVE",
"194 150 LINE",
"163 109 OFFCURVE",
"133 71 OFFCURVE",
"109 60 CURVE",
"96 52 OFFCURVE",
"32 32 OFFCURVE",
"25 20 CURVE SMOOTH",
"18 8 OFFCURVE",
"15 -12 OFFCURVE",
"37 -12 CURVE SMOOTH",
"60 -12 OFFCURVE",
"78 3 OFFCURVE",
"99 8 CURVE SMOOTH",
"125 14 OFFCURVE",
"182 -4 OFFCURVE",
"242 -6 CURVE SMOOTH",
"318 -9 OFFCURVE",
"379 100 OFFCURVE",
"424 210 CURVE SMOOTH",
"432 229 OFFCURVE",
"414 227 OFFCURVE",
"410 218 CURVE SMOOTH",
"386 170 OFFCURVE",
"339 56 OFFCURVE",
"278 40 CURVE SMOOTH",
"248 32 OFFCURVE",
"189 48 OFFCURVE",
"157 58 CURVE",
"183 82 OFFCURVE",
"203 112 OFFCURVE",
"231 153 CURVE",
"253 155 OFFCURVE",
"276 156 OFFCURVE",
"301 156 CURVE SMOOTH"
);
}
);
width = 341;
}
);
note = z.stroke;
},
{
glyphname = braceleft;
layers = (
{
hints = (
{
horizontal = 1;
place = "{-131, 22}";
type = Stem;
},
{
horizontal = 1;
place = "{291, 27}";
type = Stem;
},
{
place = "{128, 51}";
type = Stem;
}
);
layerId = "5266B3E4-A2B0-4CF3-936E-1186C5B63406";
paths = (
{
closed = 1;
nodes = (
"417 726 LINE SMOOTH",
"351 726 OFFCURVE",
"302 714 OFFCURVE",
"271 691 CURVE SMOOTH",
"210 644 OFFCURVE",
"197 520 OFFCURVE",
"183 454 CURVE SMOOTH",
"173 404 OFFCURVE",
"158 370 OFFCURVE",
"136 353 CURVE SMOOTH",
"115 335 OFFCURVE",
"77 324 OFFCURVE",
"21 318 CURVE",
"21 318 OFFCURVE",
"-2 291 OFFCURVE",
"15 291 CURVE SMOOTH",
"44 291 OFFCURVE",
"65 288 OFFCURVE",
"80 282 CURVE SMOOTH",
"94 276 OFFCURVE",
"106 267 OFFCURVE",
"115 256 CURVE SMOOTH",
"130 238 OFFCURVE",
"132 204 OFFCURVE",
"122 155 CURVE SMOOTH",
"113 109 OFFCURVE",
"61 -48 OFFCURVE",
"105 -96 CURVE SMOOTH",
"127 -119 OFFCURVE",
"171 -131 OFFCURVE",
"236 -131 CURVE SMOOTH",
"241 -131 LINE SMOOTH",
"251 -131 OFFCURVE",
"256 -108 OFFCURVE",
"244 -109 CURVE SMOOTH",
"199 -109 OFFCURVE",
"169 -101 OFFCURVE",
"154 -83 CURVE SMOOTH",
"139 -66 OFFCURVE",
"137 -32 OFFCURVE",
"147 18 CURVE SMOOTH",
"157 67 OFFCURVE",
"197 201 OFFCURVE",
"170 250 CURVE SMOOTH",
"155 276 OFFCURVE",
"121 294 OFFCURVE",
"67 304 CURVE",
"129 315 OFFCURVE",
"174 336 OFFCURVE",
"200 368 CURVE SMOOTH",
"265 447 OFFCURVE",
"248 619 OFFCURVE",
"313 676 CURVE SMOOTH",
"333 694 OFFCURVE",
"368 703 OFFCURVE",
"416 703 CURVE SMOOTH",
"424 703 OFFCURVE",
"444 726 OFFCURVE",
"421 726 CURVE SMOOTH"
);
}
);
width = 369;
}
);
note = braceleft;
unicode = 007B;
},
{
glyphname = bar;
layers = (
{
hints = (
{
place = "{221, 43}";
type = Stem;
}
);
layerId = "5266B3E4-A2B0-4CF3-936E-1186C5B63406";
paths = (
{
closed = 1;
nodes = (
"264 -231 LINE",
"264 749 LINE",
"221 749 LINE",
"221 -231 LINE"
);
}
);
width = 485;
}
);
note = bar;
unicode = 007C;
},
{
glyphname = braceright;
layers = (
{
hints = (
{
horizontal = 1;
place = "{277, 27}";
type = Stem;
},
{
horizontal = 1;
place = "{699, 23}";
type = Stem;
},
{
place = "{320, 51}";
type = Stem;
},
{
place = "{378, 56}";
type = Stem;
}
);
layerId = "5266B3E4-A2B0-4CF3-936E-1186C5B63406";
paths = (
{
closed = 1;
nodes = (
"426 309 OFFCURVE",
"394 320 OFFCURVE",
"381 337 CURVE SMOOTH",
"333 400 OFFCURVE",
"477 614 OFFCURVE",
"420 687 CURVE SMOOTH",
"402 711 OFFCURVE",
"359 722 OFFCURVE",
"291 722 CURVE SMOOTH",
"286 722 LINE",
"286 722 OFFCURVE",
"260 699 OFFCURVE",
"280 699 CURVE SMOOTH",
"328 699 OFFCURVE",
"358 690 OFFCURVE",
"370 672 CURVE SMOOTH",
"382 654 OFFCURVE",
"380 621 OFFCURVE",
"365 572 CURVE SMOOTH",
"351 524 OFFCURVE",
"303 395 OFFCURVE",
"327 344 CURVE SMOOTH",
"341 317 OFFCURVE",
"372 299 OFFCURVE",
"423 290 CURVE",
"365 279 OFFCURVE",
"322 261 OFFCURVE",
"293 235 CURVE SMOOTH",
"208 157 OFFCURVE",
"213 -24 OFFCURVE",
"140 -82 CURVE SMOOTH",
"118 -100 OFFCURVE",
"82 -109 OFFCURVE",
"34 -109 CURVE SMOOTH",
"21 -109 OFFCURVE",
"14 -130 OFFCURVE",
"26 -131 CURVE SMOOTH",
"31 -131 LINE SMOOTH",
"96 -131 OFFCURVE",
"145 -120 OFFCURVE",
"178 -97 CURVE SMOOTH",
"284 -23 OFFCURVE",
"264 178 OFFCURVE",
"349 242 CURVE SMOOTH",
"380 266 OFFCURVE",
"420 277 OFFCURVE",
"468 277 CURVE",
"468 277 OFFCURVE",
"494 303 OFFCURVE",
"477 304 CURVE SMOOTH"
);
}
);
width = 485;
}
);
note = braceright;
unicode = 007D;
},
{
glyphname = asciitilde;
layers = (
{
hints = (
{
horizontal = 1;
place = "{453, 44}";
type = Stem;
}
);
layerId = "5266B3E4-A2B0-4CF3-936E-1186C5B63406";
paths = (
{
closed = 1;
nodes = (
"455 498 OFFCURVE",
"434 501 OFFCURVE",
"432 496 CURVE SMOOTH",
"421 473 OFFCURVE",
"404 458 OFFCURVE",
"377 461 CURVE SMOOTH",
"337 464 OFFCURVE",
"299 494 OFFCURVE",
"256 497 CURVE SMOOTH",
"210 501 OFFCURVE",
"177 456 OFFCURVE",
"158 422 CURVE",
"156 417 OFFCURVE",
"179 414 OFFCURVE",
"181 420 CURVE",
"191 439 OFFCURVE",
"209 455 OFFCURVE",
"233 453 CURVE SMOOTH",
"274 450 OFFCURVE",
"312 418 OFFCURVE",
"354 414 CURVE SMOOTH",
"401 410 OFFCURVE",
"435 457 OFFCURVE",
"453 494 CURVE SMOOTH"
);
}
);
width = 485;
}
);
note = asciitilde;
unicode = 007E;
},
{
glyphname = Adieresis;
layers = (
{
hints = (
{
horizontal = 1;
place = "{803, 66}";
type = Stem;
},
{
place = "{640, 66}";
type = Stem;
},
{
place = "{769, 66}";
type = Stem;
}
);
layerId = "5266B3E4-A2B0-4CF3-936E-1186C5B63406";
paths = (
{
closed = 1;
nodes = (
"837 837 OFFCURVE",
"822 850 OFFCURVE",
"803 850 CURVE SMOOTH",
"784 850 OFFCURVE",
"771 836 OFFCURVE",
"771 817 CURVE SMOOTH",
"771 797 OFFCURVE",
"786 784 OFFCURVE",
"805 784 CURVE SMOOTH",
"824 784 OFFCURVE",
"837 798 OFFCURVE",
"837 817 CURVE SMOOTH"
);
},
{
closed = 1;
nodes = (
"708 837 OFFCURVE",
"693 850 OFFCURVE",
"674 850 CURVE SMOOTH",
"655 850 OFFCURVE",
"642 836 OFFCURVE",
"642 817 CURVE SMOOTH",
"642 797 OFFCURVE",
"657 784 OFFCURVE",
"676 784 CURVE SMOOTH",
"695 784 OFFCURVE",
"708 798 OFFCURVE",
"708 817 CURVE SMOOTH"
);
},
{
closed = 1;
nodes = (
"817 658 OFFCURVE",
"756 707 OFFCURVE",
"655 707 CURVE SMOOTH",
"472 707 OFFCURVE",
"311 609 OFFCURVE",
"193 481 CURVE",
"159 496 OFFCURVE",
"131 516 OFFCURVE",
"110 539 CURVE SMOOTH",
"88 562 OFFCURVE",
"78 584 OFFCURVE",
"90 611 CURVE SMOOTH",
"100 633 OFFCURVE",
"84 643 OFFCURVE",
"73 629 CURVE",
"53 614 OFFCURVE",
"55 554 OFFCURVE",
"82 525 CURVE SMOOTH",
"105 499 OFFCURVE",
"138 479 OFFCURVE",
"176 461 CURVE",
"47 319 OFFCURVE",
"-51 25 OFFCURVE",
"90 -35 CURVE SMOOTH",
"232 -96 OFFCURVE",
"419 95 OFFCURVE",
"501 192 CURVE",
"456 133 OFFCURVE",
"431 -64 OFFCURVE",
"542 -64 CURVE SMOOTH",
"598 -64 OFFCURVE",
"655 -24 OFFCURVE",
"689 22 CURVE SMOOTH",
"726 71 OFFCURVE",
"764 142 OFFCURVE",
"782 182 CURVE SMOOTH",
"793 206 OFFCURVE",
"774 205 OFFCURVE",
"765 186 CURVE SMOOTH",
"743 136 OFFCURVE",
"709 84 OFFCURVE",
"678 44 CURVE SMOOTH",
"599 -54 OFFCURVE",
"500 -79 OFFCURVE",
"531 90 CURVE SMOOTH",
"549 188 OFFCURVE",
"578 267 OFFCURVE",
"631 325 CURVE SMOOTH",
"685 383 OFFCURVE",
"636 457 OFFCURVE",
"577 351 CURVE SMOOTH",
"527 260 OFFCURVE",
"446 158 OFFCURVE",
"343 71 CURVE SMOOTH",
"159 -82 OFFCURVE",
"0 -37 OFFCURVE",
"102 218 CURVE SMOOTH",
"138 307 OFFCURVE",
"206 408 OFFCURVE",
"235 434 CURVE",
"323 406 OFFCURVE",
"418 398 OFFCURVE",
"525 407 CURVE SMOOTH",
"744 426 OFFCURVE",
"817 523 OFFCURVE",
"817 590 CURVE SMOOTH"
);
},
{
closed = 1;
nodes = (
"778 510 OFFCURVE",
"681 442 OFFCURVE",
"525 429 CURVE SMOOTH",
"405 419 OFFCURVE",
"323 429 OFFCURVE",
"250 452 CURVE",
"355 576 OFFCURVE",
"482 683 OFFCURVE",
"658 683 CURVE SMOOTH",
"727 683 OFFCURVE",
"778 655 OFFCURVE",
"778 601 CURVE SMOOTH"
);
}
);
width = 712;
}
);
note = Adieresis;
unicode = 00C4;
},
{
glyphname = Aring;
layers = (
{
hints = (
{
horizontal = 1;
place = "{703, 17}";
type = Stem;
},
{
horizontal = 1;
place = "{747, 15}";
type = Stem;
},
{
horizontal = 1;
place = "{813, 18}";
type = Stem;
},
{
horizontal = 1;
place = "{857, 18}";
type = Stem;
},
{
place = "{706, 17}";
type = Stem;
},
{
place = "{815, 19}";
type = Stem;
},
{
place = "{720, 17}";
type = Stem;
}
);
layerId = "5266B3E4-A2B0-4CF3-936E-1186C5B63406";
paths = (
{
closed = 1;
nodes = (
"757 816 OFFCURVE",
"772 832 OFFCURVE",
"789 833 CURVE SMOOTH",
"806 834 OFFCURVE",
"819 818 OFFCURVE",
"817 797 CURVE SMOOTH",
"815 776 OFFCURVE",
"801 758 OFFCURVE",
"783 758 CURVE SMOOTH",
"766 758 OFFCURVE",
"754 774 OFFCURVE",
"755 795 CURVE SMOOTH"
);
},
{
closed = 1;
nodes = (
"716 764 OFFCURVE",
"743 740 OFFCURVE",
"780 741 CURVE SMOOTH",
"817 742 OFFCURVE",
"849 767 OFFCURVE",
"853 797 CURVE SMOOTH",
"856 826 OFFCURVE",
"830 850 OFFCURVE",
"793 849 CURVE SMOOTH",
"757 847 OFFCURVE",
"723 823 OFFCURVE",
"720 793 CURVE SMOOTH"
);
},
{
closed = 1;
nodes = (
"817 658 OFFCURVE",
"756 707 OFFCURVE",
"655 707 CURVE SMOOTH",
"472 707 OFFCURVE",
"311 609 OFFCURVE",
"193 481 CURVE",
"159 496 OFFCURVE",
"131 516 OFFCURVE",
"110 539 CURVE SMOOTH",
"88 562 OFFCURVE",
"78 584 OFFCURVE",
"90 611 CURVE SMOOTH",
"100 633 OFFCURVE",
"84 643 OFFCURVE",
"73 629 CURVE",
"53 614 OFFCURVE",
"55 554 OFFCURVE",
"82 525 CURVE SMOOTH",
"105 499 OFFCURVE",
"138 479 OFFCURVE",
"176 461 CURVE",
"47 319 OFFCURVE",
"-51 25 OFFCURVE",
"90 -35 CURVE SMOOTH",
"232 -96 OFFCURVE",
"419 95 OFFCURVE",
"501 192 CURVE",
"456 133 OFFCURVE",
"431 -64 OFFCURVE",
"542 -64 CURVE SMOOTH",
"598 -64 OFFCURVE",
"655 -24 OFFCURVE",
"689 22 CURVE SMOOTH",
"726 71 OFFCURVE",
"764 142 OFFCURVE",
"782 182 CURVE SMOOTH",
"793 206 OFFCURVE",
"774 205 OFFCURVE",
"765 186 CURVE SMOOTH",
"743 136 OFFCURVE",
"709 84 OFFCURVE",
"678 44 CURVE SMOOTH",
"599 -54 OFFCURVE",
"500 -79 OFFCURVE",
"531 90 CURVE SMOOTH",
"549 188 OFFCURVE",
"578 267 OFFCURVE",
"631 325 CURVE SMOOTH",
"685 383 OFFCURVE",
"636 457 OFFCURVE",
"577 351 CURVE SMOOTH",
"527 260 OFFCURVE",
"446 158 OFFCURVE",
"343 71 CURVE SMOOTH",
"159 -82 OFFCURVE",
"0 -37 OFFCURVE",
"102 218 CURVE SMOOTH",
"138 307 OFFCURVE",
"206 408 OFFCURVE",
"235 434 CURVE",
"323 406 OFFCURVE",
"418 398 OFFCURVE",
"525 407 CURVE SMOOTH",
"744 426 OFFCURVE",
"817 523 OFFCURVE",
"817 590 CURVE SMOOTH"
);
},
{
closed = 1;
nodes = (
"778 510 OFFCURVE",
"681 442 OFFCURVE",
"525 429 CURVE SMOOTH",
"405 419 OFFCURVE",
"323 429 OFFCURVE",
"250 452 CURVE",
"355 576 OFFCURVE",
"482 683 OFFCURVE",
"658 683 CURVE SMOOTH",
"727 683 OFFCURVE",
"778 655 OFFCURVE",
"778 601 CURVE SMOOTH"
);
}
);
width = 712;
}
);
note = Aring;
unicode = 00C5;
},
{
glyphname = Ccedilla;
layers = (
{
hints = (
{
horizontal = 1;
place = "{-302, 17}";
type = Stem;
},
{
horizontal = 1;
place = "{-151, 18}";
type = Stem;
},
{
place = "{452, 37}";
type = Stem;
}
);
layerId = "5266B3E4-A2B0-4CF3-936E-1186C5B63406";
paths = (
{
closed = 1;
nodes = (
"490 -152 OFFCURVE",
"416 -133 OFFCURVE",
"371 -133 CURVE SMOOTH",
"358 -133 OFFCURVE",
"345 -134 OFFCURVE",
"332 -136 CURVE",
"331 -130 OFFCURVE",
"368 -107 OFFCURVE",
"375 -101 CURVE",
"467 -103 OFFCURVE",
"551 -71 OFFCURVE",
"619 -25 CURVE SMOOTH",
"704 35 OFFCURVE",
"737 95 OFFCURVE",
"780 183 CURVE SMOOTH",
"790 203 OFFCURVE",
"776 210 OFFCURVE",
"768 193 CURVE SMOOTH",
"726 107 OFFCURVE",
"691 42 OFFCURVE",
"604 -9 CURVE SMOOTH",
"505 -68 OFFCURVE",
"376 -83 OFFCURVE",
"269 -51 CURVE SMOOTH",
"9 29 OFFCURVE",
"173 434 OFFCURVE",
"209 481 CURVE",
"261 373 OFFCURVE",
"353 326 OFFCURVE",
"457 311 CURVE SMOOTH",
"869 251 OFFCURVE",
"1011 732 OFFCURVE",
"621 776 CURVE SMOOTH",
"463 794 OFFCURVE",
"313 732 OFFCURVE",
"205 593 CURVE",
"195 647 OFFCURVE",
"186 720 OFFCURVE",
"197 783 CURVE SMOOTH",
"202 811 OFFCURVE",
"181 805 OFFCURVE",
"177 788 CURVE SMOOTH",
"157 714 OFFCURVE",
"165 621 OFFCURVE",
"181 559 CURVE",
"42 384 OFFCURVE",
"-21 36 OFFCURVE",
"230 -70 CURVE SMOOTH",
"272 -88 OFFCURVE",
"314 -97 OFFCURVE",
"355 -100 CURVE",
"335 -115 OFFCURVE",
"296 -145 OFFCURVE",
"291 -151 CURVE SMOOTH",
"288 -154 OFFCURVE",
"287 -156 OFFCURVE",
"287 -160 CURVE SMOOTH",
"287 -169 OFFCURVE",
"297 -175 OFFCURVE",
"306 -175 CURVE SMOOTH",
"316 -175 OFFCURVE",
"340 -151 OFFCURVE",
"378 -151 CURVE SMOOTH",
"412 -151 OFFCURVE",
"453 -169 OFFCURVE",
"453 -208 CURVE SMOOTH",
"453 -222 OFFCURVE",
"447 -237 OFFCURVE",
"439 -249 CURVE SMOOTH",
"421 -277 OFFCURVE",
"374 -285 OFFCURVE",
"343 -285 CURVE SMOOTH",
"318 -285 OFFCURVE",
"275 -279 OFFCURVE",
"257 -260 CURVE SMOOTH",
"253 -256 OFFCURVE",
"248 -249 OFFCURVE",
"242 -249 CURVE SMOOTH",
"238 -249 OFFCURVE",
"236 -252 OFFCURVE",
"236 -256 CURVE SMOOTH",
"236 -291 OFFCURVE",
"337 -302 OFFCURVE",
"362 -302 CURVE SMOOTH",
"386 -302 OFFCURVE",
"417 -299 OFFCURVE",
"438 -285 CURVE SMOOTH",
"463 -268 OFFCURVE",
"490 -241 OFFCURVE",
"490 -209 CURVE SMOOTH"
);
},
{
closed = 1;
nodes = (
"922 696 OFFCURVE",
"833 295 OFFCURVE",
"472 335 CURVE SMOOTH",
"363 347 OFFCURVE",
"274 398 OFFCURVE",
"229 513 CURVE",
"328 664 OFFCURVE",
"481 760 OFFCURVE",
"630 738 CURVE SMOOTH"
);
}
);
width = 710;
}
);
note = Ccedilla;
unicode = 00C7;
},
{
glyphname = Eacute;
layers = (
{
hints = (
{
horizontal = 1;
place = "{848, 20}";
type = Stem;
}
);
layerId = "5266B3E4-A2B0-4CF3-936E-1186C5B63406";
paths = (
{
closed = 1;
nodes = (
"895 832 OFFCURVE",
"892 842 OFFCURVE",
"883 846 CURVE SMOOTH",
"866 854 OFFCURVE",
"848 846 OFFCURVE",
"834 836 CURVE SMOOTH",
"821 825 OFFCURVE",
"733 765 OFFCURVE",
"730 759 CURVE SMOOTH",
"727 755 OFFCURVE",
"728 750 OFFCURVE",
"732 748 CURVE SMOOTH",
"738 745 OFFCURVE",
"884 809 OFFCURVE",
"891 823 CURVE SMOOTH"
);
},
{
closed = 1;
nodes = (
"759 208 OFFCURVE",
"725 190 OFFCURVE",
"771 179 CURVE SMOOTH",
"826 166 OFFCURVE",
"790 96 OFFCURVE",
"716 38 CURVE SMOOTH",
"630 -29 OFFCURVE",
"481 -98 OFFCURVE",
"327 -98 CURVE SMOOTH",
"-17 -98 OFFCURVE",
"61 238 OFFCURVE",
"270 296 CURVE SMOOTH",
"397 332 OFFCURVE",
"521 287 OFFCURVE",
"533 327 CURVE",
"548 398 OFFCURVE",
"296 348 OFFCURVE",
"323 505 CURVE SMOOTH",
"346 633 OFFCURVE",
"547 718 OFFCURVE",
"703 703 CURVE SMOOTH",
"886 684 OFFCURVE",
"775 506 OFFCURVE",
"683 496 CURVE SMOOTH",
"638 491 OFFCURVE",
"629 465 OFFCURVE",
"686 478 CURVE SMOOTH",
"888 523 OFFCURVE",
"940 700 OFFCURVE",
"707 727 CURVE SMOOTH",
"548 745 OFFCURVE",
"262 652 OFFCURVE",
"247 480 CURVE SMOOTH",
"242 421 OFFCURVE",
"311 375 OFFCURVE",
"367 355 CURVE",
"335 354 OFFCURVE",
"300 348 OFFCURVE",
"266 338 CURVE SMOOTH",
"-61 240 OFFCURVE",
"-80 -120 OFFCURVE",
"323 -120 CURVE SMOOTH",
"488 -120 OFFCURVE",
"658 -67 OFFCURVE",
"757 11 CURVE SMOOTH",
"845 80 OFFCURVE",
"865 155 OFFCURVE",
"792 192 CURVE SMOOTH"
);
}
);
width = 902;
}
);
note = Eacute;
unicode = 00C9;
},
{
glyphname = Ntilde;
layers = (
{
hints = (
{
horizontal = 1;
place = "{872, 44}";
type = Stem;
}
);
layerId = "5266B3E4-A2B0-4CF3-936E-1186C5B63406";
paths = (
{
closed = 1;
nodes = (
"1194 749 OFFCURVE",
"1080 752 OFFCURVE",
"986 708 CURVE SMOOTH",
"909 673 OFFCURVE",
"824 591 OFFCURVE",
"749 500 CURVE SMOOTH",
"699 440 OFFCURVE",
"653 376 OFFCURVE",
"617 320 CURVE SMOOTH",
"598 291 OFFCURVE",
"560 218 OFFCURVE",
"612 331 CURVE SMOOTH",
"646 406 OFFCURVE",
"686 487 OFFCURVE",
"695 564 CURVE SMOOTH",
"725 810 OFFCURVE",
"470 795 OFFCURVE",
"305 705 CURVE SMOOTH",
"190 642 OFFCURVE",
"79 541 OFFCURVE",
"31 426 CURVE SMOOTH",
"-53 222 OFFCURVE",
"55 94 OFFCURVE",
"182 94 CURVE SMOOTH",
"447 94 OFFCURVE",
"577 471 OFFCURVE",
"340 414 CURVE SMOOTH",
"330 412 OFFCURVE",
"322 396 OFFCURVE",
"342 398 CURVE SMOOTH",
"520 421 OFFCURVE",
"395 113 OFFCURVE",
"185 113 CURVE SMOOTH",
"-13 113 OFFCURVE",
"21 479 OFFCURVE",
"316 662 CURVE SMOOTH",
"488 769 OFFCURVE",
"688 789 OFFCURVE",
"630 526 CURVE SMOOTH",
"582 314 OFFCURVE",
"426 2 OFFCURVE",
"377 -70 CURVE",
"369 -102 OFFCURVE",
"443 -100 OFFCURVE",
"460 -64 CURVE SMOOTH",
"525 72 OFFCURVE",
"628 313 OFFCURVE",
"769 484 CURVE SMOOTH",
"840 569 OFFCURVE",
"917 631 OFFCURVE",
"991 666 CURVE SMOOTH",
"1061 700 OFFCURVE",
"1125 699 OFFCURVE",
"1113 629 CURVE SMOOTH",
"1097 526 OFFCURVE",
"913 189 OFFCURVE",
"878 85 CURVE SMOOTH",
"824 -77 OFFCURVE",
"864 -168 OFFCURVE",
"1000 -174 CURVE SMOOTH",
"1073 -177 OFFCURVE",
"1091 -104 OFFCURVE",
"1022 -136 CURVE SMOOTH",
"907 -189 OFFCURVE",
"873 -66 OFFCURVE",
"964 133 CURVE SMOOTH",
"1063 349 OFFCURVE",
"1190 521 OFFCURVE",
"1192 640 CURVE SMOOTH"
);
},
{
closed = 1;
nodes = (
"1171 849 OFFCURVE",
"1154 851 OFFCURVE",
"1152 847 CURVE SMOOTH",
"1143 828 OFFCURVE",
"1129 816 OFFCURVE",
"1106 818 CURVE SMOOTH",
"1073 821 OFFCURVE",
"1042 845 OFFCURVE",
"1006 848 CURVE SMOOTH",
"968 851 OFFCURVE",
"941 814 OFFCURVE",
"925 786 CURVE SMOOTH",
"923 782 OFFCURVE",
"942 779 OFFCURVE",
"944 784 CURVE SMOOTH",
"952 800 OFFCURVE",
"967 813 OFFCURVE",
"987 811 CURVE SMOOTH",
"1021 809 OFFCURVE",
"1052 782 OFFCURVE",
"1087 779 CURVE SMOOTH",
"1126 776 OFFCURVE",
"1154 815 OFFCURVE",
"1169 845 CURVE SMOOTH"
);
}
);
width = 1039;
}
);
note = Ntilde;
unicode = 00D1;
},
{
glyphname = Odieresis;
layers = (
{
hints = (
{
horizontal = 1;
place = "{816, 66}";
type = Stem;
},
{
place = "{496, 66}";
type = Stem;
},
{
place = "{625, 66}";
type = Stem;
}
);
layerId = "5266B3E4-A2B0-4CF3-936E-1186C5B63406";
paths = (
{
closed = 1;
nodes = (
"706 837 OFFCURVE",
"691 850 OFFCURVE",
"672 850 CURVE SMOOTH",
"653 850 OFFCURVE",
"640 836 OFFCURVE",
"640 817 CURVE SMOOTH",
"640 797 OFFCURVE",
"655 784 OFFCURVE",
"674 784 CURVE SMOOTH",
"693 784 OFFCURVE",
"706 798 OFFCURVE",
"706 817 CURVE SMOOTH"
);
},
{
closed = 1;
nodes = (
"577 837 OFFCURVE",
"562 850 OFFCURVE",
"543 850 CURVE SMOOTH",
"524 850 OFFCURVE",
"511 836 OFFCURVE",
"511 817 CURVE SMOOTH",
"511 797 OFFCURVE",
"526 784 OFFCURVE",
"545 784 CURVE SMOOTH",
"564 784 OFFCURVE",
"577 798 OFFCURVE",
"577 817 CURVE SMOOTH"
);
},
{
closed = 1;
nodes = (
"906 552 OFFCURVE",
"883 553 OFFCURVE",
"876 539 CURVE SMOOTH",
"851 490 OFFCURVE",
"800 449 OFFCURVE",
"746 413 CURVE",
"766 907 OFFCURVE",
"-1 822 OFFCURVE",
"38 438 CURVE SMOOTH",
"43 383 OFFCURVE",
"72 341 OFFCURVE",
"115 312 CURVE",
"47 138 OFFCURVE",
"104 -30 OFFCURVE",
"218 -67 CURVE SMOOTH",
"430 -136 OFFCURVE",
"657 82 OFFCURVE",
"719 271 CURVE SMOOTH",
"731 309 OFFCURVE",
"739 344 OFFCURVE",
"742 378 CURVE",
"805 418 OFFCURVE",
"854 470 OFFCURVE",
"891 528 CURVE SMOOTH"
);
},
{
closed = 1;
nodes = (
"522 293 OFFCURVE",
"302 261 OFFCURVE",
"184 319 CURVE",
"226 413 OFFCURVE",
"383 644 OFFCURVE",
"508 605 CURVE SMOOTH",
"521 601 OFFCURVE",
"531 611 OFFCURVE",
"516 619 CURVE SMOOTH",
"365 704 OFFCURVE",
"188 469 OFFCURVE",
"133 353 CURVE",
"111 372 OFFCURVE",
"97 398 OFFCURVE",
"93 429 CURVE SMOOTH",
"40 786 OFFCURVE",
"732 909 OFFCURVE",
"685 381 CURVE"
);
},
{
closed = 1;
nodes = (
"676 323 OFFCURVE",
"669 298 OFFCURVE",
"661 275 CURVE SMOOTH",
"592 79 OFFCURVE",
"396 -121 OFFCURVE",
"221 -35 CURVE SMOOTH",
"124 13 OFFCURVE",
"121 158 OFFCURVE",
"169 284 CURVE",
"301 231 OFFCURVE",
"514 258 OFFCURVE",
"679 346 CURVE"
);
}
);
width = 784;
}
);
note = Odieresis;
unicode = 00D6;
},
{
glyphname = Udieresis;
layers = (
{
hints = (
{
horizontal = 1;
place = "{693, 66}";
type = Stem;
},
{
place = "{800, 66}";
type = Stem;
},
{
place = "{929, 66}";
type = Stem;
}
);
layerId = "5266B3E4-A2B0-4CF3-936E-1186C5B63406";
paths = (
{
closed = 1;
nodes = (
"974 482 OFFCURVE",
"952 468 OFFCURVE",
"930 429 CURVE SMOOTH",
"889 355 OFFCURVE",
"829 214 OFFCURVE",
"762 117 CURVE SMOOTH",
"652 -42 OFFCURVE",
"550 -59 OFFCURVE",
"539 45 CURVE SMOOTH",
"524 191 OFFCURVE",
"681 419 OFFCURVE",
"717 577 CURVE SMOOTH",
"742 687 OFFCURVE",
"730 788 OFFCURVE",
"632 830 CURVE SMOOTH",
"543 869 OFFCURVE",
"420 849 OFFCURVE",
"306 786 CURVE SMOOTH",
"-181 520 OFFCURVE",
"-20 29 OFFCURVE",
"279 156 CURVE SMOOTH",
"500 249 OFFCURVE",
"532 578 OFFCURVE",
"326 491 CURVE SMOOTH",
"318 488 OFFCURVE",
"279 462 OFFCURVE",
"331 474 CURVE SMOOTH",
"522 517 OFFCURVE",
"417 230 OFFCURVE",
"280 179 CURVE SMOOTH",
"2 75 OFFCURVE",
"-96 519 OFFCURVE",
"304 753 CURVE SMOOTH",
"418 819 OFFCURVE",
"555 848 OFFCURVE",
"637 798 CURVE SMOOTH",
"685 769 OFFCURVE",
"682 677 OFFCURVE",
"658 581 CURVE SMOOTH",
"621 436 OFFCURVE",
"460 180 OFFCURVE",
"482 45 CURVE SMOOTH",
"503 -83 OFFCURVE",
"644 -82 OFFCURVE",
"777 89 CURVE SMOOTH",
"802 121 OFFCURVE",
"823 154 OFFCURVE",
"838 179 CURVE",
"821 93 OFFCURVE",
"803 -68 OFFCURVE",
"897 -85 CURVE SMOOTH",
"928 -90 OFFCURVE",
"952 -58 OFFCURVE",
"904 -62 CURVE SMOOTH",
"849 -65 OFFCURVE",
"861 57 OFFCURVE",
"890 165 CURVE SMOOTH",
"909 236 OFFCURVE",
"937 299 OFFCURVE",
"950 327 CURVE SMOOTH",
"977 388 OFFCURVE",
"1035 458 OFFCURVE",
"986 482 CURVE"
);
},
{
closed = 1;
nodes = (
"995 739 OFFCURVE",
"980 752 OFFCURVE",
"961 752 CURVE SMOOTH",
"942 752 OFFCURVE",
"929 738 OFFCURVE",
"929 719 CURVE SMOOTH",
"929 699 OFFCURVE",
"944 686 OFFCURVE",
"963 686 CURVE SMOOTH",
"982 686 OFFCURVE",
"995 700 OFFCURVE",
"995 719 CURVE SMOOTH"
);
},
{
closed = 1;
nodes = (
"866 739 OFFCURVE",
"851 752 OFFCURVE",
"832 752 CURVE SMOOTH",
"813 752 OFFCURVE",
"800 738 OFFCURVE",
"800 719 CURVE SMOOTH",
"800 699 OFFCURVE",
"815 686 OFFCURVE",
"834 686 CURVE SMOOTH",
"853 686 OFFCURVE",
"866 700 OFFCURVE",
"866 719 CURVE SMOOTH"
);
}
);
width = 942;
}
);
note = Udieresis;
unicode = 00DC;
},
{
glyphname = aacute;
layers = (
{
hints = (
{
horizontal = 1;
place = "{394, 20}";
type = Stem;
}
);
layerId = "5266B3E4-A2B0-4CF3-936E-1186C5B63406";
paths = (
{
closed = 1;
nodes = (
"431 204 OFFCURVE",
"416 210 OFFCURVE",
"407 192 CURVE SMOOTH",
"386 149 OFFCURVE",
"320 22 OFFCURVE",
"278 24 CURVE SMOOTH",
"265 24 OFFCURVE",
"260 43 OFFCURVE",
"268 84 CURVE SMOOTH",
"281 145 OFFCURVE",
"340 250 OFFCURVE",
"361 271 CURVE",
"347 268 OFFCURVE",
"332 274 OFFCURVE",
"319 275 CURVE SMOOTH",
"287 277 OFFCURVE",
"273 253 OFFCURVE",
"251 211 CURVE SMOOTH",
"225 162 OFFCURVE",
"197 113 OFFCURVE",
"162 71 CURVE SMOOTH",
"115 15 OFFCURVE",
"60 7 OFFCURVE",
"70 77 CURVE SMOOTH",
"76 115 OFFCURVE",
"103 164 OFFCURVE",
"111 178 CURVE SMOOTH",
"147 237 OFFCURVE",
"199 296 OFFCURVE",
"244 321 CURVE SMOOTH",
"281 341 OFFCURVE",
"318 333 OFFCURVE",
"329 296 CURVE",
"346 293 OFFCURVE",
"354 310 OFFCURVE",
"340 325 CURVE SMOOTH",
"283 387 OFFCURVE",
"168 350 OFFCURVE",
"108 279 CURVE SMOOTH",
"-43 98 OFFCURVE",
"33 -77 OFFCURVE",
"148 33 CURVE SMOOTH",
"177 61 OFFCURVE",
"204 101 OFFCURVE",
"220 127 CURVE",
"190 22 OFFCURVE",
"237 -4 OFFCURVE",
"270 -2 CURVE SMOOTH",
"330 3 OFFCURVE",
"391 123 OFFCURVE",
"421 184 CURVE SMOOTH"
);
},
{
closed = 1;
nodes = (
"416 493 OFFCURVE",
"412 505 OFFCURVE",
"402 510 CURVE SMOOTH",
"382 520 OFFCURVE",
"360 510 OFFCURVE",
"344 498 CURVE SMOOTH",
"328 485 OFFCURVE",
"225 415 OFFCURVE",
"221 407 CURVE",
"218 403 OFFCURVE",
"219 397 OFFCURVE",
"224 394 CURVE SMOOTH",
"231 391 OFFCURVE",
"403 466 OFFCURVE",
"411 483 CURVE SMOOTH"
);
}
);
width = 350;
}
);
note = aacute;
unicode = 00E1;
},
{
glyphname = agrave;
layers = (
{
hints = (
{
horizontal = 1;
place = "{532, -20}";
target = down;
type = TopGhost;
}
);
layerId = "5266B3E4-A2B0-4CF3-936E-1186C5B63406";
paths = (
{
closed = 1;
nodes = (
"431 204 OFFCURVE",
"416 210 OFFCURVE",
"407 192 CURVE SMOOTH",
"386 149 OFFCURVE",
"320 22 OFFCURVE",
"278 24 CURVE SMOOTH",
"265 24 OFFCURVE",
"260 43 OFFCURVE",
"268 84 CURVE SMOOTH",
"281 145 OFFCURVE",
"340 250 OFFCURVE",
"361 271 CURVE",
"347 268 OFFCURVE",
"332 274 OFFCURVE",
"319 275 CURVE SMOOTH",
"287 277 OFFCURVE",
"273 253 OFFCURVE",
"251 211 CURVE SMOOTH",
"225 162 OFFCURVE",
"197 113 OFFCURVE",
"162 71 CURVE SMOOTH",
"115 15 OFFCURVE",
"60 7 OFFCURVE",
"70 77 CURVE SMOOTH",
"76 115 OFFCURVE",
"103 164 OFFCURVE",
"111 178 CURVE SMOOTH",
"147 237 OFFCURVE",
"199 296 OFFCURVE",
"244 321 CURVE SMOOTH",
"281 341 OFFCURVE",
"318 333 OFFCURVE",
"329 296 CURVE",
"346 293 OFFCURVE",
"354 310 OFFCURVE",
"340 325 CURVE SMOOTH",
"283 387 OFFCURVE",
"168 350 OFFCURVE",
"108 279 CURVE SMOOTH",
"-43 98 OFFCURVE",
"33 -77 OFFCURVE",
"148 33 CURVE SMOOTH",
"177 61 OFFCURVE",
"204 101 OFFCURVE",
"220 127 CURVE",
"190 22 OFFCURVE",
"237 -4 OFFCURVE",
"270 -2 CURVE SMOOTH",
"330 3 OFFCURVE",
"391 123 OFFCURVE",
"421 184 CURVE SMOOTH"
);
},
{
closed = 1;
nodes = (
"323 413 OFFCURVE",
"177 532 OFFCURVE",
"158 532 CURVE SMOOTH",
"147 532 OFFCURVE",
"139 523 OFFCURVE",
"139 511 CURVE SMOOTH",
"139 489 OFFCURVE",
"158 475 OFFCURVE",
"176 466 CURVE SMOOTH",
"195 457 OFFCURVE",
"304 397 OFFCURVE",
"313 397 CURVE SMOOTH",
"318 397 OFFCURVE",
"323 400 OFFCURVE",
"323 406 CURVE SMOOTH"
);
}
);
width = 350;
}
);
note = agrave;
unicode = 00E0;
},
{
glyphname = acircumflex;
layers = (
{
layerId = "5266B3E4-A2B0-4CF3-936E-1186C5B63406";
paths = (
{
closed = 1;
nodes = (
"431 204 OFFCURVE",
"416 210 OFFCURVE",
"407 192 CURVE SMOOTH",
"386 149 OFFCURVE",
"320 22 OFFCURVE",
"278 24 CURVE SMOOTH",
"265 24 OFFCURVE",
"260 43 OFFCURVE",
"268 84 CURVE SMOOTH",
"281 145 OFFCURVE",
"340 250 OFFCURVE",
"361 271 CURVE",
"347 268 OFFCURVE",
"332 274 OFFCURVE",
"319 275 CURVE SMOOTH",
"287 277 OFFCURVE",
"273 253 OFFCURVE",
"251 211 CURVE SMOOTH",
"225 162 OFFCURVE",
"197 113 OFFCURVE",
"162 71 CURVE SMOOTH",
"115 15 OFFCURVE",
"60 7 OFFCURVE",
"70 77 CURVE SMOOTH",
"76 115 OFFCURVE",
"103 164 OFFCURVE",
"111 178 CURVE SMOOTH",
"147 237 OFFCURVE",
"199 296 OFFCURVE",
"244 321 CURVE SMOOTH",
"281 341 OFFCURVE",
"318 333 OFFCURVE",
"329 296 CURVE",
"346 293 OFFCURVE",
"354 310 OFFCURVE",
"340 325 CURVE SMOOTH",
"283 387 OFFCURVE",
"168 350 OFFCURVE",
"108 279 CURVE SMOOTH",
"-43 98 OFFCURVE",
"33 -77 OFFCURVE",
"148 33 CURVE SMOOTH",
"177 61 OFFCURVE",
"204 101 OFFCURVE",
"220 127 CURVE",
"190 22 OFFCURVE",
"237 -4 OFFCURVE",
"270 -2 CURVE SMOOTH",
"330 3 OFFCURVE",
"391 123 OFFCURVE",
"421 184 CURVE SMOOTH"
);
},
{
closed = 1;
nodes = (
"374 516 LINE",
"373 521 OFFCURVE",
"336 516 OFFCURVE",
"336 516 CURVE",
"187 410 LINE SMOOTH",
"179 404 OFFCURVE",
"202 401 OFFCURVE",
"212 410 CURVE",
"225 417 OFFCURVE",
"344 481 OFFCURVE",
"344 481 CURVE",
"390 410 LINE SMOOTH",
"394 403 OFFCURVE",
"414 401 OFFCURVE",
"410 410 CURVE"
);
}
);
width = 350;
}
);
note = acircumflex;
unicode = 00E2;
},
{
glyphname = adieresis;
layers = (
{
hints = (
{
horizontal = 1;
place = "{426, 66}";
type = Stem;
},
{
place = "{215, 66}";
type = Stem;
},
{
place = "{344, 66}";
type = Stem;
}
);
layerId = "5266B3E4-A2B0-4CF3-936E-1186C5B63406";
paths = (
{
closed = 1;
nodes = (
"431 204 OFFCURVE",
"416 210 OFFCURVE",
"407 192 CURVE SMOOTH",
"386 149 OFFCURVE",
"320 22 OFFCURVE",
"278 24 CURVE SMOOTH",
"265 24 OFFCURVE",
"260 43 OFFCURVE",
"268 84 CURVE SMOOTH",
"281 145 OFFCURVE",
"340 250 OFFCURVE",
"361 271 CURVE",
"347 268 OFFCURVE",
"332 274 OFFCURVE",
"319 275 CURVE SMOOTH",
"287 277 OFFCURVE",
"273 253 OFFCURVE",
"251 211 CURVE SMOOTH",
"225 162 OFFCURVE",
"197 113 OFFCURVE",
"162 71 CURVE SMOOTH",
"115 15 OFFCURVE",
"60 7 OFFCURVE",
"70 77 CURVE SMOOTH",
"76 115 OFFCURVE",
"103 164 OFFCURVE",
"111 178 CURVE SMOOTH",
"147 237 OFFCURVE",
"199 296 OFFCURVE",
"244 321 CURVE SMOOTH",
"281 341 OFFCURVE",
"318 333 OFFCURVE",
"329 296 CURVE",
"346 293 OFFCURVE",
"354 310 OFFCURVE",
"340 325 CURVE SMOOTH",
"283 387 OFFCURVE",
"168 350 OFFCURVE",
"108 279 CURVE SMOOTH",
"-43 98 OFFCURVE",
"33 -77 OFFCURVE",
"148 33 CURVE SMOOTH",
"177 61 OFFCURVE",
"204 101 OFFCURVE",
"220 127 CURVE",
"190 22 OFFCURVE",
"237 -4 OFFCURVE",
"270 -2 CURVE SMOOTH",
"330 3 OFFCURVE",
"391 123 OFFCURVE",
"421 184 CURVE SMOOTH"
);
},
{
closed = 1;
nodes = (
"410 479 OFFCURVE",
"395 492 OFFCURVE",
"376 492 CURVE SMOOTH",
"357 492 OFFCURVE",
"344 478 OFFCURVE",
"344 459 CURVE SMOOTH",
"344 439 OFFCURVE",
"359 426 OFFCURVE",
"378 426 CURVE SMOOTH",
"397 426 OFFCURVE",
"410 440 OFFCURVE",
"410 459 CURVE SMOOTH"
);
},
{
closed = 1;
nodes = (
"281 479 OFFCURVE",
"266 492 OFFCURVE",
"247 492 CURVE SMOOTH",
"228 492 OFFCURVE",
"215 478 OFFCURVE",
"215 459 CURVE SMOOTH",
"215 439 OFFCURVE",
"230 426 OFFCURVE",
"249 426 CURVE SMOOTH",
"268 426 OFFCURVE",
"281 440 OFFCURVE",
"281 459 CURVE SMOOTH"
);
}
);
width = 350;
}
);
note = adieresis;
unicode = 00E4;
},
{
glyphname = atilde;
layers = (
{
hints = (
{
horizontal = 1;
place = "{480, 44}";
type = Stem;
}
);
layerId = "5266B3E4-A2B0-4CF3-936E-1186C5B63406";
paths = (
{
closed = 1;
nodes = (
"431 204 OFFCURVE",
"416 210 OFFCURVE",
"407 192 CURVE SMOOTH",
"386 149 OFFCURVE",
"320 22 OFFCURVE",
"278 24 CURVE SMOOTH",
"265 24 OFFCURVE",
"260 43 OFFCURVE",
"268 84 CURVE SMOOTH",
"281 145 OFFCURVE",
"340 250 OFFCURVE",
"361 271 CURVE",
"347 268 OFFCURVE",
"332 274 OFFCURVE",
"319 275 CURVE SMOOTH",
"287 277 OFFCURVE",
"273 253 OFFCURVE",
"251 211 CURVE SMOOTH",
"225 162 OFFCURVE",
"197 113 OFFCURVE",
"162 71 CURVE SMOOTH",
"115 15 OFFCURVE",
"60 7 OFFCURVE",
"70 77 CURVE SMOOTH",
"76 115 OFFCURVE",
"103 164 OFFCURVE",
"111 178 CURVE SMOOTH",
"147 237 OFFCURVE",
"199 296 OFFCURVE",
"244 321 CURVE SMOOTH",
"281 341 OFFCURVE",
"318 333 OFFCURVE",
"329 296 CURVE",
"346 293 OFFCURVE",
"354 310 OFFCURVE",
"340 325 CURVE SMOOTH",
"283 387 OFFCURVE",
"168 350 OFFCURVE",
"108 279 CURVE SMOOTH",
"-43 98 OFFCURVE",
"33 -77 OFFCURVE",
"148 33 CURVE SMOOTH",
"177 61 OFFCURVE",
"204 101 OFFCURVE",
"220 127 CURVE",
"190 22 OFFCURVE",
"237 -4 OFFCURVE",
"270 -2 CURVE SMOOTH",
"330 3 OFFCURVE",
"391 123 OFFCURVE",
"421 184 CURVE SMOOTH"
);
},
{
closed = 1;
nodes = (
"449 525 OFFCURVE",
"428 528 OFFCURVE",
"426 523 CURVE SMOOTH",
"415 500 OFFCURVE",
"398 485 OFFCURVE",
"371 488 CURVE SMOOTH",
"331 491 OFFCURVE",
"293 521 OFFCURVE",
"250 524 CURVE SMOOTH",
"204 528 OFFCURVE",
"171 483 OFFCURVE",
"152 449 CURVE",
"150 444 OFFCURVE",
"173 441 OFFCURVE",
"175 447 CURVE",
"185 466 OFFCURVE",
"203 482 OFFCURVE",
"227 480 CURVE SMOOTH",
"268 477 OFFCURVE",
"306 445 OFFCURVE",
"348 441 CURVE SMOOTH",
"395 437 OFFCURVE",
"429 484 OFFCURVE",
"447 521 CURVE SMOOTH"
);
}
);
width = 350;
}
);
note = atilde;
unicode = 00E3;
},
{
glyphname = aring;
layers = (
{
hints = (
{
horizontal = 1;
place = "{334, 17}";
type = Stem;
},
{
horizontal = 1;
place = "{444, 18}";
type = Stem;
},
{
place = "{246, 17}";
type = Stem;
},
{
place = "{355, 19}";
type = Stem;
}
);
layerId = "5266B3E4-A2B0-4CF3-936E-1186C5B63406";
paths = (
{
closed = 1;
nodes = (
"431 204 OFFCURVE",
"416 210 OFFCURVE",
"407 192 CURVE SMOOTH",
"386 149 OFFCURVE",
"320 22 OFFCURVE",
"278 24 CURVE SMOOTH",
"265 24 OFFCURVE",
"260 43 OFFCURVE",
"268 84 CURVE SMOOTH",
"281 145 OFFCURVE",
"340 250 OFFCURVE",
"361 271 CURVE",
"347 268 OFFCURVE",
"332 274 OFFCURVE",
"319 275 CURVE SMOOTH",
"287 277 OFFCURVE",
"273 253 OFFCURVE",
"251 211 CURVE SMOOTH",
"225 162 OFFCURVE",
"197 113 OFFCURVE",
"162 71 CURVE SMOOTH",
"115 15 OFFCURVE",
"60 7 OFFCURVE",
"70 77 CURVE SMOOTH",
"76 115 OFFCURVE",
"103 164 OFFCURVE",
"111 178 CURVE SMOOTH",
"147 237 OFFCURVE",
"199 296 OFFCURVE",
"244 321 CURVE SMOOTH",
"281 341 OFFCURVE",
"318 333 OFFCURVE",
"329 296 CURVE",
"346 293 OFFCURVE",
"354 310 OFFCURVE",
"340 325 CURVE SMOOTH",
"283 387 OFFCURVE",
"168 350 OFFCURVE",
"108 279 CURVE SMOOTH",
"-43 98 OFFCURVE",
"33 -77 OFFCURVE",
"148 33 CURVE SMOOTH",
"177 61 OFFCURVE",
"204 101 OFFCURVE",
"220 127 CURVE",
"190 22 OFFCURVE",
"237 -4 OFFCURVE",
"270 -2 CURVE SMOOTH",
"330 3 OFFCURVE",
"391 123 OFFCURVE",
"421 184 CURVE SMOOTH"
);
},
{
closed = 1;
nodes = (
"282 512 OFFCURVE",
"297 528 OFFCURVE",
"314 529 CURVE SMOOTH",
"331 530 OFFCURVE",
"344 514 OFFCURVE",
"342 493 CURVE SMOOTH",
"340 472 OFFCURVE",
"326 454 OFFCURVE",
"308 454 CURVE SMOOTH",
"291 454 OFFCURVE",
"279 470 OFFCURVE",
"280 491 CURVE SMOOTH"
);
},
{
closed = 1;
nodes = (
"241 460 OFFCURVE",
"268 436 OFFCURVE",
"305 437 CURVE SMOOTH",
"342 438 OFFCURVE",
"374 463 OFFCURVE",
"378 493 CURVE SMOOTH",
"381 522 OFFCURVE",
"355 546 OFFCURVE",
"318 545 CURVE SMOOTH",
"282 543 OFFCURVE",
"248 519 OFFCURVE",
"245 489 CURVE SMOOTH"
);
}
);
width = 350;
}
);
note = aring;
unicode = 00E5;
},
{
glyphname = ccedilla;
layers = (
{
hints = (
{
horizontal = 1;
place = "{-208, 17}";
type = Stem;
},
{
horizontal = 1;
place = "{-57, 18}";
type = Stem;
},
{
place = "{233, 37}";
type = Stem;
}
);
layerId = "5266B3E4-A2B0-4CF3-936E-1186C5B63406";
paths = (
{
closed = 1;
nodes = (
"271 -58 OFFCURVE",
"197 -39 OFFCURVE",
"152 -39 CURVE SMOOTH",
"139 -39 OFFCURVE",
"126 -40 OFFCURVE",
"113 -42 CURVE",
"112 -36 OFFCURVE",
"151 -12 OFFCURVE",
"157 -7 CURVE",
"155 -3 LINE",
"253 4 OFFCURVE",
"291 84 OFFCURVE",
"338 183 CURVE SMOOTH",
"347 203 OFFCURVE",
"333 208 OFFCURVE",
"324 190 CURVE SMOOTH",
"284 111 OFFCURVE",
"236 14 OFFCURVE",
"149 14 CURVE SMOOTH",
"106 14 OFFCURVE",
"90 51 OFFCURVE",
"90 91 CURVE SMOOTH",
"90 149 OFFCURVE",
"127 218 OFFCURVE",
"145 244 CURVE SMOOTH",
"173 284 OFFCURVE",
"216 330 OFFCURVE",
"252 330 CURVE SMOOTH",
"271 330 OFFCURVE",
"281 316 OFFCURVE",
"272 281 CURVE SMOOTH",
"267 263 OFFCURVE",
"252 243 OFFCURVE",
"241 230 CURVE",
"263 208 OFFCURVE",
"304 250 OFFCURVE",
"308 283 CURVE SMOOTH",
"313 324 OFFCURVE",
"289 352 OFFCURVE",
"239 352 CURVE SMOOTH",
"191 352 OFFCURVE",
"142 323 OFFCURVE",
"105 273 CURVE SMOOTH",
"33 176 OFFCURVE",
"-19 -4 OFFCURVE",
"139 -4 CURVE SMOOTH",
"140 -4 LINE",
"121 -17 OFFCURVE",
"77 -51 OFFCURVE",
"72 -57 CURVE SMOOTH",
"69 -60 OFFCURVE",
"68 -62 OFFCURVE",
"68 -66 CURVE SMOOTH",
"68 -75 OFFCURVE",
"78 -81 OFFCURVE",
"87 -81 CURVE SMOOTH",
"97 -81 OFFCURVE",
"121 -57 OFFCURVE",
"159 -57 CURVE SMOOTH",
"193 -57 OFFCURVE",
"234 -75 OFFCURVE",
"234 -114 CURVE SMOOTH",
"234 -128 OFFCURVE",
"228 -143 OFFCURVE",
"220 -155 CURVE SMOOTH",
"202 -183 OFFCURVE",
"155 -191 OFFCURVE",
"124 -191 CURVE SMOOTH",
"99 -191 OFFCURVE",
"56 -185 OFFCURVE",
"38 -166 CURVE SMOOTH",
"34 -162 OFFCURVE",
"29 -155 OFFCURVE",
"23 -155 CURVE SMOOTH",
"19 -155 OFFCURVE",
"17 -158 OFFCURVE",
"17 -162 CURVE SMOOTH",
"17 -197 OFFCURVE",
"118 -208 OFFCURVE",
"143 -208 CURVE SMOOTH",
"167 -208 OFFCURVE",
"198 -205 OFFCURVE",
"219 -191 CURVE SMOOTH",
"244 -174 OFFCURVE",
"271 -147 OFFCURVE",
"271 -115 CURVE SMOOTH"
);
}
);
width = 260;
}
);
note = ccedilla;
unicode = 00E7;
},
{
glyphname = eacute;
layers = (
{
hints = (
{
horizontal = 1;
place = "{394, 20}";
type = Stem;
}
);
layerId = "5266B3E4-A2B0-4CF3-936E-1186C5B63406";
paths = (
{
closed = 1;
nodes = (
"328 208 OFFCURVE",
"308 206 OFFCURVE",
"300 188 CURVE SMOOTH",
"277 135 OFFCURVE",
"223 17 OFFCURVE",
"135 17 CURVE SMOOTH",
"69 17 OFFCURVE",
"86 118 OFFCURVE",
"101 154 CURVE",
"128 154 OFFCURVE",
"193 175 OFFCURVE",
"224 198 CURVE SMOOTH",
"288 247 OFFCURVE",
"317 315 OFFCURVE",
"279 344 CURVE SMOOTH",
"235 377 OFFCURVE",
"159 339 OFFCURVE",
"108 279 CURVE SMOOTH",
"64 227 OFFCURVE",
"30 152 OFFCURVE",
"31 92 CURVE SMOOTH",
"32 29 OFFCURVE",
"77 -4 OFFCURVE",
"127 -4 CURVE SMOOTH",
"238 -4 OFFCURVE",
"281 107 OFFCURVE",
"318 187 CURVE SMOOTH"
);
},
{
closed = 1;
nodes = (
"178 185 OFFCURVE",
"126 171 OFFCURVE",
"108 171 CURVE",
"117 189 OFFCURVE",
"142 233 OFFCURVE",
"168 265 CURVE SMOOTH",
"291 414 OFFCURVE",
"296 284 OFFCURVE",
"214 215 CURVE SMOOTH"
);
},
{
closed = 1;
nodes = (
"399 493 OFFCURVE",
"395 505 OFFCURVE",
"385 510 CURVE SMOOTH",
"365 520 OFFCURVE",
"343 510 OFFCURVE",
"327 498 CURVE SMOOTH",
"311 485 OFFCURVE",
"208 415 OFFCURVE",
"204 407 CURVE",
"201 403 OFFCURVE",
"202 397 OFFCURVE",
"207 394 CURVE SMOOTH",
"214 391 OFFCURVE",
"386 466 OFFCURVE",
"394 483 CURVE SMOOTH"
);
}
);
width = 246;
}
);
note = eacute;
unicode = 00E9;
},
{
glyphname = egrave;
layers = (
{
hints = (
{
horizontal = 1;
place = "{-4, 21}";
target = up;
type = BottomGhost;
},
{
horizontal = 1;
place = "{523, -20}";
target = down;
type = TopGhost;
}
);
layerId = "5266B3E4-A2B0-4CF3-936E-1186C5B63406";
paths = (
{
closed = 1;
nodes = (
"328 208 OFFCURVE",
"308 206 OFFCURVE",
"300 188 CURVE SMOOTH",
"277 135 OFFCURVE",
"223 17 OFFCURVE",
"135 17 CURVE SMOOTH",
"69 17 OFFCURVE",
"86 118 OFFCURVE",
"101 154 CURVE",
"128 154 OFFCURVE",
"193 175 OFFCURVE",
"224 198 CURVE SMOOTH",
"288 247 OFFCURVE",
"317 315 OFFCURVE",
"279 344 CURVE SMOOTH",
"235 377 OFFCURVE",
"159 339 OFFCURVE",
"108 279 CURVE SMOOTH",
"64 227 OFFCURVE",
"30 152 OFFCURVE",
"31 92 CURVE SMOOTH",
"32 29 OFFCURVE",
"77 -4 OFFCURVE",
"127 -4 CURVE SMOOTH",
"238 -4 OFFCURVE",
"281 107 OFFCURVE",
"318 187 CURVE SMOOTH"
);
},
{
closed = 1;
nodes = (
"178 185 OFFCURVE",
"126 171 OFFCURVE",
"108 171 CURVE",
"117 189 OFFCURVE",
"142 233 OFFCURVE",
"168 265 CURVE SMOOTH",
"291 414 OFFCURVE",
"296 284 OFFCURVE",
"214 215 CURVE SMOOTH"
);
},
{
closed = 1;
nodes = (
"287 404 OFFCURVE",
"141 523 OFFCURVE",
"122 523 CURVE SMOOTH",
"111 523 OFFCURVE",
"103 514 OFFCURVE",
"103 502 CURVE SMOOTH",
"103 480 OFFCURVE",
"122 466 OFFCURVE",
"140 457 CURVE SMOOTH",
"159 448 OFFCURVE",
"268 388 OFFCURVE",
"277 388 CURVE SMOOTH",
"282 388 OFFCURVE",
"287 391 OFFCURVE",
"287 397 CURVE SMOOTH"
);
}
);
width = 246;
}
);
note = egrave;
unicode = 00E8;
},
{
glyphname = ecircumflex;
layers = (
{
hints = (
{
horizontal = 1;
place = "{-4, 21}";
target = up;
type = BottomGhost;
}
);
layerId = "5266B3E4-A2B0-4CF3-936E-1186C5B63406";
paths = (
{
closed = 1;
nodes = (
"328 208 OFFCURVE",
"308 206 OFFCURVE",
"300 188 CURVE SMOOTH",
"277 135 OFFCURVE",
"223 17 OFFCURVE",
"135 17 CURVE SMOOTH",
"69 17 OFFCURVE",
"86 118 OFFCURVE",
"101 154 CURVE",
"128 154 OFFCURVE",
"193 175 OFFCURVE",
"224 198 CURVE SMOOTH",
"288 247 OFFCURVE",
"317 315 OFFCURVE",
"279 344 CURVE SMOOTH",
"235 377 OFFCURVE",
"159 339 OFFCURVE",
"108 279 CURVE SMOOTH",
"64 227 OFFCURVE",
"30 152 OFFCURVE",
"31 92 CURVE SMOOTH",
"32 29 OFFCURVE",
"77 -4 OFFCURVE",
"127 -4 CURVE SMOOTH",
"238 -4 OFFCURVE",
"281 107 OFFCURVE",
"318 187 CURVE SMOOTH"
);
},
{
closed = 1;
nodes = (
"178 185 OFFCURVE",
"126 171 OFFCURVE",
"108 171 CURVE",
"117 189 OFFCURVE",
"142 233 OFFCURVE",
"168 265 CURVE SMOOTH",
"291 414 OFFCURVE",
"296 284 OFFCURVE",
"214 215 CURVE SMOOTH"
);
},
{
closed = 1;
nodes = (
"330 516 LINE",
"329 521 OFFCURVE",
"292 516 OFFCURVE",
"292 516 CURVE",
"143 410 LINE SMOOTH",
"135 404 OFFCURVE",
"158 401 OFFCURVE",
"168 410 CURVE",
"181 417 OFFCURVE",
"300 481 OFFCURVE",
"300 481 CURVE",
"346 410 LINE SMOOTH",
"350 403 OFFCURVE",
"370 401 OFFCURVE",
"366 410 CURVE"
);
}
);
width = 246;
}
);
note = ecircumflex;
unicode = 00EA;
},
{
glyphname = edieresis;
layers = (
{
hints = (
{
horizontal = 1;
place = "{407, 66}";
type = Stem;
},
{
place = "{161, 66}";
type = Stem;
},
{
place = "{290, 66}";
type = Stem;
}
);
layerId = "5266B3E4-A2B0-4CF3-936E-1186C5B63406";
paths = (
{
closed = 1;
nodes = (
"328 208 OFFCURVE",
"308 206 OFFCURVE",
"300 188 CURVE SMOOTH",
"277 135 OFFCURVE",
"223 17 OFFCURVE",
"135 17 CURVE SMOOTH",
"69 17 OFFCURVE",
"86 118 OFFCURVE",
"101 154 CURVE",
"128 154 OFFCURVE",
"193 175 OFFCURVE",
"224 198 CURVE SMOOTH",
"288 247 OFFCURVE",
"317 315 OFFCURVE",
"279 344 CURVE SMOOTH",
"235 377 OFFCURVE",
"159 339 OFFCURVE",
"108 279 CURVE SMOOTH",
"64 227 OFFCURVE",
"30 152 OFFCURVE",
"31 92 CURVE SMOOTH",
"32 29 OFFCURVE",
"77 -4 OFFCURVE",
"127 -4 CURVE SMOOTH",
"238 -4 OFFCURVE",
"281 107 OFFCURVE",
"318 187 CURVE SMOOTH"
);
},
{
closed = 1;
nodes = (
"178 185 OFFCURVE",
"126 171 OFFCURVE",
"108 171 CURVE",
"117 189 OFFCURVE",
"142 233 OFFCURVE",
"168 265 CURVE SMOOTH",
"291 414 OFFCURVE",
"296 284 OFFCURVE",
"214 215 CURVE SMOOTH"
);
},
{
closed = 1;
nodes = (
"356 460 OFFCURVE",
"341 473 OFFCURVE",
"322 473 CURVE SMOOTH",
"303 473 OFFCURVE",
"290 459 OFFCURVE",
"290 440 CURVE SMOOTH",
"290 420 OFFCURVE",
"305 407 OFFCURVE",
"324 407 CURVE SMOOTH",
"343 407 OFFCURVE",
"356 421 OFFCURVE",
"356 440 CURVE SMOOTH"
);
},
{
closed = 1;
nodes = (
"227 460 OFFCURVE",
"212 473 OFFCURVE",
"193 473 CURVE SMOOTH",
"174 473 OFFCURVE",
"161 459 OFFCURVE",
"161 440 CURVE SMOOTH",
"161 420 OFFCURVE",
"176 407 OFFCURVE",
"195 407 CURVE SMOOTH",
"214 407 OFFCURVE",
"227 421 OFFCURVE",
"227 440 CURVE SMOOTH"
);
}
);
width = 246;
}
);
note = edieresis;
unicode = 00EB;
},
{
glyphname = iacute;
layers = (
{
hints = (
{
horizontal = 1;
place = "{0, 21}";
type = Stem;
},
{
place = "{11, 48}";
type = Stem;
},
{
horizontal = 1;
place = "{415, 20}";
type = Stem;
}
);
layerId = "5266B3E4-A2B0-4CF3-936E-1186C5B63406";
paths = (
{
closed = 1;
nodes = (
"246 203 OFFCURVE",
"232 210 OFFCURVE",
"223 192 CURVE SMOOTH",
"196 136 OFFCURVE",
"163 74 OFFCURVE",
"129 41 CURVE SMOOTH",
"119 31 OFFCURVE",
"100 20 OFFCURVE",
"85 22 CURVE SMOOTH",
"56 24 OFFCURVE",
"54 52 OFFCURVE",
"64 85 CURVE SMOOTH",
"66 92 OFFCURVE",
"76 114 OFFCURVE",
"76 114 CURVE",
"103 183 OFFCURVE",
"180 308 OFFCURVE",
"180 308 CURVE",
"191 329 OFFCURVE",
"209 336 OFFCURVE",
"217 344 CURVE",
"166 344 LINE SMOOTH",
"134 344 OFFCURVE",
"137 344 OFFCURVE",
"112 296 CURVE SMOOTH",
"25 130 LINE SMOOTH",
"-1 81 OFFCURVE",
"5 0 OFFCURVE",
"79 0 CURVE SMOOTH",
"154 0 OFFCURVE",
"210 127 OFFCURVE",
"236 183 CURVE SMOOTH"
);
},
{
closed = 1;
nodes = (
"383 514 OFFCURVE",
"379 526 OFFCURVE",
"369 531 CURVE SMOOTH",
"349 541 OFFCURVE",
"327 531 OFFCURVE",
"311 519 CURVE SMOOTH",
"295 506 OFFCURVE",
"192 436 OFFCURVE",
"188 428 CURVE",
"185 424 OFFCURVE",
"186 418 OFFCURVE",
"191 415 CURVE SMOOTH",
"198 412 OFFCURVE",
"370 487 OFFCURVE",
"378 504 CURVE SMOOTH"
);
}
);
width = 168;
}
);
note = iacute;
unicode = 00ED;
},
{
glyphname = igrave;
layers = (
{
hints = (
{
horizontal = 1;
place = "{0, 21}";
type = Stem;
},
{
place = "{11, 48}";
type = Stem;
}
);
layerId = "5266B3E4-A2B0-4CF3-936E-1186C5B63406";
paths = (
{
closed = 1;
nodes = (
"246 203 OFFCURVE",
"232 210 OFFCURVE",
"223 192 CURVE SMOOTH",
"196 136 OFFCURVE",
"163 74 OFFCURVE",
"129 41 CURVE SMOOTH",
"119 31 OFFCURVE",
"100 20 OFFCURVE",
"85 22 CURVE SMOOTH",
"56 24 OFFCURVE",
"54 52 OFFCURVE",
"64 85 CURVE SMOOTH",
"66 92 OFFCURVE",
"76 114 OFFCURVE",
"76 114 CURVE",
"103 183 OFFCURVE",
"180 308 OFFCURVE",
"180 308 CURVE",
"191 329 OFFCURVE",
"209 336 OFFCURVE",
"217 344 CURVE",
"166 344 LINE SMOOTH",
"134 344 OFFCURVE",
"137 344 OFFCURVE",
"112 296 CURVE SMOOTH",
"25 130 LINE SMOOTH",
"-1 81 OFFCURVE",
"5 0 OFFCURVE",
"79 0 CURVE SMOOTH",
"154 0 OFFCURVE",
"210 127 OFFCURVE",
"236 183 CURVE SMOOTH"
);
},
{
closed = 1;
nodes = (
"238 415 OFFCURVE",
"92 534 OFFCURVE",
"73 534 CURVE SMOOTH",
"62 534 OFFCURVE",
"54 525 OFFCURVE",
"54 513 CURVE SMOOTH",
"54 491 OFFCURVE",
"73 477 OFFCURVE",
"91 468 CURVE SMOOTH",
"110 459 OFFCURVE",
"219 399 OFFCURVE",
"228 399 CURVE SMOOTH",
"233 399 OFFCURVE",
"238 402 OFFCURVE",
"238 408 CURVE SMOOTH"
);
}
);
width = 168;
}
);
note = igrave;
unicode = 00EC;
},
{
glyphname = icircumflex;
layers = (
{
hints = (
{
horizontal = 1;
place = "{0, 21}";
type = Stem;
},
{
place = "{11, 48}";
type = Stem;
}
);
layerId = "5266B3E4-A2B0-4CF3-936E-1186C5B63406";
paths = (
{
closed = 1;
nodes = (
"246 203 OFFCURVE",
"232 210 OFFCURVE",
"223 192 CURVE SMOOTH",
"196 136 OFFCURVE",
"163 74 OFFCURVE",
"129 41 CURVE SMOOTH",
"119 31 OFFCURVE",
"100 20 OFFCURVE",
"85 22 CURVE SMOOTH",
"56 24 OFFCURVE",
"54 52 OFFCURVE",
"64 85 CURVE SMOOTH",
"66 92 OFFCURVE",
"76 114 OFFCURVE",
"76 114 CURVE",
"103 183 OFFCURVE",
"180 308 OFFCURVE",
"180 308 CURVE",
"191 329 OFFCURVE",
"209 336 OFFCURVE",
"217 344 CURVE",
"166 344 LINE SMOOTH",
"134 344 OFFCURVE",
"137 344 OFFCURVE",
"112 296 CURVE SMOOTH",
"25 130 LINE SMOOTH",
"-1 81 OFFCURVE",
"5 0 OFFCURVE",
"79 0 CURVE SMOOTH",
"154 0 OFFCURVE",
"210 127 OFFCURVE",
"236 183 CURVE SMOOTH"
);
},
{
closed = 1;
nodes = (
"280 512 LINE",
"279 517 OFFCURVE",
"242 512 OFFCURVE",
"242 512 CURVE",
"93 406 LINE SMOOTH",
"85 400 OFFCURVE",
"108 397 OFFCURVE",
"118 406 CURVE",
"131 413 OFFCURVE",
"250 477 OFFCURVE",
"250 477 CURVE",
"296 406 LINE SMOOTH",
"300 399 OFFCURVE",
"320 397 OFFCURVE",
"316 406 CURVE"
);
}
);
width = 168;
}
);
note = icircumflex;
unicode = 00EE;
},
{
glyphname = idieresis;
layers = (
{
hints = (
{
horizontal = 1;
place = "{0, 21}";
type = Stem;
},
{
place = "{11, 48}";
type = Stem;
},
{
horizontal = 1;
place = "{396, 66}";
type = Stem;
},
{
place = "{107, 66}";
type = Stem;
},
{
place = "{236, 66}";
type = Stem;
}
);
layerId = "5266B3E4-A2B0-4CF3-936E-1186C5B63406";
paths = (
{
closed = 1;
nodes = (
"246 203 OFFCURVE",
"232 210 OFFCURVE",
"223 192 CURVE SMOOTH",
"196 136 OFFCURVE",
"163 74 OFFCURVE",
"129 41 CURVE SMOOTH",
"119 31 OFFCURVE",
"100 20 OFFCURVE",
"85 22 CURVE SMOOTH",
"56 24 OFFCURVE",
"54 52 OFFCURVE",
"64 85 CURVE SMOOTH",
"66 92 OFFCURVE",
"76 114 OFFCURVE",
"76 114 CURVE",
"103 183 OFFCURVE",
"180 308 OFFCURVE",
"180 308 CURVE",
"191 329 OFFCURVE",
"209 336 OFFCURVE",
"217 344 CURVE",
"166 344 LINE SMOOTH",
"134 344 OFFCURVE",
"137 344 OFFCURVE",
"112 296 CURVE SMOOTH",
"25 130 LINE SMOOTH",
"-1 81 OFFCURVE",
"5 0 OFFCURVE",
"79 0 CURVE SMOOTH",
"154 0 OFFCURVE",
"210 127 OFFCURVE",
"236 183 CURVE SMOOTH"
);
},
{
closed = 1;
nodes = (
"302 449 OFFCURVE",
"287 462 OFFCURVE",
"268 462 CURVE SMOOTH",
"249 462 OFFCURVE",
"236 448 OFFCURVE",
"236 429 CURVE SMOOTH",
"236 409 OFFCURVE",
"251 396 OFFCURVE",
"270 396 CURVE SMOOTH",
"289 396 OFFCURVE",
"302 410 OFFCURVE",
"302 429 CURVE SMOOTH"
);
},
{
closed = 1;
nodes = (
"173 449 OFFCURVE",
"158 462 OFFCURVE",
"139 462 CURVE SMOOTH",
"120 462 OFFCURVE",
"107 448 OFFCURVE",
"107 429 CURVE SMOOTH",
"107 409 OFFCURVE",
"122 396 OFFCURVE",
"141 396 CURVE SMOOTH",
"160 396 OFFCURVE",
"173 410 OFFCURVE",
"173 429 CURVE SMOOTH"
);
}
);
width = 168;
}
);
note = idieresis;
unicode = 00EF;
},
{
glyphname = ntilde;
layers = (
{
hints = (
{
horizontal = 1;
place = "{448, 44}";
type = Stem;
}
);
layerId = "5266B3E4-A2B0-4CF3-936E-1186C5B63406";
paths = (
{
closed = 1;
nodes = (
"416 204 OFFCURVE",
"400 211 OFFCURVE",
"392 193 CURVE SMOOTH",
"371 151 OFFCURVE",
"307 20 OFFCURVE",
"255 20 CURVE SMOOTH",
"242 20 OFFCURVE",
"231 29 OFFCURVE",
"239 70 CURVE SMOOTH",
"252 140 OFFCURVE",
"359 328 OFFCURVE",
"359 328 CURVE",
"325 340 OFFCURVE",
"222 277 OFFCURVE",
"174 234 CURVE SMOOTH",
"143 207 OFFCURVE",
"111 169 OFFCURVE",
"91 144 CURVE",
"127 216 OFFCURVE",
"182 316 OFFCURVE",
"212 332 CURVE",
"198 329 OFFCURVE",
"183 335 OFFCURVE",
"170 336 CURVE SMOOTH",
"138 338 OFFCURVE",
"125 321 OFFCURVE",
"99 273 CURVE SMOOTH",
"50 183 OFFCURVE",
"9 88 OFFCURVE",
"-39 -7 CURVE",
"-29 -1 OFFCURVE",
"-20 -2 OFFCURVE",
"-5 -1 CURVE SMOOTH",
"16 -1 OFFCURVE",
"25 0 OFFCURVE",
"33 14 CURVE SMOOTH",
"89 125 OFFCURVE",
"138 181 OFFCURVE",
"172 212 CURVE SMOOTH",
"249 284 OFFCURVE",
"267 257 OFFCURVE",
"243 218 CURVE SMOOTH",
"215 173 OFFCURVE",
"196 139 OFFCURVE",
"188 113 CURVE SMOOTH",
"158 20 OFFCURVE",
"206 -4 OFFCURVE",
"241 -4 CURVE SMOOTH",
"318 -4 OFFCURVE",
"376 123 OFFCURVE",
"406 184 CURVE SMOOTH"
);
},
{
closed = 1;
nodes = (
"439 493 OFFCURVE",
"418 496 OFFCURVE",
"416 491 CURVE SMOOTH",
"405 468 OFFCURVE",
"388 453 OFFCURVE",
"361 456 CURVE SMOOTH",
"321 459 OFFCURVE",
"283 489 OFFCURVE",
"240 492 CURVE SMOOTH",
"194 496 OFFCURVE",
"161 451 OFFCURVE",
"142 417 CURVE",
"140 412 OFFCURVE",
"163 409 OFFCURVE",
"165 415 CURVE",
"175 434 OFFCURVE",
"193 450 OFFCURVE",
"217 448 CURVE SMOOTH",
"258 445 OFFCURVE",
"296 413 OFFCURVE",
"338 409 CURVE SMOOTH",
"385 405 OFFCURVE",
"419 452 OFFCURVE",
"437 489 CURVE SMOOTH"
);
}
);
width = 335;
}
);
note = ntilde;
unicode = 00F1;
},
{
glyphname = oacute;
layers = (
{
hints = (
{
horizontal = 1;
place = "{418, 20}";
type = Stem;
}
);
layerId = "5266B3E4-A2B0-4CF3-936E-1186C5B63406";
paths = (
{
closed = 1;
nodes = (
"415 203 OFFCURVE",
"398 207 OFFCURVE",
"393 197 CURVE SMOOTH",
"369 149 OFFCURVE",
"317 25 OFFCURVE",
"253 25 CURVE SMOOTH",
"229 25 OFFCURVE",
"214 35 OFFCURVE",
"206 50 CURVE",
"244 86 OFFCURVE",
"275 133 OFFCURVE",
"290 168 CURVE SMOOTH",
"328 257 OFFCURVE",
"317 349 OFFCURVE",
"241 350 CURVE SMOOTH",
"173 352 OFFCURVE",
"90 274 OFFCURVE",
"51 182 CURVE SMOOTH",
"13 93 OFFCURVE",
"24 2 OFFCURVE",
"100 0 CURVE SMOOTH",
"129 -1 OFFCURVE",
"159 13 OFFCURVE",
"187 34 CURVE",
"200 19 OFFCURVE",
"221 8 OFFCURVE",
"251 8 CURVE SMOOTH",
"335 8 OFFCURVE",
"391 150 OFFCURVE",
"408 188 CURVE SMOOTH"
);
},
{
closed = 1;
nodes = (
"298 306 OFFCURVE",
"293 235 OFFCURVE",
"254 153 CURVE SMOOTH",
"245 134 OFFCURVE",
"234 115 OFFCURVE",
"223 99 CURVE",
"224 103 OFFCURVE",
"225 106 OFFCURVE",
"225 110 CURVE SMOOTH",
"225 126 OFFCURVE",
"212 140 OFFCURVE",
"195 140 CURVE SMOOTH",
"170 140 OFFCURVE",
"161 120 OFFCURVE",
"160 97 CURVE SMOOTH",
"160 82 OFFCURVE",
"165 64 OFFCURVE",
"176 48 CURVE",
"152 28 OFFCURVE",
"127 18 OFFCURVE",
"108 23 CURVE SMOOTH",
"72 34 OFFCURVE",
"81 104 OFFCURVE",
"120 186 CURVE SMOOTH",
"157 265 OFFCURVE",
"219 329 OFFCURVE",
"262 317 CURVE SMOOTH"
);
},
{
closed = 1;
nodes = (
"447 517 OFFCURVE",
"443 529 OFFCURVE",
"433 534 CURVE SMOOTH",
"413 544 OFFCURVE",
"391 534 OFFCURVE",
"375 522 CURVE SMOOTH",
"359 509 OFFCURVE",
"256 439 OFFCURVE",
"252 431 CURVE",
"249 427 OFFCURVE",
"250 421 OFFCURVE",
"255 418 CURVE SMOOTH",
"262 415 OFFCURVE",
"434 490 OFFCURVE",
"442 507 CURVE SMOOTH"
);
}
);
width = 335;
}
);
note = oacute;
unicode = 00F3;
},
{
glyphname = ograve;
layers = (
{
hints = (
{
horizontal = 1;
place = "{534, -20}";
target = down;
type = TopGhost;
}
);
layerId = "5266B3E4-A2B0-4CF3-936E-1186C5B63406";
paths = (
{
closed = 1;
nodes = (
"415 203 OFFCURVE",
"398 207 OFFCURVE",
"393 197 CURVE SMOOTH",
"369 149 OFFCURVE",
"317 25 OFFCURVE",
"253 25 CURVE SMOOTH",
"229 25 OFFCURVE",
"214 35 OFFCURVE",
"206 50 CURVE",
"244 86 OFFCURVE",
"275 133 OFFCURVE",
"290 168 CURVE SMOOTH",
"328 257 OFFCURVE",
"317 349 OFFCURVE",
"241 350 CURVE SMOOTH",
"173 352 OFFCURVE",
"90 274 OFFCURVE",
"51 182 CURVE SMOOTH",
"13 93 OFFCURVE",
"24 2 OFFCURVE",
"100 0 CURVE SMOOTH",
"129 -1 OFFCURVE",
"159 13 OFFCURVE",
"187 34 CURVE",
"200 19 OFFCURVE",
"221 8 OFFCURVE",
"251 8 CURVE SMOOTH",
"335 8 OFFCURVE",
"391 150 OFFCURVE",
"408 188 CURVE SMOOTH"
);
},
{
closed = 1;
nodes = (
"298 306 OFFCURVE",
"293 235 OFFCURVE",
"254 153 CURVE SMOOTH",
"245 134 OFFCURVE",
"234 115 OFFCURVE",
"223 99 CURVE",
"224 103 OFFCURVE",
"225 106 OFFCURVE",
"225 110 CURVE SMOOTH",
"225 126 OFFCURVE",
"212 140 OFFCURVE",
"195 140 CURVE SMOOTH",
"170 140 OFFCURVE",
"161 120 OFFCURVE",
"160 97 CURVE SMOOTH",
"160 82 OFFCURVE",
"165 64 OFFCURVE",
"176 48 CURVE",
"152 28 OFFCURVE",
"127 18 OFFCURVE",
"108 23 CURVE SMOOTH",
"72 34 OFFCURVE",
"81 104 OFFCURVE",
"120 186 CURVE SMOOTH",
"157 265 OFFCURVE",
"219 329 OFFCURVE",
"262 317 CURVE SMOOTH"
);
},
{
closed = 1;
nodes = (
"309 415 OFFCURVE",
"163 534 OFFCURVE",
"144 534 CURVE SMOOTH",
"133 534 OFFCURVE",
"125 525 OFFCURVE",
"125 513 CURVE SMOOTH",
"125 491 OFFCURVE",
"144 477 OFFCURVE",
"162 468 CURVE SMOOTH",
"181 459 OFFCURVE",
"290 399 OFFCURVE",
"299 399 CURVE SMOOTH",
"304 399 OFFCURVE",
"309 402 OFFCURVE",
"309 408 CURVE SMOOTH"
);
}
);
width = 335;
}
);
note = ograve;
unicode = 00F2;
},
{
glyphname = ocircumflex;
layers = (
{
layerId = "5266B3E4-A2B0-4CF3-936E-1186C5B63406";
paths = (
{
closed = 1;
nodes = (
"415 203 OFFCURVE",
"398 207 OFFCURVE",
"393 197 CURVE SMOOTH",
"369 149 OFFCURVE",
"317 25 OFFCURVE",
"253 25 CURVE SMOOTH",
"229 25 OFFCURVE",
"214 35 OFFCURVE",
"206 50 CURVE",
"244 86 OFFCURVE",
"275 133 OFFCURVE",
"290 168 CURVE SMOOTH",
"328 257 OFFCURVE",
"317 349 OFFCURVE",
"241 350 CURVE SMOOTH",
"173 352 OFFCURVE",
"90 274 OFFCURVE",
"51 182 CURVE SMOOTH",
"13 93 OFFCURVE",
"24 2 OFFCURVE",
"100 0 CURVE SMOOTH",
"129 -1 OFFCURVE",
"159 13 OFFCURVE",
"187 34 CURVE",
"200 19 OFFCURVE",
"221 8 OFFCURVE",
"251 8 CURVE SMOOTH",
"335 8 OFFCURVE",
"391 150 OFFCURVE",
"408 188 CURVE SMOOTH"
);
},
{
closed = 1;
nodes = (
"298 306 OFFCURVE",
"293 235 OFFCURVE",
"254 153 CURVE SMOOTH",
"245 134 OFFCURVE",
"234 115 OFFCURVE",
"223 99 CURVE",
"224 103 OFFCURVE",
"225 106 OFFCURVE",
"225 110 CURVE SMOOTH",
"225 126 OFFCURVE",
"212 140 OFFCURVE",
"195 140 CURVE SMOOTH",
"170 140 OFFCURVE",
"161 120 OFFCURVE",
"160 97 CURVE SMOOTH",
"160 82 OFFCURVE",
"165 64 OFFCURVE",
"176 48 CURVE",
"152 28 OFFCURVE",
"127 18 OFFCURVE",
"108 23 CURVE SMOOTH",
"72 34 OFFCURVE",
"81 104 OFFCURVE",
"120 186 CURVE SMOOTH",
"157 265 OFFCURVE",
"219 329 OFFCURVE",
"262 317 CURVE SMOOTH"
);
},
{
closed = 1;
nodes = (
"347 516 LINE",
"346 521 OFFCURVE",
"309 516 OFFCURVE",
"309 516 CURVE",
"160 410 LINE SMOOTH",
"152 404 OFFCURVE",
"175 401 OFFCURVE",
"185 410 CURVE",
"198 417 OFFCURVE",
"317 481 OFFCURVE",
"317 481 CURVE",
"363 410 LINE SMOOTH",
"367 403 OFFCURVE",
"387 401 OFFCURVE",
"383 410 CURVE"
);
}
);
width = 335;
}
);
note = ocircumflex;
unicode = 00F4;
},
{
glyphname = odieresis;
layers = (
{
hints = (
{
horizontal = 1;
place = "{424, 66}";
type = Stem;
},
{
place = "{195, 66}";
type = Stem;
},
{
place = "{324, 66}";
type = Stem;
}
);
layerId = "5266B3E4-A2B0-4CF3-936E-1186C5B63406";
paths = (
{
closed = 1;
nodes = (
"415 203 OFFCURVE",
"398 207 OFFCURVE",
"393 197 CURVE SMOOTH",
"369 149 OFFCURVE",
"317 25 OFFCURVE",
"253 25 CURVE SMOOTH",
"229 25 OFFCURVE",
"214 35 OFFCURVE",
"206 50 CURVE",
"244 86 OFFCURVE",
"275 133 OFFCURVE",
"290 168 CURVE SMOOTH",
"328 257 OFFCURVE",
"317 349 OFFCURVE",
"241 350 CURVE SMOOTH",
"173 352 OFFCURVE",
"90 274 OFFCURVE",
"51 182 CURVE SMOOTH",
"13 93 OFFCURVE",
"24 2 OFFCURVE",
"100 0 CURVE SMOOTH",
"129 -1 OFFCURVE",
"159 13 OFFCURVE",
"187 34 CURVE",
"200 19 OFFCURVE",
"221 8 OFFCURVE",
"251 8 CURVE SMOOTH",
"335 8 OFFCURVE",
"391 150 OFFCURVE",
"408 188 CURVE SMOOTH"
);
},
{
closed = 1;
nodes = (
"298 306 OFFCURVE",
"293 235 OFFCURVE",
"254 153 CURVE SMOOTH",
"245 134 OFFCURVE",
"234 115 OFFCURVE",
"223 99 CURVE",
"224 103 OFFCURVE",
"225 106 OFFCURVE",
"225 110 CURVE SMOOTH",
"225 126 OFFCURVE",
"212 140 OFFCURVE",
"195 140 CURVE SMOOTH",
"170 140 OFFCURVE",
"161 120 OFFCURVE",
"160 97 CURVE SMOOTH",
"160 82 OFFCURVE",
"165 64 OFFCURVE",
"176 48 CURVE",
"152 28 OFFCURVE",
"127 18 OFFCURVE",
"108 23 CURVE SMOOTH",
"72 34 OFFCURVE",
"81 104 OFFCURVE",
"120 186 CURVE SMOOTH",
"157 265 OFFCURVE",
"219 329 OFFCURVE",
"262 317 CURVE SMOOTH"
);
},
{
closed = 1;
nodes = (
"390 477 OFFCURVE",
"375 490 OFFCURVE",
"356 490 CURVE SMOOTH",
"337 490 OFFCURVE",
"324 476 OFFCURVE",
"324 457 CURVE SMOOTH",
"324 437 OFFCURVE",
"339 424 OFFCURVE",
"358 424 CURVE SMOOTH",
"377 424 OFFCURVE",
"390 438 OFFCURVE",
"390 457 CURVE SMOOTH"
);
},
{
closed = 1;
nodes = (
"261 477 OFFCURVE",
"246 490 OFFCURVE",
"227 490 CURVE SMOOTH",
"208 490 OFFCURVE",
"195 476 OFFCURVE",
"195 457 CURVE SMOOTH",
"195 437 OFFCURVE",
"210 424 OFFCURVE",
"229 424 CURVE SMOOTH",
"248 424 OFFCURVE",
"261 438 OFFCURVE",
"261 457 CURVE SMOOTH"
);
}
);
width = 335;
}
);
note = odieresis;
unicode = 00F6;
},
{
glyphname = otilde;
layers = (
{
hints = (
{
horizontal = 1;
place = "{470, 44}";
type = Stem;
}
);
layerId = "5266B3E4-A2B0-4CF3-936E-1186C5B63406";
paths = (
{
closed = 1;
nodes = (
"415 203 OFFCURVE",
"398 207 OFFCURVE",
"393 197 CURVE SMOOTH",
"369 149 OFFCURVE",
"317 25 OFFCURVE",
"253 25 CURVE SMOOTH",
"229 25 OFFCURVE",
"214 35 OFFCURVE",
"206 50 CURVE",
"244 86 OFFCURVE",
"275 133 OFFCURVE",
"290 168 CURVE SMOOTH",
"328 257 OFFCURVE",
"317 349 OFFCURVE",
"241 350 CURVE SMOOTH",
"173 352 OFFCURVE",
"90 274 OFFCURVE",
"51 182 CURVE SMOOTH",
"13 93 OFFCURVE",
"24 2 OFFCURVE",
"100 0 CURVE SMOOTH",
"129 -1 OFFCURVE",
"159 13 OFFCURVE",
"187 34 CURVE",
"200 19 OFFCURVE",
"221 8 OFFCURVE",
"251 8 CURVE SMOOTH",
"335 8 OFFCURVE",
"391 150 OFFCURVE",
"408 188 CURVE SMOOTH"
);
},
{
closed = 1;
nodes = (
"298 306 OFFCURVE",
"293 235 OFFCURVE",
"254 153 CURVE SMOOTH",
"245 134 OFFCURVE",
"234 115 OFFCURVE",
"223 99 CURVE",
"224 103 OFFCURVE",
"225 106 OFFCURVE",
"225 110 CURVE SMOOTH",
"225 126 OFFCURVE",
"212 140 OFFCURVE",
"195 140 CURVE SMOOTH",
"170 140 OFFCURVE",
"161 120 OFFCURVE",
"160 97 CURVE SMOOTH",
"160 82 OFFCURVE",
"165 64 OFFCURVE",
"176 48 CURVE",
"152 28 OFFCURVE",
"127 18 OFFCURVE",
"108 23 CURVE SMOOTH",
"72 34 OFFCURVE",
"81 104 OFFCURVE",
"120 186 CURVE SMOOTH",
"157 265 OFFCURVE",
"219 329 OFFCURVE",
"262 317 CURVE SMOOTH"
);
},
{
closed = 1;
nodes = (
"435 515 OFFCURVE",
"414 518 OFFCURVE",
"412 513 CURVE SMOOTH",
"401 490 OFFCURVE",
"384 475 OFFCURVE",
"357 478 CURVE SMOOTH",
"317 481 OFFCURVE",
"279 511 OFFCURVE",
"236 514 CURVE SMOOTH",
"190 518 OFFCURVE",
"157 473 OFFCURVE",
"138 439 CURVE",
"136 434 OFFCURVE",
"159 431 OFFCURVE",
"161 437 CURVE",
"171 456 OFFCURVE",
"189 472 OFFCURVE",
"213 470 CURVE SMOOTH",
"254 467 OFFCURVE",
"292 435 OFFCURVE",
"334 431 CURVE SMOOTH",
"381 427 OFFCURVE",
"415 474 OFFCURVE",
"433 511 CURVE SMOOTH"
);
}
);
width = 335;
}
);
note = otilde;
unicode = 00F5;
},
{
glyphname = uacute;
layers = (
{
hints = (
{
horizontal = 1;
place = "{406, 20}";
type = Stem;
}
);
layerId = "5266B3E4-A2B0-4CF3-936E-1186C5B63406";
paths = (
{
closed = 1;
nodes = (
"438 204 OFFCURVE",
"422 211 OFFCURVE",
"414 193 CURVE SMOOTH",
"380 121 OFFCURVE",
"330 26 OFFCURVE",
"281 26 CURVE SMOOTH",
"267 27 OFFCURVE",
"253 43 OFFCURVE",
"262 86 CURVE SMOOTH",
"268 120 OFFCURVE",
"301 189 OFFCURVE",
"329 245 CURVE SMOOTH",
"359 307 OFFCURVE",
"369 321 OFFCURVE",
"398 344 CURVE",
"344 344 LINE SMOOTH",
"325 344 OFFCURVE",
"313 339 OFFCURVE",
"305 323 CURVE SMOOTH",
"267 244 OFFCURVE",
"212 127 OFFCURVE",
"156 62 CURVE SMOOTH",
"91 -13 OFFCURVE",
"49 27 OFFCURVE",
"97 131 CURVE SMOOTH",
"115 169 OFFCURVE",
"160 260 OFFCURVE",
"160 260 CURVE",
"187 315 OFFCURVE",
"201 327 OFFCURVE",
"224 344 CURVE",
"163 344 LINE SMOOTH",
"144 344 OFFCURVE",
"132 339 OFFCURVE",
"124 323 CURVE SMOOTH",
"109 292 OFFCURVE",
"88 251 OFFCURVE",
"68 213 CURVE SMOOTH",
"50 178 LINE SMOOTH",
"44 165 OFFCURVE",
"53 162 OFFCURVE",
"59 162 CURVE",
"41 126 OFFCURVE",
"16 89 OFFCURVE",
"25 46 CURVE SMOOTH",
"33 8 OFFCURVE",
"68 1 OFFCURVE",
"88 1 CURVE SMOOTH",
"137 1 OFFCURVE",
"189 69 OFFCURVE",
"223 129 CURVE",
"197 48 OFFCURVE",
"224 1 OFFCURVE",
"269 1 CURVE SMOOTH",
"342 1 OFFCURVE",
"396 116 OFFCURVE",
"428 184 CURVE SMOOTH"
);
},
{
closed = 1;
nodes = (
"439 505 OFFCURVE",
"435 517 OFFCURVE",
"425 522 CURVE SMOOTH",
"405 532 OFFCURVE",
"383 522 OFFCURVE",
"367 510 CURVE SMOOTH",
"351 497 OFFCURVE",
"248 427 OFFCURVE",
"244 419 CURVE",
"241 415 OFFCURVE",
"242 409 OFFCURVE",
"247 406 CURVE SMOOTH",
"254 403 OFFCURVE",
"426 478 OFFCURVE",
"434 495 CURVE SMOOTH"
);
}
);
width = 357;
}
);
note = uacute;
unicode = 00FA;
},
{
glyphname = ugrave;
layers = (
{
hints = (
{
horizontal = 1;
place = "{537, -20}";
target = down;
type = TopGhost;
}
);
layerId = "5266B3E4-A2B0-4CF3-936E-1186C5B63406";
paths = (
{
closed = 1;
nodes = (
"438 204 OFFCURVE",
"422 211 OFFCURVE",
"414 193 CURVE SMOOTH",
"380 121 OFFCURVE",
"330 26 OFFCURVE",
"281 26 CURVE SMOOTH",
"267 27 OFFCURVE",
"253 43 OFFCURVE",
"262 86 CURVE SMOOTH",
"268 120 OFFCURVE",
"301 189 OFFCURVE",
"329 245 CURVE SMOOTH",
"359 307 OFFCURVE",
"369 321 OFFCURVE",
"398 344 CURVE",
"344 344 LINE SMOOTH",
"325 344 OFFCURVE",
"313 339 OFFCURVE",
"305 323 CURVE SMOOTH",
"267 244 OFFCURVE",
"212 127 OFFCURVE",
"156 62 CURVE SMOOTH",
"91 -13 OFFCURVE",
"49 27 OFFCURVE",
"97 131 CURVE SMOOTH",
"115 169 OFFCURVE",
"160 260 OFFCURVE",
"160 260 CURVE",
"187 315 OFFCURVE",
"201 327 OFFCURVE",
"224 344 CURVE",
"163 344 LINE SMOOTH",
"144 344 OFFCURVE",
"132 339 OFFCURVE",
"124 323 CURVE SMOOTH",
"109 292 OFFCURVE",
"88 251 OFFCURVE",
"68 213 CURVE SMOOTH",
"50 178 LINE SMOOTH",
"44 165 OFFCURVE",
"53 162 OFFCURVE",
"59 162 CURVE",
"41 126 OFFCURVE",
"16 89 OFFCURVE",
"25 46 CURVE SMOOTH",
"33 8 OFFCURVE",
"68 1 OFFCURVE",
"88 1 CURVE SMOOTH",
"137 1 OFFCURVE",
"189 69 OFFCURVE",
"223 129 CURVE",
"197 48 OFFCURVE",
"224 1 OFFCURVE",
"269 1 CURVE SMOOTH",
"342 1 OFFCURVE",
"396 116 OFFCURVE",
"428 184 CURVE SMOOTH"
);
},
{
closed = 1;
nodes = (
"326 418 OFFCURVE",
"180 537 OFFCURVE",
"161 537 CURVE SMOOTH",
"150 537 OFFCURVE",
"142 528 OFFCURVE",
"142 516 CURVE SMOOTH",
"142 494 OFFCURVE",
"161 480 OFFCURVE",
"179 471 CURVE SMOOTH",
"198 462 OFFCURVE",
"307 402 OFFCURVE",
"316 402 CURVE SMOOTH",
"321 402 OFFCURVE",
"326 405 OFFCURVE",
"326 411 CURVE SMOOTH"
);
}
);
width = 357;
}
);
note = ugrave;
unicode = 00F9;
},
{
glyphname = ucircumflex;
layers = (
{
layerId = "5266B3E4-A2B0-4CF3-936E-1186C5B63406";
paths = (
{
closed = 1;
nodes = (
"438 204 OFFCURVE",
"422 211 OFFCURVE",
"414 193 CURVE SMOOTH",
"380 121 OFFCURVE",
"330 26 OFFCURVE",
"281 26 CURVE SMOOTH",
"267 27 OFFCURVE",
"253 43 OFFCURVE",
"262 86 CURVE SMOOTH",
"268 120 OFFCURVE",
"301 189 OFFCURVE",
"329 245 CURVE SMOOTH",
"359 307 OFFCURVE",
"369 321 OFFCURVE",
"398 344 CURVE",
"344 344 LINE SMOOTH",
"325 344 OFFCURVE",
"313 339 OFFCURVE",
"305 323 CURVE SMOOTH",
"267 244 OFFCURVE",
"212 127 OFFCURVE",
"156 62 CURVE SMOOTH",
"91 -13 OFFCURVE",
"49 27 OFFCURVE",
"97 131 CURVE SMOOTH",
"115 169 OFFCURVE",
"160 260 OFFCURVE",
"160 260 CURVE",
"187 315 OFFCURVE",
"201 327 OFFCURVE",
"224 344 CURVE",
"163 344 LINE SMOOTH",
"144 344 OFFCURVE",
"132 339 OFFCURVE",
"124 323 CURVE SMOOTH",
"109 292 OFFCURVE",
"88 251 OFFCURVE",
"68 213 CURVE SMOOTH",
"50 178 LINE SMOOTH",
"44 165 OFFCURVE",
"53 162 OFFCURVE",
"59 162 CURVE",
"41 126 OFFCURVE",
"16 89 OFFCURVE",
"25 46 CURVE SMOOTH",
"33 8 OFFCURVE",
"68 1 OFFCURVE",
"88 1 CURVE SMOOTH",
"137 1 OFFCURVE",
"189 69 OFFCURVE",
"223 129 CURVE",
"197 48 OFFCURVE",
"224 1 OFFCURVE",
"269 1 CURVE SMOOTH",
"342 1 OFFCURVE",
"396 116 OFFCURVE",
"428 184 CURVE SMOOTH"
);
},
{
closed = 1;
nodes = (
"371 527 LINE",
"370 532 OFFCURVE",
"333 527 OFFCURVE",
"333 527 CURVE",
"184 421 LINE SMOOTH",
"176 415 OFFCURVE",
"199 412 OFFCURVE",
"209 421 CURVE",
"222 428 OFFCURVE",
"341 492 OFFCURVE",
"341 492 CURVE",
"387 421 LINE SMOOTH",
"391 414 OFFCURVE",
"411 412 OFFCURVE",
"407 421 CURVE"
);
}
);
width = 357;
}
);
note = ucircumflex;
unicode = 00FB;
},
{
glyphname = udieresis;
layers = (
{
hints = (
{
horizontal = 1;
place = "{444, 66}";
type = Stem;
},
{
place = "{203, 66}";
type = Stem;
},
{
place = "{332, 66}";
type = Stem;
}
);
layerId = "5266B3E4-A2B0-4CF3-936E-1186C5B63406";
paths = (
{
closed = 1;
nodes = (
"438 204 OFFCURVE",
"422 211 OFFCURVE",
"414 193 CURVE SMOOTH",
"380 121 OFFCURVE",
"330 26 OFFCURVE",
"281 26 CURVE SMOOTH",
"267 27 OFFCURVE",
"253 43 OFFCURVE",
"262 86 CURVE SMOOTH",
"268 120 OFFCURVE",
"301 189 OFFCURVE",
"329 245 CURVE SMOOTH",
"359 307 OFFCURVE",
"369 321 OFFCURVE",
"398 344 CURVE",
"344 344 LINE SMOOTH",
"325 344 OFFCURVE",
"313 339 OFFCURVE",
"305 323 CURVE SMOOTH",
"267 244 OFFCURVE",
"212 127 OFFCURVE",
"156 62 CURVE SMOOTH",
"91 -13 OFFCURVE",
"49 27 OFFCURVE",
"97 131 CURVE SMOOTH",
"115 169 OFFCURVE",
"160 260 OFFCURVE",
"160 260 CURVE",
"187 315 OFFCURVE",
"201 327 OFFCURVE",
"224 344 CURVE",
"163 344 LINE SMOOTH",
"144 344 OFFCURVE",
"132 339 OFFCURVE",
"124 323 CURVE SMOOTH",
"109 292 OFFCURVE",
"88 251 OFFCURVE",
"68 213 CURVE SMOOTH",
"50 178 LINE SMOOTH",
"44 165 OFFCURVE",
"53 162 OFFCURVE",
"59 162 CURVE",
"41 126 OFFCURVE",
"16 89 OFFCURVE",
"25 46 CURVE SMOOTH",
"33 8 OFFCURVE",
"68 1 OFFCURVE",
"88 1 CURVE SMOOTH",
"137 1 OFFCURVE",
"189 69 OFFCURVE",
"223 129 CURVE",
"197 48 OFFCURVE",
"224 1 OFFCURVE",
"269 1 CURVE SMOOTH",
"342 1 OFFCURVE",
"396 116 OFFCURVE",
"428 184 CURVE SMOOTH"
);
},
{
closed = 1;
nodes = (
"269 497 OFFCURVE",
"254 510 OFFCURVE",
"235 510 CURVE SMOOTH",
"216 510 OFFCURVE",
"203 496 OFFCURVE",
"203 477 CURVE SMOOTH",
"203 457 OFFCURVE",
"218 444 OFFCURVE",
"237 444 CURVE SMOOTH",
"256 444 OFFCURVE",
"269 458 OFFCURVE",
"269 477 CURVE SMOOTH"
);
},
{
closed = 1;
nodes = (
"398 497 OFFCURVE",
"383 510 OFFCURVE",
"364 510 CURVE SMOOTH",
"345 510 OFFCURVE",
"332 496 OFFCURVE",
"332 477 CURVE SMOOTH",
"332 457 OFFCURVE",
"347 444 OFFCURVE",
"366 444 CURVE SMOOTH",
"385 444 OFFCURVE",
"398 458 OFFCURVE",
"398 477 CURVE SMOOTH"
);
}
);
width = 357;
}
);
note = udieresis;
unicode = 00FC;
},
{
glyphname = dagger;
layers = (
{
hints = (
{
horizontal = 1;
place = "{411, 29}";
type = Stem;
}
);
layerId = "5266B3E4-A2B0-4CF3-936E-1186C5B63406";
paths = (
{
closed = 1;
nodes = (
"430 365 OFFCURVE",
"423 366 OFFCURVE",
"412 366 CURVE SMOOTH",
"406 366 LINE SMOOTH",
"375 366 OFFCURVE",
"354 362 OFFCURVE",
"338 360 CURVE SMOOTH",
"329 358 OFFCURVE",
"320 358 OFFCURVE",
"312 357 CURVE",
"347 402 OFFCURVE",
"411 474 OFFCURVE",
"438 506 CURVE SMOOTH",
"440 508 OFFCURVE",
"443 512 OFFCURVE",
"440 515 CURVE SMOOTH",
"425 533 OFFCURVE",
"388 526 OFFCURVE",
"381 517 CURVE SMOOTH",
"328 457 OFFCURVE",
"283 404 OFFCURVE",
"245 350 CURVE",
"195 343 LINE SMOOTH",
"146 337 OFFCURVE",
"118 330 OFFCURVE",
"112 325 CURVE",
"100 318 OFFCURVE",
"91 312 OFFCURVE",
"91 306 CURVE SMOOTH",
"91 305 OFFCURVE",
"92 303 OFFCURVE",
"94 302 CURVE",
"95 300 OFFCURVE",
"97 298 OFFCURVE",
"102 298 CURVE SMOOTH",
"104 298 OFFCURVE",
"108 299 OFFCURVE",
"113 300 CURVE SMOOTH",
"116 300 LINE SMOOTH",
"156 306 OFFCURVE",
"191 313 OFFCURVE",
"222 318 CURVE",
"121 175 OFFCURVE",
"68 56 OFFCURVE",
"33 -57 CURVE SMOOTH",
"26 -85 OFFCURVE",
"20 -101 OFFCURVE",
"20 -108 CURVE SMOOTH",
"20 -110 LINE SMOOTH",
"20 -116 OFFCURVE",
"26 -118 OFFCURVE",
"33 -118 CURVE SMOOTH",
"37 -118 OFFCURVE",
"40 -115 OFFCURVE",
"42 -112 CURVE",
"48 -81 OFFCURVE",
"53 -67 OFFCURVE",
"55 -58 CURVE",
"87 30 OFFCURVE",
"189 192 OFFCURVE",
"291 330 CURVE",
"305 334 OFFCURVE",
"316 335 OFFCURVE",
"327 338 CURVE SMOOTH",
"412 354 LINE SMOOTH",
"425 356 OFFCURVE",
"431 358 OFFCURVE",
"431 363 CURVE"
);
}
);
width = 441;
}
);
note = dagger;
unicode = 2020;
},
{
glyphname = degree;
layers = (
{
hints = (
{
horizontal = 1;
place = "{624, 21}";
target = up;
type = BottomGhost;
},
{
horizontal = 1;
place = "{752, -20}";
target = down;
type = TopGhost;
}
);
layerId = "5266B3E4-A2B0-4CF3-936E-1186C5B63406";
paths = (
{
closed = 1;
nodes = (
"227 723 OFFCURVE",
"198 752 OFFCURVE",
"163 752 CURVE SMOOTH",
"128 752 OFFCURVE",
"99 723 OFFCURVE",
"99 688 CURVE SMOOTH",
"99 654 OFFCURVE",
"123 624 OFFCURVE",
"163 624 CURVE SMOOTH",
"198 624 OFFCURVE",
"227 652 OFFCURVE",
"227 688 CURVE SMOOTH"
);
},
{
closed = 1;
nodes = (
"208 663 OFFCURVE",
"186 639 OFFCURVE",
"162 639 CURVE SMOOTH",
"151 639 OFFCURVE",
"116 646 OFFCURVE",
"116 687 CURVE SMOOTH",
"116 713 OFFCURVE",
"137 733 OFFCURVE",
"162 733 CURVE SMOOTH",
"188 733 OFFCURVE",
"208 713 OFFCURVE",
"208 687 CURVE SMOOTH"
);
}
);
width = 323;
}
);
note = degree;
unicode = 00B0;
},
{
glyphname = cent;
layers = (
{
layerId = "5266B3E4-A2B0-4CF3-936E-1186C5B63406";
paths = (
{
closed = 1;
nodes = (
"342 837 OFFCURVE",
"326 861 OFFCURVE",
"311 826 CURVE SMOOTH",
"290 776 OFFCURVE",
"266 717 OFFCURVE",
"242 657 CURVE",
"236 657 LINE SMOOTH",
"188 658 OFFCURVE",
"134 619 OFFCURVE",
"103 583 CURVE SMOOTH",
"40 508 OFFCURVE",
"-20 313 OFFCURVE",
"114 301 CURVE",
"97 248 OFFCURVE",
"-23 35 OFFCURVE",
"73 4 CURVE SMOOTH",
"89 -1 OFFCURVE",
"101 18 OFFCURVE",
"82 22 CURVE SMOOTH",
"16 37 OFFCURVE",
"130 269 OFFCURVE",
"141 301 CURVE",
"197 303 OFFCURVE",
"237 334 OFFCURVE",
"269 379 CURVE SMOOTH",
"275 387 OFFCURVE",
"268 406 OFFCURVE",
"257 392 CURVE SMOOTH",
"226 354 OFFCURVE",
"187 318 OFFCURVE",
"146 318 CURVE SMOOTH",
"117 318 OFFCURVE",
"93 335 OFFCURVE",
"91 384 CURVE SMOOTH",
"89 443 OFFCURVE",
"114 500 OFFCURVE",
"149 548 CURVE SMOOTH",
"187 598 OFFCURVE",
"242 640 OFFCURVE",
"277 632 CURVE SMOOTH",
"288 629 OFFCURVE",
"303 613 OFFCURVE",
"299 590 CURVE",
"296 598 OFFCURVE",
"278 608 OFFCURVE",
"265 608 CURVE SMOOTH",
"238 609 OFFCURVE",
"219 590 OFFCURVE",
"218 563 CURVE SMOOTH",
"217 537 OFFCURVE",
"238 515 OFFCURVE",
"265 515 CURVE SMOOTH",
"297 515 OFFCURVE",
"318 544 OFFCURVE",
"319 577 CURVE SMOOTH",
"320 611 OFFCURVE",
"299 642 OFFCURVE",
"267 652 CURVE",
"300 734 OFFCURVE",
"328 800 OFFCURVE",
"336 821 CURVE SMOOTH"
);
}
);
width = 316;
}
);
note = cent;
unicode = 00A2;
},
